G04 EAGLE Gerber RS-274X export*
G75*
%MOMM*%
%FSLAX34Y34*%
%LPD*%
%INBottom Copper*%
%IPPOS*%
%AMOC8*
5,1,8,0,0,1.08239X$1,22.5*%
G01*
%ADD10C,2.540000*%
%ADD11R,1.220000X0.910000*%
%ADD12C,0.508000*%
%ADD13C,0.075000*%
%ADD14R,1.450000X0.600000*%
%ADD15R,1.450000X0.300000*%
%ADD16C,1.158000*%
%ADD17R,1.080000X1.050000*%
%ADD18R,1.050000X1.080000*%
%ADD19R,1.050000X1.300000*%
%ADD20R,0.950000X0.550000*%
%ADD21R,0.900000X0.970200*%
%ADD22R,0.932600X0.970200*%
%ADD23R,1.000000X0.600000*%
%ADD24R,0.600000X0.600000*%
%ADD25R,1.000000X1.000000*%
%ADD26C,0.152400*%
%ADD27C,0.756400*%


D10*
X57150Y882650D03*
X120650Y908050D03*
X342900Y882650D03*
X406400Y908050D03*
X628650Y882650D03*
X692150Y908050D03*
X57150Y692150D03*
X120650Y717550D03*
X247650Y692150D03*
X311150Y717550D03*
X438150Y692150D03*
X501650Y717550D03*
X628650Y692150D03*
X692150Y717550D03*
X57150Y501650D03*
X120650Y527050D03*
X247650Y501650D03*
X311150Y527050D03*
X438150Y501650D03*
X501650Y527050D03*
X628650Y501650D03*
X692150Y527050D03*
X57150Y311150D03*
X120650Y336550D03*
X247650Y311150D03*
X311150Y336550D03*
X438150Y311150D03*
X501650Y336550D03*
X628650Y311150D03*
X692150Y336550D03*
X57150Y120650D03*
X120650Y146050D03*
X247650Y120650D03*
X311150Y146050D03*
X438150Y120650D03*
X501650Y146050D03*
X628650Y120650D03*
X692150Y146050D03*
D11*
X60559Y809878D03*
X60559Y842578D03*
X346309Y809878D03*
X346309Y842578D03*
X632059Y809878D03*
X632059Y842578D03*
X61438Y617775D03*
X61438Y650475D03*
X251938Y617775D03*
X251938Y650475D03*
X442438Y617775D03*
X442438Y650475D03*
X632938Y617775D03*
X632938Y650475D03*
X61438Y422275D03*
X61438Y454975D03*
X251938Y422275D03*
X251938Y454975D03*
X442438Y422275D03*
X442438Y454975D03*
X632938Y422275D03*
X632938Y454975D03*
X61438Y236775D03*
X61438Y269475D03*
X251938Y236775D03*
X251938Y269475D03*
X442438Y236775D03*
X442438Y269475D03*
X632938Y236775D03*
X632938Y269475D03*
X61438Y46275D03*
X61438Y78975D03*
X251938Y46275D03*
X251938Y78975D03*
X442438Y46275D03*
X442438Y78975D03*
X632938Y46275D03*
X632938Y78975D03*
D12*
X400370Y1028855D02*
X354650Y1028855D01*
X400370Y1028855D02*
X400370Y983135D01*
X354650Y983135D01*
X354650Y1028855D01*
X354650Y987961D02*
X400370Y987961D01*
X400370Y992787D02*
X354650Y992787D01*
X354650Y997613D02*
X400370Y997613D01*
X400370Y1002439D02*
X354650Y1002439D01*
X354650Y1007265D02*
X400370Y1007265D01*
X400370Y1012091D02*
X354650Y1012091D01*
X354650Y1016917D02*
X400370Y1016917D01*
X400370Y1021743D02*
X354650Y1021743D01*
X354650Y1026569D02*
X400370Y1026569D01*
D13*
X406385Y1029870D02*
X415635Y1029870D01*
X406385Y1029870D02*
X406385Y1032120D01*
X415635Y1032120D01*
X415635Y1029870D01*
X415635Y1030582D02*
X406385Y1030582D01*
X406385Y1031294D02*
X415635Y1031294D01*
X415635Y1032006D02*
X406385Y1032006D01*
X406385Y1024870D02*
X415635Y1024870D01*
X406385Y1024870D02*
X406385Y1027120D01*
X415635Y1027120D01*
X415635Y1024870D01*
X415635Y1025582D02*
X406385Y1025582D01*
X406385Y1026294D02*
X415635Y1026294D01*
X415635Y1027006D02*
X406385Y1027006D01*
X406385Y1019870D02*
X415635Y1019870D01*
X406385Y1019870D02*
X406385Y1022120D01*
X415635Y1022120D01*
X415635Y1019870D01*
X415635Y1020582D02*
X406385Y1020582D01*
X406385Y1021294D02*
X415635Y1021294D01*
X415635Y1022006D02*
X406385Y1022006D01*
X406385Y1014870D02*
X415635Y1014870D01*
X406385Y1014870D02*
X406385Y1017120D01*
X415635Y1017120D01*
X415635Y1014870D01*
X415635Y1015582D02*
X406385Y1015582D01*
X406385Y1016294D02*
X415635Y1016294D01*
X415635Y1017006D02*
X406385Y1017006D01*
X406385Y1009870D02*
X415635Y1009870D01*
X406385Y1009870D02*
X406385Y1012120D01*
X415635Y1012120D01*
X415635Y1009870D01*
X415635Y1010582D02*
X406385Y1010582D01*
X406385Y1011294D02*
X415635Y1011294D01*
X415635Y1012006D02*
X406385Y1012006D01*
X406385Y1004870D02*
X415635Y1004870D01*
X406385Y1004870D02*
X406385Y1007120D01*
X415635Y1007120D01*
X415635Y1004870D01*
X415635Y1005582D02*
X406385Y1005582D01*
X406385Y1006294D02*
X415635Y1006294D01*
X415635Y1007006D02*
X406385Y1007006D01*
X406385Y999870D02*
X415635Y999870D01*
X406385Y999870D02*
X406385Y1002120D01*
X415635Y1002120D01*
X415635Y999870D01*
X415635Y1000582D02*
X406385Y1000582D01*
X406385Y1001294D02*
X415635Y1001294D01*
X415635Y1002006D02*
X406385Y1002006D01*
X406385Y994870D02*
X415635Y994870D01*
X406385Y994870D02*
X406385Y997120D01*
X415635Y997120D01*
X415635Y994870D01*
X415635Y995582D02*
X406385Y995582D01*
X406385Y996294D02*
X415635Y996294D01*
X415635Y997006D02*
X406385Y997006D01*
X406385Y989870D02*
X415635Y989870D01*
X406385Y989870D02*
X406385Y992120D01*
X415635Y992120D01*
X415635Y989870D01*
X415635Y990582D02*
X406385Y990582D01*
X406385Y991294D02*
X415635Y991294D01*
X415635Y992006D02*
X406385Y992006D01*
X406385Y984870D02*
X415635Y984870D01*
X406385Y984870D02*
X406385Y987120D01*
X415635Y987120D01*
X415635Y984870D01*
X415635Y985582D02*
X406385Y985582D01*
X406385Y986294D02*
X415635Y986294D01*
X415635Y987006D02*
X406385Y987006D01*
X406385Y979870D02*
X415635Y979870D01*
X406385Y979870D02*
X406385Y982120D01*
X415635Y982120D01*
X415635Y979870D01*
X415635Y980582D02*
X406385Y980582D01*
X406385Y981294D02*
X415635Y981294D01*
X415635Y982006D02*
X406385Y982006D01*
X401385Y977120D02*
X401385Y967870D01*
X401385Y977120D02*
X403635Y977120D01*
X403635Y967870D01*
X401385Y967870D01*
X401385Y968582D02*
X403635Y968582D01*
X403635Y969294D02*
X401385Y969294D01*
X401385Y970006D02*
X403635Y970006D01*
X403635Y970718D02*
X401385Y970718D01*
X401385Y971430D02*
X403635Y971430D01*
X403635Y972142D02*
X401385Y972142D01*
X401385Y972854D02*
X403635Y972854D01*
X403635Y973566D02*
X401385Y973566D01*
X401385Y974278D02*
X403635Y974278D01*
X403635Y974990D02*
X401385Y974990D01*
X401385Y975702D02*
X403635Y975702D01*
X403635Y976414D02*
X401385Y976414D01*
X396385Y977120D02*
X396385Y967870D01*
X396385Y977120D02*
X398635Y977120D01*
X398635Y967870D01*
X396385Y967870D01*
X396385Y968582D02*
X398635Y968582D01*
X398635Y969294D02*
X396385Y969294D01*
X396385Y970006D02*
X398635Y970006D01*
X398635Y970718D02*
X396385Y970718D01*
X396385Y971430D02*
X398635Y971430D01*
X398635Y972142D02*
X396385Y972142D01*
X396385Y972854D02*
X398635Y972854D01*
X398635Y973566D02*
X396385Y973566D01*
X396385Y974278D02*
X398635Y974278D01*
X398635Y974990D02*
X396385Y974990D01*
X396385Y975702D02*
X398635Y975702D01*
X398635Y976414D02*
X396385Y976414D01*
X391385Y977120D02*
X391385Y967870D01*
X391385Y977120D02*
X393635Y977120D01*
X393635Y967870D01*
X391385Y967870D01*
X391385Y968582D02*
X393635Y968582D01*
X393635Y969294D02*
X391385Y969294D01*
X391385Y970006D02*
X393635Y970006D01*
X393635Y970718D02*
X391385Y970718D01*
X391385Y971430D02*
X393635Y971430D01*
X393635Y972142D02*
X391385Y972142D01*
X391385Y972854D02*
X393635Y972854D01*
X393635Y973566D02*
X391385Y973566D01*
X391385Y974278D02*
X393635Y974278D01*
X393635Y974990D02*
X391385Y974990D01*
X391385Y975702D02*
X393635Y975702D01*
X393635Y976414D02*
X391385Y976414D01*
X386385Y977120D02*
X386385Y967870D01*
X386385Y977120D02*
X388635Y977120D01*
X388635Y967870D01*
X386385Y967870D01*
X386385Y968582D02*
X388635Y968582D01*
X388635Y969294D02*
X386385Y969294D01*
X386385Y970006D02*
X388635Y970006D01*
X388635Y970718D02*
X386385Y970718D01*
X386385Y971430D02*
X388635Y971430D01*
X388635Y972142D02*
X386385Y972142D01*
X386385Y972854D02*
X388635Y972854D01*
X388635Y973566D02*
X386385Y973566D01*
X386385Y974278D02*
X388635Y974278D01*
X388635Y974990D02*
X386385Y974990D01*
X386385Y975702D02*
X388635Y975702D01*
X388635Y976414D02*
X386385Y976414D01*
X381385Y977120D02*
X381385Y967870D01*
X381385Y977120D02*
X383635Y977120D01*
X383635Y967870D01*
X381385Y967870D01*
X381385Y968582D02*
X383635Y968582D01*
X383635Y969294D02*
X381385Y969294D01*
X381385Y970006D02*
X383635Y970006D01*
X383635Y970718D02*
X381385Y970718D01*
X381385Y971430D02*
X383635Y971430D01*
X383635Y972142D02*
X381385Y972142D01*
X381385Y972854D02*
X383635Y972854D01*
X383635Y973566D02*
X381385Y973566D01*
X381385Y974278D02*
X383635Y974278D01*
X383635Y974990D02*
X381385Y974990D01*
X381385Y975702D02*
X383635Y975702D01*
X383635Y976414D02*
X381385Y976414D01*
X376385Y977120D02*
X376385Y967870D01*
X376385Y977120D02*
X378635Y977120D01*
X378635Y967870D01*
X376385Y967870D01*
X376385Y968582D02*
X378635Y968582D01*
X378635Y969294D02*
X376385Y969294D01*
X376385Y970006D02*
X378635Y970006D01*
X378635Y970718D02*
X376385Y970718D01*
X376385Y971430D02*
X378635Y971430D01*
X378635Y972142D02*
X376385Y972142D01*
X376385Y972854D02*
X378635Y972854D01*
X378635Y973566D02*
X376385Y973566D01*
X376385Y974278D02*
X378635Y974278D01*
X378635Y974990D02*
X376385Y974990D01*
X376385Y975702D02*
X378635Y975702D01*
X378635Y976414D02*
X376385Y976414D01*
X371385Y977120D02*
X371385Y967870D01*
X371385Y977120D02*
X373635Y977120D01*
X373635Y967870D01*
X371385Y967870D01*
X371385Y968582D02*
X373635Y968582D01*
X373635Y969294D02*
X371385Y969294D01*
X371385Y970006D02*
X373635Y970006D01*
X373635Y970718D02*
X371385Y970718D01*
X371385Y971430D02*
X373635Y971430D01*
X373635Y972142D02*
X371385Y972142D01*
X371385Y972854D02*
X373635Y972854D01*
X373635Y973566D02*
X371385Y973566D01*
X371385Y974278D02*
X373635Y974278D01*
X373635Y974990D02*
X371385Y974990D01*
X371385Y975702D02*
X373635Y975702D01*
X373635Y976414D02*
X371385Y976414D01*
X366385Y977120D02*
X366385Y967870D01*
X366385Y977120D02*
X368635Y977120D01*
X368635Y967870D01*
X366385Y967870D01*
X366385Y968582D02*
X368635Y968582D01*
X368635Y969294D02*
X366385Y969294D01*
X366385Y970006D02*
X368635Y970006D01*
X368635Y970718D02*
X366385Y970718D01*
X366385Y971430D02*
X368635Y971430D01*
X368635Y972142D02*
X366385Y972142D01*
X366385Y972854D02*
X368635Y972854D01*
X368635Y973566D02*
X366385Y973566D01*
X366385Y974278D02*
X368635Y974278D01*
X368635Y974990D02*
X366385Y974990D01*
X366385Y975702D02*
X368635Y975702D01*
X368635Y976414D02*
X366385Y976414D01*
X361385Y977120D02*
X361385Y967870D01*
X361385Y977120D02*
X363635Y977120D01*
X363635Y967870D01*
X361385Y967870D01*
X361385Y968582D02*
X363635Y968582D01*
X363635Y969294D02*
X361385Y969294D01*
X361385Y970006D02*
X363635Y970006D01*
X363635Y970718D02*
X361385Y970718D01*
X361385Y971430D02*
X363635Y971430D01*
X363635Y972142D02*
X361385Y972142D01*
X361385Y972854D02*
X363635Y972854D01*
X363635Y973566D02*
X361385Y973566D01*
X361385Y974278D02*
X363635Y974278D01*
X363635Y974990D02*
X361385Y974990D01*
X361385Y975702D02*
X363635Y975702D01*
X363635Y976414D02*
X361385Y976414D01*
X356385Y977120D02*
X356385Y967870D01*
X356385Y977120D02*
X358635Y977120D01*
X358635Y967870D01*
X356385Y967870D01*
X356385Y968582D02*
X358635Y968582D01*
X358635Y969294D02*
X356385Y969294D01*
X356385Y970006D02*
X358635Y970006D01*
X358635Y970718D02*
X356385Y970718D01*
X356385Y971430D02*
X358635Y971430D01*
X358635Y972142D02*
X356385Y972142D01*
X356385Y972854D02*
X358635Y972854D01*
X358635Y973566D02*
X356385Y973566D01*
X356385Y974278D02*
X358635Y974278D01*
X358635Y974990D02*
X356385Y974990D01*
X356385Y975702D02*
X358635Y975702D01*
X358635Y976414D02*
X356385Y976414D01*
X351385Y977120D02*
X351385Y967870D01*
X351385Y977120D02*
X353635Y977120D01*
X353635Y967870D01*
X351385Y967870D01*
X351385Y968582D02*
X353635Y968582D01*
X353635Y969294D02*
X351385Y969294D01*
X351385Y970006D02*
X353635Y970006D01*
X353635Y970718D02*
X351385Y970718D01*
X351385Y971430D02*
X353635Y971430D01*
X353635Y972142D02*
X351385Y972142D01*
X351385Y972854D02*
X353635Y972854D01*
X353635Y973566D02*
X351385Y973566D01*
X351385Y974278D02*
X353635Y974278D01*
X353635Y974990D02*
X351385Y974990D01*
X351385Y975702D02*
X353635Y975702D01*
X353635Y976414D02*
X351385Y976414D01*
X348635Y982120D02*
X339385Y982120D01*
X348635Y982120D02*
X348635Y979870D01*
X339385Y979870D01*
X339385Y982120D01*
X339385Y980582D02*
X348635Y980582D01*
X348635Y981294D02*
X339385Y981294D01*
X339385Y982006D02*
X348635Y982006D01*
X348635Y987120D02*
X339385Y987120D01*
X348635Y987120D02*
X348635Y984870D01*
X339385Y984870D01*
X339385Y987120D01*
X339385Y985582D02*
X348635Y985582D01*
X348635Y986294D02*
X339385Y986294D01*
X339385Y987006D02*
X348635Y987006D01*
X348635Y992120D02*
X339385Y992120D01*
X348635Y992120D02*
X348635Y989870D01*
X339385Y989870D01*
X339385Y992120D01*
X339385Y990582D02*
X348635Y990582D01*
X348635Y991294D02*
X339385Y991294D01*
X339385Y992006D02*
X348635Y992006D01*
X348635Y997120D02*
X339385Y997120D01*
X348635Y997120D02*
X348635Y994870D01*
X339385Y994870D01*
X339385Y997120D01*
X339385Y995582D02*
X348635Y995582D01*
X348635Y996294D02*
X339385Y996294D01*
X339385Y997006D02*
X348635Y997006D01*
X348635Y1002120D02*
X339385Y1002120D01*
X348635Y1002120D02*
X348635Y999870D01*
X339385Y999870D01*
X339385Y1002120D01*
X339385Y1000582D02*
X348635Y1000582D01*
X348635Y1001294D02*
X339385Y1001294D01*
X339385Y1002006D02*
X348635Y1002006D01*
X348635Y1007120D02*
X339385Y1007120D01*
X348635Y1007120D02*
X348635Y1004870D01*
X339385Y1004870D01*
X339385Y1007120D01*
X339385Y1005582D02*
X348635Y1005582D01*
X348635Y1006294D02*
X339385Y1006294D01*
X339385Y1007006D02*
X348635Y1007006D01*
X348635Y1012120D02*
X339385Y1012120D01*
X348635Y1012120D02*
X348635Y1009870D01*
X339385Y1009870D01*
X339385Y1012120D01*
X339385Y1010582D02*
X348635Y1010582D01*
X348635Y1011294D02*
X339385Y1011294D01*
X339385Y1012006D02*
X348635Y1012006D01*
X348635Y1017120D02*
X339385Y1017120D01*
X348635Y1017120D02*
X348635Y1014870D01*
X339385Y1014870D01*
X339385Y1017120D01*
X339385Y1015582D02*
X348635Y1015582D01*
X348635Y1016294D02*
X339385Y1016294D01*
X339385Y1017006D02*
X348635Y1017006D01*
X348635Y1022120D02*
X339385Y1022120D01*
X348635Y1022120D02*
X348635Y1019870D01*
X339385Y1019870D01*
X339385Y1022120D01*
X339385Y1020582D02*
X348635Y1020582D01*
X348635Y1021294D02*
X339385Y1021294D01*
X339385Y1022006D02*
X348635Y1022006D01*
X348635Y1027120D02*
X339385Y1027120D01*
X348635Y1027120D02*
X348635Y1024870D01*
X339385Y1024870D01*
X339385Y1027120D01*
X339385Y1025582D02*
X348635Y1025582D01*
X348635Y1026294D02*
X339385Y1026294D01*
X339385Y1027006D02*
X348635Y1027006D01*
X348635Y1032120D02*
X339385Y1032120D01*
X348635Y1032120D02*
X348635Y1029870D01*
X339385Y1029870D01*
X339385Y1032120D01*
X339385Y1030582D02*
X348635Y1030582D01*
X348635Y1031294D02*
X339385Y1031294D01*
X339385Y1032006D02*
X348635Y1032006D01*
X353635Y1034870D02*
X353635Y1044120D01*
X353635Y1034870D02*
X351385Y1034870D01*
X351385Y1044120D01*
X353635Y1044120D01*
X353635Y1035582D02*
X351385Y1035582D01*
X351385Y1036294D02*
X353635Y1036294D01*
X353635Y1037006D02*
X351385Y1037006D01*
X351385Y1037718D02*
X353635Y1037718D01*
X353635Y1038430D02*
X351385Y1038430D01*
X351385Y1039142D02*
X353635Y1039142D01*
X353635Y1039854D02*
X351385Y1039854D01*
X351385Y1040566D02*
X353635Y1040566D01*
X353635Y1041278D02*
X351385Y1041278D01*
X351385Y1041990D02*
X353635Y1041990D01*
X353635Y1042702D02*
X351385Y1042702D01*
X351385Y1043414D02*
X353635Y1043414D01*
X358635Y1044120D02*
X358635Y1034870D01*
X356385Y1034870D01*
X356385Y1044120D01*
X358635Y1044120D01*
X358635Y1035582D02*
X356385Y1035582D01*
X356385Y1036294D02*
X358635Y1036294D01*
X358635Y1037006D02*
X356385Y1037006D01*
X356385Y1037718D02*
X358635Y1037718D01*
X358635Y1038430D02*
X356385Y1038430D01*
X356385Y1039142D02*
X358635Y1039142D01*
X358635Y1039854D02*
X356385Y1039854D01*
X356385Y1040566D02*
X358635Y1040566D01*
X358635Y1041278D02*
X356385Y1041278D01*
X356385Y1041990D02*
X358635Y1041990D01*
X358635Y1042702D02*
X356385Y1042702D01*
X356385Y1043414D02*
X358635Y1043414D01*
X363635Y1044120D02*
X363635Y1034870D01*
X361385Y1034870D01*
X361385Y1044120D01*
X363635Y1044120D01*
X363635Y1035582D02*
X361385Y1035582D01*
X361385Y1036294D02*
X363635Y1036294D01*
X363635Y1037006D02*
X361385Y1037006D01*
X361385Y1037718D02*
X363635Y1037718D01*
X363635Y1038430D02*
X361385Y1038430D01*
X361385Y1039142D02*
X363635Y1039142D01*
X363635Y1039854D02*
X361385Y1039854D01*
X361385Y1040566D02*
X363635Y1040566D01*
X363635Y1041278D02*
X361385Y1041278D01*
X361385Y1041990D02*
X363635Y1041990D01*
X363635Y1042702D02*
X361385Y1042702D01*
X361385Y1043414D02*
X363635Y1043414D01*
X368635Y1044120D02*
X368635Y1034870D01*
X366385Y1034870D01*
X366385Y1044120D01*
X368635Y1044120D01*
X368635Y1035582D02*
X366385Y1035582D01*
X366385Y1036294D02*
X368635Y1036294D01*
X368635Y1037006D02*
X366385Y1037006D01*
X366385Y1037718D02*
X368635Y1037718D01*
X368635Y1038430D02*
X366385Y1038430D01*
X366385Y1039142D02*
X368635Y1039142D01*
X368635Y1039854D02*
X366385Y1039854D01*
X366385Y1040566D02*
X368635Y1040566D01*
X368635Y1041278D02*
X366385Y1041278D01*
X366385Y1041990D02*
X368635Y1041990D01*
X368635Y1042702D02*
X366385Y1042702D01*
X366385Y1043414D02*
X368635Y1043414D01*
X373635Y1044120D02*
X373635Y1034870D01*
X371385Y1034870D01*
X371385Y1044120D01*
X373635Y1044120D01*
X373635Y1035582D02*
X371385Y1035582D01*
X371385Y1036294D02*
X373635Y1036294D01*
X373635Y1037006D02*
X371385Y1037006D01*
X371385Y1037718D02*
X373635Y1037718D01*
X373635Y1038430D02*
X371385Y1038430D01*
X371385Y1039142D02*
X373635Y1039142D01*
X373635Y1039854D02*
X371385Y1039854D01*
X371385Y1040566D02*
X373635Y1040566D01*
X373635Y1041278D02*
X371385Y1041278D01*
X371385Y1041990D02*
X373635Y1041990D01*
X373635Y1042702D02*
X371385Y1042702D01*
X371385Y1043414D02*
X373635Y1043414D01*
X378635Y1044120D02*
X378635Y1034870D01*
X376385Y1034870D01*
X376385Y1044120D01*
X378635Y1044120D01*
X378635Y1035582D02*
X376385Y1035582D01*
X376385Y1036294D02*
X378635Y1036294D01*
X378635Y1037006D02*
X376385Y1037006D01*
X376385Y1037718D02*
X378635Y1037718D01*
X378635Y1038430D02*
X376385Y1038430D01*
X376385Y1039142D02*
X378635Y1039142D01*
X378635Y1039854D02*
X376385Y1039854D01*
X376385Y1040566D02*
X378635Y1040566D01*
X378635Y1041278D02*
X376385Y1041278D01*
X376385Y1041990D02*
X378635Y1041990D01*
X378635Y1042702D02*
X376385Y1042702D01*
X376385Y1043414D02*
X378635Y1043414D01*
X383635Y1044120D02*
X383635Y1034870D01*
X381385Y1034870D01*
X381385Y1044120D01*
X383635Y1044120D01*
X383635Y1035582D02*
X381385Y1035582D01*
X381385Y1036294D02*
X383635Y1036294D01*
X383635Y1037006D02*
X381385Y1037006D01*
X381385Y1037718D02*
X383635Y1037718D01*
X383635Y1038430D02*
X381385Y1038430D01*
X381385Y1039142D02*
X383635Y1039142D01*
X383635Y1039854D02*
X381385Y1039854D01*
X381385Y1040566D02*
X383635Y1040566D01*
X383635Y1041278D02*
X381385Y1041278D01*
X381385Y1041990D02*
X383635Y1041990D01*
X383635Y1042702D02*
X381385Y1042702D01*
X381385Y1043414D02*
X383635Y1043414D01*
X388635Y1044120D02*
X388635Y1034870D01*
X386385Y1034870D01*
X386385Y1044120D01*
X388635Y1044120D01*
X388635Y1035582D02*
X386385Y1035582D01*
X386385Y1036294D02*
X388635Y1036294D01*
X388635Y1037006D02*
X386385Y1037006D01*
X386385Y1037718D02*
X388635Y1037718D01*
X388635Y1038430D02*
X386385Y1038430D01*
X386385Y1039142D02*
X388635Y1039142D01*
X388635Y1039854D02*
X386385Y1039854D01*
X386385Y1040566D02*
X388635Y1040566D01*
X388635Y1041278D02*
X386385Y1041278D01*
X386385Y1041990D02*
X388635Y1041990D01*
X388635Y1042702D02*
X386385Y1042702D01*
X386385Y1043414D02*
X388635Y1043414D01*
X393635Y1044120D02*
X393635Y1034870D01*
X391385Y1034870D01*
X391385Y1044120D01*
X393635Y1044120D01*
X393635Y1035582D02*
X391385Y1035582D01*
X391385Y1036294D02*
X393635Y1036294D01*
X393635Y1037006D02*
X391385Y1037006D01*
X391385Y1037718D02*
X393635Y1037718D01*
X393635Y1038430D02*
X391385Y1038430D01*
X391385Y1039142D02*
X393635Y1039142D01*
X393635Y1039854D02*
X391385Y1039854D01*
X391385Y1040566D02*
X393635Y1040566D01*
X393635Y1041278D02*
X391385Y1041278D01*
X391385Y1041990D02*
X393635Y1041990D01*
X393635Y1042702D02*
X391385Y1042702D01*
X391385Y1043414D02*
X393635Y1043414D01*
X398635Y1044120D02*
X398635Y1034870D01*
X396385Y1034870D01*
X396385Y1044120D01*
X398635Y1044120D01*
X398635Y1035582D02*
X396385Y1035582D01*
X396385Y1036294D02*
X398635Y1036294D01*
X398635Y1037006D02*
X396385Y1037006D01*
X396385Y1037718D02*
X398635Y1037718D01*
X398635Y1038430D02*
X396385Y1038430D01*
X396385Y1039142D02*
X398635Y1039142D01*
X398635Y1039854D02*
X396385Y1039854D01*
X396385Y1040566D02*
X398635Y1040566D01*
X398635Y1041278D02*
X396385Y1041278D01*
X396385Y1041990D02*
X398635Y1041990D01*
X398635Y1042702D02*
X396385Y1042702D01*
X396385Y1043414D02*
X398635Y1043414D01*
X403635Y1044120D02*
X403635Y1034870D01*
X401385Y1034870D01*
X401385Y1044120D01*
X403635Y1044120D01*
X403635Y1035582D02*
X401385Y1035582D01*
X401385Y1036294D02*
X403635Y1036294D01*
X403635Y1037006D02*
X401385Y1037006D01*
X401385Y1037718D02*
X403635Y1037718D01*
X403635Y1038430D02*
X401385Y1038430D01*
X401385Y1039142D02*
X403635Y1039142D01*
X403635Y1039854D02*
X401385Y1039854D01*
X401385Y1040566D02*
X403635Y1040566D01*
X403635Y1041278D02*
X401385Y1041278D01*
X401385Y1041990D02*
X403635Y1041990D01*
X403635Y1042702D02*
X401385Y1042702D01*
X401385Y1043414D02*
X403635Y1043414D01*
D14*
X74415Y989915D03*
X74415Y997915D03*
D15*
X74415Y1019915D03*
X74415Y1014915D03*
X74415Y1009915D03*
X74415Y1004915D03*
X74415Y1024915D03*
X74415Y1029915D03*
X74415Y1034915D03*
X74415Y1039915D03*
D14*
X74415Y1046915D03*
X74415Y1054915D03*
D16*
X71055Y979215D02*
X59475Y979215D01*
X59475Y1065615D02*
X71055Y1065615D01*
X29255Y979215D02*
X17675Y979215D01*
X17675Y1065615D02*
X29255Y1065615D01*
D17*
X97573Y1060604D03*
X97573Y1043104D03*
D18*
X281250Y990000D03*
X298750Y990000D03*
D17*
X140000Y971250D03*
X140000Y988750D03*
X490000Y1026250D03*
X490000Y1043750D03*
X540000Y1026250D03*
X540000Y1043750D03*
X590000Y1026250D03*
X590000Y1043750D03*
X640000Y1026250D03*
X640000Y1043750D03*
X610000Y1008750D03*
X610000Y991250D03*
X430000Y1053750D03*
X430000Y1036250D03*
D18*
X201250Y1060000D03*
X218750Y1060000D03*
D19*
X95750Y958500D03*
X114250Y958500D03*
X114250Y981500D03*
X95750Y981500D03*
D17*
X685000Y1026250D03*
X685000Y1043750D03*
X490000Y998750D03*
X490000Y981250D03*
D20*
X171000Y951000D03*
X171000Y939000D03*
X139000Y939000D03*
X139000Y951000D03*
D17*
X655000Y998750D03*
X655000Y981250D03*
X690000Y998750D03*
X690000Y981250D03*
D21*
X202851Y990000D03*
D22*
X187312Y990000D03*
D23*
X267500Y1035500D03*
D24*
X250500Y1035500D03*
X269500Y1054500D03*
X250500Y1054500D03*
D25*
X174000Y1000000D03*
X156000Y1000000D03*
D26*
X59408Y880392D02*
X59408Y843729D01*
X60559Y842578D01*
X59408Y880392D02*
X57150Y882650D01*
X345158Y843729D02*
X346309Y842578D01*
X345158Y843729D02*
X345158Y880392D01*
X342900Y882650D01*
X630908Y843729D02*
X632059Y842578D01*
X630908Y843729D02*
X630908Y880392D01*
X628650Y882650D01*
X61438Y650475D02*
X59408Y652505D01*
X59408Y689892D01*
X57150Y692150D01*
X249908Y652505D02*
X251938Y650475D01*
X249908Y652505D02*
X249908Y689892D01*
X247650Y692150D01*
X440408Y689892D02*
X440408Y652505D01*
X442438Y650475D01*
X440408Y689892D02*
X438150Y692150D01*
X630908Y689892D02*
X630908Y652505D01*
X632938Y650475D01*
X630908Y689892D02*
X628650Y692150D01*
X61438Y454975D02*
X59408Y457005D01*
X59408Y499392D01*
X57150Y501650D01*
X249908Y499392D02*
X249908Y457005D01*
X251938Y454975D01*
X249908Y499392D02*
X247650Y501650D01*
X440408Y499392D02*
X440408Y457005D01*
X442438Y454975D01*
X440408Y499392D02*
X438150Y501650D01*
X630908Y499392D02*
X630908Y457005D01*
X632938Y454975D01*
X630908Y499392D02*
X628650Y501650D01*
X61438Y269475D02*
X59408Y271505D01*
X59408Y308892D01*
X57150Y311150D01*
X249908Y308892D02*
X249908Y271505D01*
X251938Y269475D01*
X249908Y308892D02*
X247650Y311150D01*
X440408Y308892D02*
X440408Y271505D01*
X442438Y269475D01*
X440408Y308892D02*
X438150Y311150D01*
X630908Y271505D02*
X632938Y269475D01*
X630908Y271505D02*
X630908Y308892D01*
X628650Y311150D01*
X61438Y78975D02*
X59408Y81005D01*
X59408Y118392D01*
X57150Y120650D01*
X249908Y118392D02*
X249908Y81005D01*
X251938Y78975D01*
X249908Y118392D02*
X247650Y120650D01*
X440408Y81005D02*
X442438Y78975D01*
X440408Y81005D02*
X440408Y118392D01*
X438150Y120650D01*
X630908Y81005D02*
X632938Y78975D01*
X630908Y81005D02*
X630908Y118392D01*
X628650Y120650D01*
X270737Y808342D02*
X62095Y808342D01*
X60559Y809878D01*
X344774Y808342D02*
X346309Y809878D01*
X347845Y808342D01*
X344774Y808342D02*
X253263Y808342D01*
X347845Y808342D02*
X508737Y808342D01*
X630524Y808342D02*
X632059Y809878D01*
X630524Y808342D02*
X491263Y808342D01*
X251938Y617775D02*
X61438Y617775D01*
X251938Y617775D02*
X442438Y617775D01*
X632938Y617775D01*
X251938Y422275D02*
X61438Y422275D01*
X251938Y422275D02*
X442438Y422275D01*
X632938Y422275D01*
X251938Y236775D02*
X61438Y236775D01*
X251938Y236775D02*
X442438Y236775D01*
X632938Y236775D01*
X251938Y46275D02*
X61438Y46275D01*
X251938Y46275D02*
X442438Y46275D01*
X632938Y46275D01*
X461623Y1025778D02*
X420000Y1025778D01*
X413177Y1025778D01*
X412960Y1025995D01*
X411010Y1025995D01*
X479595Y1043750D02*
X490000Y1043750D01*
X479595Y1043750D02*
X465422Y1029578D01*
X461623Y1025778D01*
X490000Y1043750D02*
X540000Y1043750D01*
X590000Y1043750D01*
X640000Y1043750D01*
X632314Y1032447D02*
X632314Y1020053D01*
X633653Y1018714D01*
X640000Y1040133D02*
X640000Y1043750D01*
X635036Y1018714D02*
X633653Y1018714D01*
X635036Y1018714D02*
X655000Y998750D01*
X632314Y1032447D02*
X640000Y1040133D01*
X186062Y988750D02*
X140000Y988750D01*
X186062Y988750D02*
X187312Y990000D01*
X197404Y982863D02*
X208298Y982863D01*
X260214Y1039447D02*
X261553Y1040786D01*
X338283Y987209D02*
X342796Y987209D01*
X344010Y985995D01*
X191517Y988750D02*
X140000Y988750D01*
X191517Y988750D02*
X197404Y982863D01*
X260214Y1034779D02*
X260214Y1039447D01*
X260214Y1034779D02*
X208298Y982863D01*
X261553Y1040786D02*
X284706Y1040786D01*
X325246Y1000246D01*
X338283Y987209D01*
X352510Y1039495D02*
X353724Y1040709D01*
X353724Y1045222D01*
X402566Y1039495D02*
X402566Y1051485D01*
X402510Y1039495D02*
X402566Y1039495D01*
X359986Y1051485D02*
X353724Y1045222D01*
X359986Y1051485D02*
X402566Y1051485D01*
X418296Y1027483D02*
X420000Y1025778D01*
X418296Y1027483D02*
X418296Y1033222D01*
X412023Y1039495D02*
X402510Y1039495D01*
X412023Y1039495D02*
X418296Y1033222D01*
D27*
X425000Y995000D03*
X393599Y962175D03*
X330000Y1010000D03*
X410202Y1046782D03*
D26*
X409797Y1046782D02*
X402510Y1039495D01*
X409797Y1046782D02*
X410202Y1046782D01*
X411010Y1000995D02*
X419005Y1000995D01*
X425000Y995000D01*
X393599Y971406D02*
X392510Y972495D01*
X393599Y971406D02*
X393599Y962175D01*
X330000Y1005000D02*
X330000Y1010000D01*
X330000Y1005000D02*
X325246Y1000246D01*
D27*
X471446Y1026755D03*
D26*
X468245Y1026755D02*
X465422Y1029578D01*
X468245Y1026755D02*
X471446Y1026755D01*
X482314Y1032447D02*
X483653Y1033786D01*
X422013Y1005884D02*
X421902Y1005995D01*
X482314Y1028733D02*
X482314Y1032447D01*
X482314Y1028733D02*
X459466Y1005884D01*
X422013Y1005884D01*
X483653Y1033786D02*
X567464Y1033786D01*
X610000Y991250D01*
X421902Y1005995D02*
X411010Y1005995D01*
D27*
X450000Y1035000D03*
X450000Y1015000D03*
D26*
X448750Y1036250D02*
X430000Y1036250D01*
X448750Y1036250D02*
X450000Y1035000D01*
X416737Y1019781D02*
X412224Y1019781D01*
X411010Y1020995D01*
X421518Y1015000D02*
X450000Y1015000D01*
X421518Y1015000D02*
X416737Y1019781D01*
X251689Y1060000D02*
X218750Y1060000D01*
X251689Y1060000D02*
X254737Y1063048D01*
X436952Y1063048D01*
X460000Y1040000D01*
D27*
X460000Y1035000D03*
X460000Y1015000D03*
D26*
X460000Y1035000D02*
X460000Y1040000D01*
X412005Y1015000D02*
X411010Y1015995D01*
X412005Y1015000D02*
X417208Y1015000D01*
X458582Y1015000D02*
X460000Y1015000D01*
X458582Y1015000D02*
X452514Y1008932D01*
X423276Y1008932D01*
X417208Y1015000D01*
X106714Y970947D02*
X106714Y951053D01*
X113053Y944714D01*
X115447Y944714D01*
X163964Y935303D02*
X165303Y933964D01*
X251296Y965492D02*
X272704Y965492D01*
X273196Y965000D01*
X375000Y965000D01*
X114250Y978483D02*
X114250Y981500D01*
X114250Y978483D02*
X106714Y970947D01*
X126769Y956036D02*
X115447Y944714D01*
X165303Y933964D02*
X219768Y933964D01*
X251296Y965492D01*
X144697Y956036D02*
X126769Y956036D01*
X144697Y956036D02*
X163964Y936769D01*
X163964Y935303D01*
X375000Y965000D02*
X377510Y967510D01*
X377510Y972495D01*
X696347Y991214D02*
X697686Y992553D01*
X104553Y934714D02*
X88214Y951053D01*
X88214Y970947D01*
X89553Y972286D01*
X101947Y972286D01*
X143386Y910760D02*
X329598Y910760D01*
X371000Y952161D01*
X465222Y952161D01*
X483727Y970666D01*
X119432Y934714D02*
X104553Y934714D01*
X119432Y934714D02*
X143386Y910760D01*
X658299Y970666D02*
X665734Y978101D01*
X658299Y970666D02*
X483727Y970666D01*
X697686Y992553D02*
X697686Y1027447D01*
X685000Y1040133D02*
X685000Y1043750D01*
X685000Y1040133D02*
X697686Y1027447D01*
X696347Y991214D02*
X677633Y991214D01*
X665734Y979316D01*
X665734Y978101D01*
X103286Y970947D02*
X101947Y972286D01*
X103286Y970947D02*
X106714Y970947D01*
X463959Y955209D02*
X490000Y981250D01*
X463959Y955209D02*
X384791Y955209D01*
X95750Y954384D02*
X95750Y958500D01*
X328336Y913808D02*
X380000Y965472D01*
X380000Y960000D02*
X384791Y955209D01*
X380000Y960000D02*
X380000Y965472D01*
X381296Y966768D01*
X381296Y971281D01*
X382510Y972495D01*
X95750Y958500D02*
X95750Y947828D01*
X105816Y937762D02*
X120695Y937762D01*
X144649Y913808D01*
X105816Y937762D02*
X95750Y947828D01*
X144649Y913808D02*
X328336Y913808D01*
X139000Y939000D02*
X139000Y951000D01*
X410209Y965209D02*
X459737Y965209D01*
X628883Y981250D02*
X655000Y981250D01*
X398724Y971281D02*
X398724Y970000D01*
X398724Y971281D02*
X397510Y972495D01*
X621347Y973714D02*
X628883Y981250D01*
X621347Y973714D02*
X511419Y973714D01*
X496347Y988786D01*
X483314Y988786D01*
X459737Y965209D01*
D27*
X420000Y975000D03*
X125000Y945000D03*
D26*
X133000Y945000D02*
X139000Y951000D01*
X133000Y945000D02*
X125000Y945000D01*
X398724Y966768D02*
X400283Y965209D01*
X398724Y966768D02*
X398724Y970000D01*
X410209Y965209D02*
X420000Y975000D01*
X410209Y965209D02*
X400283Y965209D01*
X344010Y1030995D02*
X348724Y1035709D01*
X348724Y1045222D01*
X358331Y1054829D01*
X411689Y1054829D01*
X421518Y1045000D01*
D27*
X445000Y1045000D03*
X675000Y980000D03*
D26*
X445000Y1045000D02*
X421518Y1045000D01*
X675000Y980000D02*
X676250Y981250D01*
X690000Y981250D01*
X256000Y1060000D02*
X250500Y1054500D01*
X423750Y1060000D02*
X430000Y1053750D01*
X423750Y1060000D02*
X256000Y1060000D01*
X250500Y1054500D02*
X227133Y1054500D01*
X196835Y1024202D01*
X196122Y1024915D02*
X74415Y1024915D01*
X196122Y1024915D02*
X196835Y1024202D01*
X83951Y1022362D02*
X82612Y1023701D01*
X83951Y1022362D02*
X83951Y1017468D01*
X82612Y1016129D01*
X75629Y1016129D01*
X74415Y1014915D01*
X75629Y1023701D02*
X74415Y1024915D01*
X75629Y1023701D02*
X82612Y1023701D01*
X128352Y1060000D02*
X201250Y1060000D01*
X128352Y1060000D02*
X97541Y1029189D01*
X75141Y1029189D02*
X74415Y1029915D01*
X75141Y1029189D02*
X97541Y1029189D01*
X66218Y1021129D02*
X64879Y1022468D01*
X64879Y1027362D01*
X66218Y1028701D01*
X73201Y1028701D01*
X74415Y1029915D01*
X73201Y1021129D02*
X74415Y1019915D01*
X73201Y1021129D02*
X66218Y1021129D01*
D27*
X200000Y1045000D03*
X240000Y1025000D03*
D26*
X201250Y1060000D02*
X200000Y1058750D01*
X200000Y1045000D01*
X240000Y1025000D02*
X250500Y1035500D01*
D27*
X95000Y1005000D03*
X260000Y990000D03*
D26*
X90085Y1009915D02*
X74415Y1009915D01*
X90085Y1009915D02*
X95000Y1005000D01*
X260000Y990000D02*
X281250Y990000D01*
X97573Y1043104D02*
X94384Y1039915D01*
X74415Y1039915D01*
X74415Y1054915D02*
X80104Y1060604D01*
X97573Y1060604D01*
X87335Y989915D02*
X74415Y989915D01*
X87335Y989915D02*
X95750Y981500D01*
X79131Y982560D02*
X79131Y975870D01*
X74400Y971139D01*
X56130Y971139D01*
X56130Y1073691D02*
X74400Y1073691D01*
X79131Y1068960D01*
X50623Y976646D02*
X56130Y971139D01*
X50623Y976646D02*
X50623Y1068184D01*
X56130Y1073691D01*
X79131Y1068960D02*
X79131Y1059631D01*
X74415Y1054915D01*
X74415Y989915D02*
X74415Y987276D01*
X79131Y982560D01*
X114250Y958500D02*
X115375Y959625D01*
X127000Y971250D01*
X140000Y971250D01*
X160250Y951000D01*
X171000Y951000D01*
X171000Y950000D01*
X171000Y939000D01*
X182000Y950000D02*
X267500Y1035500D01*
X182000Y950000D02*
X171000Y950000D01*
X490000Y998750D02*
X490000Y1026250D01*
X540000Y1026250D01*
X640000Y1026250D02*
X685000Y1026250D01*
X690000Y1021250D01*
X690000Y998750D01*
X661347Y991214D02*
X648653Y991214D01*
X661347Y991214D02*
X662686Y992553D01*
X662686Y1004947D01*
X661347Y1006286D01*
X659964Y1006286D01*
X640000Y1026250D01*
X631117Y1008750D02*
X610000Y1008750D01*
X631117Y1008750D02*
X648653Y991214D01*
X322005Y980995D02*
X267500Y1035500D01*
X322005Y980995D02*
X344010Y980995D01*
X345224Y982209D01*
X407711Y1009781D02*
X409796Y1009781D01*
X397510Y1019982D02*
X397510Y1039495D01*
X397510Y1019982D02*
X407711Y1009781D01*
X390283Y1009781D01*
X387510Y1007008D01*
X387510Y972495D01*
X386296Y973709D01*
X386296Y978222D01*
X382309Y982209D01*
X360000Y982209D01*
X345224Y982209D01*
X358724Y1045222D02*
X360283Y1046781D01*
X394737Y1046781D02*
X396296Y1045222D01*
X358724Y1040709D02*
X357510Y1039495D01*
X358724Y1040709D02*
X358724Y1045222D01*
X396296Y1045222D02*
X396296Y1040709D01*
X397510Y1039495D01*
X394737Y1046781D02*
X360283Y1046781D01*
X607500Y1008750D02*
X610000Y1008750D01*
X607500Y1008750D02*
X590000Y1026250D01*
X603653Y983714D02*
X616347Y983714D01*
X617686Y985053D01*
X617686Y997447D01*
X561117Y1026250D02*
X540000Y1026250D01*
X610000Y1008750D02*
X610000Y1005133D01*
X603653Y983714D02*
X561117Y1026250D01*
X610000Y1005133D02*
X617686Y997447D01*
X307755Y980995D02*
X298750Y990000D01*
X307755Y980995D02*
X344010Y980995D01*
X358724Y1038281D02*
X357510Y1039495D01*
X358724Y1038281D02*
X358724Y1033768D01*
X360283Y1032209D01*
X362791Y1032209D01*
X370000Y1025000D01*
X370000Y992209D01*
X360000Y982209D01*
D27*
X475000Y995000D03*
X325178Y988846D03*
D26*
X486250Y995000D02*
X490000Y998750D01*
X486250Y995000D02*
X475000Y995000D01*
X342796Y982209D02*
X338283Y982209D01*
X342796Y982209D02*
X344010Y980995D01*
X331646Y988846D02*
X325178Y988846D01*
X331646Y988846D02*
X338283Y982209D01*
X120447Y990286D02*
X108053Y990286D01*
X120447Y990286D02*
X121786Y988947D01*
X121786Y974053D01*
X99267Y981500D02*
X95750Y981500D01*
X115375Y967642D02*
X121786Y974053D01*
X108053Y990286D02*
X99267Y981500D01*
X115375Y967642D02*
X115375Y959625D01*
X409796Y1009781D02*
X411010Y1010995D01*
X407711Y1009781D02*
X405283Y1009781D01*
X401497Y1005995D02*
X377510Y1005995D01*
X401497Y1005995D02*
X405283Y1009781D01*
X66218Y1001129D02*
X59879Y1007468D01*
X59879Y1037362D02*
X66218Y1043701D01*
X71201Y1001129D02*
X74415Y997915D01*
X71201Y1001129D02*
X66218Y1001129D01*
X66218Y1043701D02*
X71201Y1043701D01*
X74415Y1046915D01*
X59879Y1037362D02*
X59879Y1007468D01*
X74415Y997915D02*
X153915Y997915D01*
X156000Y1000000D01*
X160767Y1000000D01*
X255786Y1040786D02*
X269500Y1054500D01*
X168053Y1007286D02*
X160767Y1000000D01*
X246553Y1040786D02*
X255786Y1040786D01*
X213053Y1007286D02*
X168053Y1007286D01*
X213053Y1007286D02*
X246553Y1040786D01*
X192851Y1000000D02*
X174000Y1000000D01*
X192851Y1000000D02*
X202851Y990000D01*
M02*
