G04 EAGLE Gerber RS-274X export*
G75*
%MOMM*%
%FSLAX34Y34*%
%LPD*%
%INSilkscreen Top*%
%IPPOS*%
%AMOC8*
5,1,8,0,0,1.08239X$1,22.5*%
G01*
%ADD10C,0.127000*%


D10*
X84275Y833615D02*
X84275Y827310D01*
X84277Y827212D01*
X84283Y827115D01*
X84293Y827018D01*
X84306Y826921D01*
X84324Y826825D01*
X84345Y826730D01*
X84371Y826635D01*
X84400Y826542D01*
X84433Y826450D01*
X84469Y826359D01*
X84509Y826270D01*
X84553Y826183D01*
X84600Y826098D01*
X84650Y826014D01*
X84704Y825932D01*
X84761Y825853D01*
X84822Y825776D01*
X84885Y825702D01*
X84951Y825630D01*
X85020Y825561D01*
X85092Y825495D01*
X85166Y825432D01*
X85243Y825371D01*
X85322Y825314D01*
X85404Y825260D01*
X85487Y825210D01*
X85573Y825163D01*
X85660Y825119D01*
X85749Y825079D01*
X85840Y825043D01*
X85932Y825010D01*
X86025Y824981D01*
X86120Y824955D01*
X86215Y824934D01*
X86311Y824916D01*
X86408Y824903D01*
X86505Y824893D01*
X86602Y824887D01*
X86700Y824885D01*
X86798Y824887D01*
X86895Y824893D01*
X86992Y824903D01*
X87089Y824916D01*
X87185Y824934D01*
X87280Y824955D01*
X87375Y824981D01*
X87468Y825010D01*
X87560Y825043D01*
X87651Y825079D01*
X87740Y825119D01*
X87827Y825163D01*
X87912Y825210D01*
X87996Y825260D01*
X88078Y825314D01*
X88157Y825371D01*
X88234Y825432D01*
X88308Y825495D01*
X88380Y825561D01*
X88449Y825630D01*
X88515Y825702D01*
X88578Y825776D01*
X88639Y825853D01*
X88696Y825932D01*
X88750Y826014D01*
X88800Y826098D01*
X88847Y826183D01*
X88891Y826270D01*
X88931Y826359D01*
X88967Y826450D01*
X89000Y826542D01*
X89029Y826635D01*
X89055Y826730D01*
X89076Y826825D01*
X89094Y826921D01*
X89107Y827018D01*
X89117Y827115D01*
X89123Y827212D01*
X89125Y827310D01*
X89125Y833615D01*
X95400Y833615D02*
X95400Y824885D01*
X95400Y829250D02*
X94188Y829978D01*
X94188Y829977D02*
X94125Y830018D01*
X94064Y830061D01*
X94005Y830107D01*
X93949Y830156D01*
X93896Y830208D01*
X93845Y830263D01*
X93797Y830320D01*
X93752Y830380D01*
X93711Y830442D01*
X93672Y830506D01*
X93637Y830572D01*
X93605Y830639D01*
X93577Y830708D01*
X93553Y830779D01*
X93532Y830850D01*
X93515Y830923D01*
X93501Y830996D01*
X93492Y831070D01*
X93486Y831145D01*
X93484Y831219D01*
X93486Y831294D01*
X93492Y831368D01*
X93501Y831442D01*
X93515Y831516D01*
X93532Y831588D01*
X93552Y831660D01*
X93577Y831731D01*
X93605Y831800D01*
X93637Y831867D01*
X93672Y831933D01*
X93710Y831997D01*
X93752Y832059D01*
X93796Y832119D01*
X93844Y832176D01*
X93895Y832231D01*
X93948Y832283D01*
X94004Y832332D01*
X94063Y832379D01*
X94124Y832422D01*
X94187Y832462D01*
X94251Y832499D01*
X94318Y832532D01*
X94387Y832562D01*
X94456Y832588D01*
X94527Y832611D01*
X94600Y832630D01*
X94673Y832645D01*
X94672Y832645D02*
X94791Y832665D01*
X94911Y832681D01*
X95030Y832694D01*
X95151Y832702D01*
X95271Y832707D01*
X95392Y832708D01*
X95512Y832705D01*
X95632Y832699D01*
X95752Y832688D01*
X95872Y832674D01*
X95991Y832656D01*
X96110Y832635D01*
X96227Y832610D01*
X96344Y832581D01*
X96460Y832548D01*
X96575Y832512D01*
X96689Y832472D01*
X96801Y832429D01*
X96912Y832382D01*
X97022Y832331D01*
X97130Y832278D01*
X97236Y832221D01*
X97340Y832160D01*
X95400Y829250D02*
X96613Y828523D01*
X96612Y828523D02*
X96675Y828482D01*
X96736Y828439D01*
X96795Y828393D01*
X96851Y828344D01*
X96904Y828292D01*
X96955Y828237D01*
X97003Y828180D01*
X97048Y828120D01*
X97089Y828058D01*
X97128Y827994D01*
X97163Y827928D01*
X97195Y827861D01*
X97223Y827792D01*
X97247Y827721D01*
X97268Y827650D01*
X97285Y827577D01*
X97299Y827504D01*
X97308Y827430D01*
X97314Y827355D01*
X97316Y827281D01*
X97314Y827206D01*
X97308Y827132D01*
X97299Y827058D01*
X97285Y826984D01*
X97268Y826912D01*
X97248Y826840D01*
X97223Y826769D01*
X97195Y826700D01*
X97163Y826633D01*
X97128Y826567D01*
X97090Y826503D01*
X97048Y826441D01*
X97004Y826381D01*
X96956Y826324D01*
X96905Y826269D01*
X96852Y826217D01*
X96796Y826168D01*
X96737Y826121D01*
X96676Y826078D01*
X96613Y826038D01*
X96549Y826001D01*
X96482Y825968D01*
X96413Y825938D01*
X96344Y825912D01*
X96273Y825889D01*
X96200Y825870D01*
X96127Y825855D01*
X96128Y825855D02*
X96009Y825835D01*
X95889Y825819D01*
X95770Y825806D01*
X95649Y825798D01*
X95529Y825793D01*
X95408Y825792D01*
X95288Y825795D01*
X95168Y825801D01*
X95048Y825812D01*
X94928Y825826D01*
X94809Y825844D01*
X94690Y825865D01*
X94573Y825890D01*
X94456Y825919D01*
X94340Y825952D01*
X94225Y825988D01*
X94111Y826028D01*
X93999Y826071D01*
X93888Y826118D01*
X93778Y826169D01*
X93670Y826222D01*
X93564Y826279D01*
X93460Y826340D01*
X101375Y831675D02*
X103800Y833615D01*
X103800Y824885D01*
X101375Y824885D02*
X106225Y824885D01*
X370025Y827310D02*
X370025Y833615D01*
X370025Y827310D02*
X370027Y827212D01*
X370033Y827115D01*
X370043Y827018D01*
X370056Y826921D01*
X370074Y826825D01*
X370095Y826730D01*
X370121Y826635D01*
X370150Y826542D01*
X370183Y826450D01*
X370219Y826359D01*
X370259Y826270D01*
X370303Y826183D01*
X370350Y826098D01*
X370400Y826014D01*
X370454Y825932D01*
X370511Y825853D01*
X370572Y825776D01*
X370635Y825702D01*
X370701Y825630D01*
X370770Y825561D01*
X370842Y825495D01*
X370916Y825432D01*
X370993Y825371D01*
X371072Y825314D01*
X371154Y825260D01*
X371238Y825210D01*
X371323Y825163D01*
X371410Y825119D01*
X371499Y825079D01*
X371590Y825043D01*
X371682Y825010D01*
X371775Y824981D01*
X371870Y824955D01*
X371965Y824934D01*
X372061Y824916D01*
X372158Y824903D01*
X372255Y824893D01*
X372352Y824887D01*
X372450Y824885D01*
X372548Y824887D01*
X372645Y824893D01*
X372742Y824903D01*
X372839Y824916D01*
X372935Y824934D01*
X373030Y824955D01*
X373125Y824981D01*
X373218Y825010D01*
X373310Y825043D01*
X373401Y825079D01*
X373490Y825119D01*
X373577Y825163D01*
X373663Y825210D01*
X373746Y825260D01*
X373828Y825314D01*
X373907Y825371D01*
X373984Y825432D01*
X374058Y825495D01*
X374130Y825561D01*
X374199Y825630D01*
X374265Y825702D01*
X374328Y825776D01*
X374389Y825853D01*
X374446Y825932D01*
X374500Y826014D01*
X374550Y826098D01*
X374597Y826183D01*
X374641Y826270D01*
X374681Y826359D01*
X374717Y826450D01*
X374750Y826542D01*
X374779Y826635D01*
X374805Y826730D01*
X374826Y826825D01*
X374844Y826921D01*
X374857Y827018D01*
X374867Y827115D01*
X374873Y827212D01*
X374875Y827310D01*
X374875Y833615D01*
X381150Y833615D02*
X381150Y824885D01*
X381150Y829250D02*
X379938Y829978D01*
X379938Y829977D02*
X379875Y830018D01*
X379814Y830061D01*
X379755Y830107D01*
X379699Y830156D01*
X379646Y830208D01*
X379595Y830263D01*
X379547Y830320D01*
X379502Y830380D01*
X379461Y830442D01*
X379422Y830506D01*
X379387Y830572D01*
X379355Y830639D01*
X379327Y830708D01*
X379303Y830779D01*
X379282Y830850D01*
X379265Y830923D01*
X379251Y830996D01*
X379242Y831070D01*
X379236Y831145D01*
X379234Y831219D01*
X379236Y831294D01*
X379242Y831368D01*
X379251Y831442D01*
X379265Y831516D01*
X379282Y831588D01*
X379302Y831660D01*
X379327Y831731D01*
X379355Y831800D01*
X379387Y831867D01*
X379422Y831933D01*
X379460Y831997D01*
X379502Y832059D01*
X379546Y832119D01*
X379594Y832176D01*
X379645Y832231D01*
X379698Y832283D01*
X379754Y832332D01*
X379813Y832379D01*
X379874Y832422D01*
X379937Y832462D01*
X380001Y832499D01*
X380068Y832532D01*
X380137Y832562D01*
X380206Y832588D01*
X380277Y832611D01*
X380350Y832630D01*
X380423Y832645D01*
X380422Y832645D02*
X380541Y832665D01*
X380661Y832681D01*
X380780Y832694D01*
X380901Y832702D01*
X381021Y832707D01*
X381142Y832708D01*
X381262Y832705D01*
X381382Y832699D01*
X381502Y832688D01*
X381622Y832674D01*
X381741Y832656D01*
X381860Y832635D01*
X381977Y832610D01*
X382094Y832581D01*
X382210Y832548D01*
X382325Y832512D01*
X382439Y832472D01*
X382551Y832429D01*
X382662Y832382D01*
X382772Y832331D01*
X382880Y832278D01*
X382986Y832221D01*
X383090Y832160D01*
X381150Y829250D02*
X382363Y828523D01*
X382362Y828523D02*
X382425Y828482D01*
X382486Y828439D01*
X382545Y828393D01*
X382601Y828344D01*
X382654Y828292D01*
X382705Y828237D01*
X382753Y828180D01*
X382798Y828120D01*
X382839Y828058D01*
X382878Y827994D01*
X382913Y827928D01*
X382945Y827861D01*
X382973Y827792D01*
X382997Y827721D01*
X383018Y827650D01*
X383035Y827577D01*
X383049Y827504D01*
X383058Y827430D01*
X383064Y827355D01*
X383066Y827281D01*
X383064Y827206D01*
X383058Y827132D01*
X383049Y827058D01*
X383035Y826984D01*
X383018Y826912D01*
X382998Y826840D01*
X382973Y826769D01*
X382945Y826700D01*
X382913Y826633D01*
X382878Y826567D01*
X382840Y826503D01*
X382798Y826441D01*
X382754Y826381D01*
X382706Y826324D01*
X382655Y826269D01*
X382602Y826217D01*
X382546Y826168D01*
X382487Y826121D01*
X382426Y826078D01*
X382363Y826038D01*
X382299Y826001D01*
X382232Y825968D01*
X382163Y825938D01*
X382094Y825912D01*
X382023Y825889D01*
X381950Y825870D01*
X381877Y825855D01*
X381878Y825855D02*
X381759Y825835D01*
X381639Y825819D01*
X381520Y825806D01*
X381399Y825798D01*
X381279Y825793D01*
X381158Y825792D01*
X381038Y825795D01*
X380918Y825801D01*
X380798Y825812D01*
X380678Y825826D01*
X380559Y825844D01*
X380440Y825865D01*
X380323Y825890D01*
X380206Y825919D01*
X380090Y825952D01*
X379975Y825988D01*
X379861Y826028D01*
X379749Y826071D01*
X379638Y826118D01*
X379528Y826169D01*
X379420Y826222D01*
X379314Y826279D01*
X379210Y826340D01*
X389793Y833616D02*
X389886Y833614D01*
X389978Y833608D01*
X390070Y833598D01*
X390162Y833585D01*
X390253Y833567D01*
X390343Y833546D01*
X390432Y833520D01*
X390520Y833491D01*
X390607Y833459D01*
X390692Y833422D01*
X390776Y833382D01*
X390858Y833339D01*
X390938Y833292D01*
X391015Y833242D01*
X391091Y833188D01*
X391164Y833131D01*
X391235Y833072D01*
X391304Y833009D01*
X391369Y832944D01*
X391432Y832875D01*
X391491Y832804D01*
X391548Y832731D01*
X391602Y832655D01*
X391652Y832578D01*
X391699Y832498D01*
X391742Y832416D01*
X391782Y832332D01*
X391819Y832247D01*
X391851Y832160D01*
X391880Y832072D01*
X391906Y831983D01*
X391927Y831893D01*
X391945Y831802D01*
X391958Y831710D01*
X391968Y831618D01*
X391974Y831526D01*
X391976Y831433D01*
X389793Y833615D02*
X389689Y833613D01*
X389586Y833607D01*
X389482Y833598D01*
X389380Y833584D01*
X389277Y833567D01*
X389176Y833546D01*
X389075Y833522D01*
X388975Y833493D01*
X388877Y833461D01*
X388779Y833425D01*
X388683Y833386D01*
X388589Y833343D01*
X388496Y833297D01*
X388405Y833247D01*
X388316Y833194D01*
X388229Y833138D01*
X388144Y833079D01*
X388061Y833016D01*
X387981Y832951D01*
X387903Y832882D01*
X387827Y832811D01*
X387755Y832737D01*
X387685Y832660D01*
X387618Y832581D01*
X387554Y832499D01*
X387493Y832415D01*
X387436Y832329D01*
X387381Y832241D01*
X387330Y832151D01*
X387282Y832059D01*
X387237Y831965D01*
X387197Y831870D01*
X387159Y831773D01*
X387125Y831675D01*
X391248Y829736D02*
X391315Y829802D01*
X391380Y829872D01*
X391441Y829944D01*
X391500Y830018D01*
X391556Y830095D01*
X391608Y830174D01*
X391658Y830255D01*
X391704Y830338D01*
X391746Y830423D01*
X391785Y830510D01*
X391821Y830598D01*
X391853Y830687D01*
X391881Y830778D01*
X391906Y830869D01*
X391927Y830962D01*
X391944Y831055D01*
X391958Y831149D01*
X391967Y831243D01*
X391973Y831338D01*
X391975Y831433D01*
X391248Y829735D02*
X387125Y824885D01*
X391975Y824885D01*
X655775Y827310D02*
X655775Y833615D01*
X655775Y827310D02*
X655777Y827212D01*
X655783Y827115D01*
X655793Y827018D01*
X655806Y826921D01*
X655824Y826825D01*
X655845Y826730D01*
X655871Y826635D01*
X655900Y826542D01*
X655933Y826450D01*
X655969Y826359D01*
X656009Y826270D01*
X656053Y826183D01*
X656100Y826098D01*
X656150Y826014D01*
X656204Y825932D01*
X656261Y825853D01*
X656322Y825776D01*
X656385Y825702D01*
X656451Y825630D01*
X656520Y825561D01*
X656592Y825495D01*
X656666Y825432D01*
X656743Y825371D01*
X656822Y825314D01*
X656904Y825260D01*
X656988Y825210D01*
X657073Y825163D01*
X657160Y825119D01*
X657249Y825079D01*
X657340Y825043D01*
X657432Y825010D01*
X657525Y824981D01*
X657620Y824955D01*
X657715Y824934D01*
X657811Y824916D01*
X657908Y824903D01*
X658005Y824893D01*
X658102Y824887D01*
X658200Y824885D01*
X658298Y824887D01*
X658395Y824893D01*
X658492Y824903D01*
X658589Y824916D01*
X658685Y824934D01*
X658780Y824955D01*
X658875Y824981D01*
X658968Y825010D01*
X659060Y825043D01*
X659151Y825079D01*
X659240Y825119D01*
X659327Y825163D01*
X659413Y825210D01*
X659496Y825260D01*
X659578Y825314D01*
X659657Y825371D01*
X659734Y825432D01*
X659808Y825495D01*
X659880Y825561D01*
X659949Y825630D01*
X660015Y825702D01*
X660078Y825776D01*
X660139Y825853D01*
X660196Y825932D01*
X660250Y826014D01*
X660300Y826098D01*
X660347Y826183D01*
X660391Y826270D01*
X660431Y826359D01*
X660467Y826450D01*
X660500Y826542D01*
X660529Y826635D01*
X660555Y826730D01*
X660576Y826825D01*
X660594Y826921D01*
X660607Y827018D01*
X660617Y827115D01*
X660623Y827212D01*
X660625Y827310D01*
X660625Y833615D01*
X666900Y833615D02*
X666900Y824885D01*
X666900Y829250D02*
X665688Y829978D01*
X665688Y829977D02*
X665625Y830018D01*
X665564Y830061D01*
X665505Y830107D01*
X665449Y830156D01*
X665396Y830208D01*
X665345Y830263D01*
X665297Y830320D01*
X665252Y830380D01*
X665211Y830442D01*
X665172Y830506D01*
X665137Y830572D01*
X665105Y830639D01*
X665077Y830708D01*
X665053Y830779D01*
X665032Y830850D01*
X665015Y830923D01*
X665001Y830996D01*
X664992Y831070D01*
X664986Y831145D01*
X664984Y831219D01*
X664986Y831294D01*
X664992Y831368D01*
X665001Y831442D01*
X665015Y831516D01*
X665032Y831588D01*
X665052Y831660D01*
X665077Y831731D01*
X665105Y831800D01*
X665137Y831867D01*
X665172Y831933D01*
X665210Y831997D01*
X665252Y832059D01*
X665296Y832119D01*
X665344Y832176D01*
X665395Y832231D01*
X665448Y832283D01*
X665504Y832332D01*
X665563Y832379D01*
X665624Y832422D01*
X665687Y832462D01*
X665751Y832499D01*
X665818Y832532D01*
X665887Y832562D01*
X665956Y832588D01*
X666027Y832611D01*
X666100Y832630D01*
X666173Y832645D01*
X666172Y832645D02*
X666291Y832665D01*
X666411Y832681D01*
X666530Y832694D01*
X666651Y832702D01*
X666771Y832707D01*
X666892Y832708D01*
X667012Y832705D01*
X667132Y832699D01*
X667252Y832688D01*
X667372Y832674D01*
X667491Y832656D01*
X667610Y832635D01*
X667727Y832610D01*
X667844Y832581D01*
X667960Y832548D01*
X668075Y832512D01*
X668189Y832472D01*
X668301Y832429D01*
X668412Y832382D01*
X668522Y832331D01*
X668630Y832278D01*
X668736Y832221D01*
X668840Y832160D01*
X666900Y829250D02*
X668113Y828523D01*
X668112Y828523D02*
X668175Y828482D01*
X668236Y828439D01*
X668295Y828393D01*
X668351Y828344D01*
X668404Y828292D01*
X668455Y828237D01*
X668503Y828180D01*
X668548Y828120D01*
X668589Y828058D01*
X668628Y827994D01*
X668663Y827928D01*
X668695Y827861D01*
X668723Y827792D01*
X668747Y827721D01*
X668768Y827650D01*
X668785Y827577D01*
X668799Y827504D01*
X668808Y827430D01*
X668814Y827355D01*
X668816Y827281D01*
X668814Y827206D01*
X668808Y827132D01*
X668799Y827058D01*
X668785Y826984D01*
X668768Y826912D01*
X668748Y826840D01*
X668723Y826769D01*
X668695Y826700D01*
X668663Y826633D01*
X668628Y826567D01*
X668590Y826503D01*
X668548Y826441D01*
X668504Y826381D01*
X668456Y826324D01*
X668405Y826269D01*
X668352Y826217D01*
X668296Y826168D01*
X668237Y826121D01*
X668176Y826078D01*
X668113Y826038D01*
X668049Y826001D01*
X667982Y825968D01*
X667913Y825938D01*
X667844Y825912D01*
X667773Y825889D01*
X667700Y825870D01*
X667627Y825855D01*
X667628Y825855D02*
X667509Y825835D01*
X667389Y825819D01*
X667270Y825806D01*
X667149Y825798D01*
X667029Y825793D01*
X666908Y825792D01*
X666788Y825795D01*
X666668Y825801D01*
X666548Y825812D01*
X666428Y825826D01*
X666309Y825844D01*
X666190Y825865D01*
X666073Y825890D01*
X665956Y825919D01*
X665840Y825952D01*
X665725Y825988D01*
X665611Y826028D01*
X665499Y826071D01*
X665388Y826118D01*
X665278Y826169D01*
X665170Y826222D01*
X665064Y826279D01*
X664960Y826340D01*
X672875Y824885D02*
X675300Y824885D01*
X675398Y824887D01*
X675495Y824893D01*
X675592Y824903D01*
X675689Y824916D01*
X675785Y824934D01*
X675880Y824955D01*
X675975Y824981D01*
X676068Y825010D01*
X676160Y825043D01*
X676251Y825079D01*
X676340Y825119D01*
X676427Y825163D01*
X676513Y825210D01*
X676596Y825260D01*
X676678Y825314D01*
X676757Y825371D01*
X676834Y825432D01*
X676908Y825495D01*
X676980Y825561D01*
X677049Y825630D01*
X677115Y825702D01*
X677178Y825776D01*
X677239Y825853D01*
X677296Y825932D01*
X677350Y826014D01*
X677400Y826098D01*
X677447Y826183D01*
X677491Y826270D01*
X677531Y826359D01*
X677567Y826450D01*
X677600Y826542D01*
X677629Y826635D01*
X677655Y826730D01*
X677676Y826825D01*
X677694Y826921D01*
X677707Y827018D01*
X677717Y827115D01*
X677723Y827212D01*
X677725Y827310D01*
X677723Y827408D01*
X677717Y827505D01*
X677707Y827602D01*
X677694Y827699D01*
X677676Y827795D01*
X677655Y827890D01*
X677629Y827985D01*
X677600Y828078D01*
X677567Y828170D01*
X677531Y828261D01*
X677491Y828350D01*
X677447Y828437D01*
X677400Y828523D01*
X677350Y828606D01*
X677296Y828688D01*
X677239Y828767D01*
X677178Y828844D01*
X677115Y828918D01*
X677049Y828990D01*
X676980Y829059D01*
X676908Y829125D01*
X676834Y829188D01*
X676757Y829249D01*
X676678Y829306D01*
X676596Y829360D01*
X676513Y829410D01*
X676427Y829457D01*
X676340Y829501D01*
X676251Y829541D01*
X676160Y829577D01*
X676068Y829610D01*
X675975Y829639D01*
X675880Y829665D01*
X675785Y829686D01*
X675689Y829704D01*
X675592Y829717D01*
X675495Y829727D01*
X675398Y829733D01*
X675300Y829735D01*
X675785Y833615D02*
X672875Y833615D01*
X675785Y833615D02*
X675872Y833613D01*
X675959Y833607D01*
X676045Y833597D01*
X676131Y833584D01*
X676217Y833566D01*
X676301Y833545D01*
X676384Y833520D01*
X676467Y833491D01*
X676547Y833459D01*
X676627Y833423D01*
X676704Y833383D01*
X676780Y833340D01*
X676854Y833294D01*
X676925Y833244D01*
X676995Y833192D01*
X677061Y833136D01*
X677126Y833077D01*
X677187Y833016D01*
X677246Y832951D01*
X677302Y832885D01*
X677354Y832815D01*
X677404Y832744D01*
X677450Y832670D01*
X677493Y832594D01*
X677533Y832517D01*
X677569Y832437D01*
X677601Y832357D01*
X677630Y832274D01*
X677655Y832191D01*
X677676Y832107D01*
X677694Y832021D01*
X677707Y831935D01*
X677717Y831849D01*
X677723Y831762D01*
X677725Y831675D01*
X677723Y831588D01*
X677717Y831501D01*
X677707Y831415D01*
X677694Y831329D01*
X677676Y831243D01*
X677655Y831159D01*
X677630Y831076D01*
X677601Y830993D01*
X677569Y830913D01*
X677533Y830833D01*
X677493Y830756D01*
X677450Y830680D01*
X677404Y830606D01*
X677354Y830535D01*
X677302Y830465D01*
X677246Y830399D01*
X677187Y830334D01*
X677126Y830273D01*
X677061Y830214D01*
X676995Y830158D01*
X676925Y830106D01*
X676854Y830056D01*
X676780Y830010D01*
X676704Y829967D01*
X676627Y829927D01*
X676547Y829891D01*
X676467Y829859D01*
X676384Y829830D01*
X676301Y829805D01*
X676217Y829784D01*
X676131Y829766D01*
X676045Y829753D01*
X675959Y829743D01*
X675872Y829737D01*
X675785Y829735D01*
X673845Y829735D01*
X84275Y643115D02*
X84275Y636810D01*
X84277Y636712D01*
X84283Y636615D01*
X84293Y636518D01*
X84306Y636421D01*
X84324Y636325D01*
X84345Y636230D01*
X84371Y636135D01*
X84400Y636042D01*
X84433Y635950D01*
X84469Y635859D01*
X84509Y635770D01*
X84553Y635683D01*
X84600Y635598D01*
X84650Y635514D01*
X84704Y635432D01*
X84761Y635353D01*
X84822Y635276D01*
X84885Y635202D01*
X84951Y635130D01*
X85020Y635061D01*
X85092Y634995D01*
X85166Y634932D01*
X85243Y634871D01*
X85322Y634814D01*
X85404Y634760D01*
X85487Y634710D01*
X85573Y634663D01*
X85660Y634619D01*
X85749Y634579D01*
X85840Y634543D01*
X85932Y634510D01*
X86025Y634481D01*
X86120Y634455D01*
X86215Y634434D01*
X86311Y634416D01*
X86408Y634403D01*
X86505Y634393D01*
X86602Y634387D01*
X86700Y634385D01*
X86798Y634387D01*
X86895Y634393D01*
X86992Y634403D01*
X87089Y634416D01*
X87185Y634434D01*
X87280Y634455D01*
X87375Y634481D01*
X87468Y634510D01*
X87560Y634543D01*
X87651Y634579D01*
X87740Y634619D01*
X87827Y634663D01*
X87912Y634710D01*
X87996Y634760D01*
X88078Y634814D01*
X88157Y634871D01*
X88234Y634932D01*
X88308Y634995D01*
X88380Y635061D01*
X88449Y635130D01*
X88515Y635202D01*
X88578Y635276D01*
X88639Y635353D01*
X88696Y635432D01*
X88750Y635514D01*
X88800Y635598D01*
X88847Y635683D01*
X88891Y635770D01*
X88931Y635859D01*
X88967Y635950D01*
X89000Y636042D01*
X89029Y636135D01*
X89055Y636230D01*
X89076Y636325D01*
X89094Y636421D01*
X89107Y636518D01*
X89117Y636615D01*
X89123Y636712D01*
X89125Y636810D01*
X89125Y643115D01*
X95400Y643115D02*
X95400Y634385D01*
X95400Y638750D02*
X94188Y639478D01*
X94188Y639477D02*
X94125Y639518D01*
X94064Y639561D01*
X94005Y639607D01*
X93949Y639656D01*
X93896Y639708D01*
X93845Y639763D01*
X93797Y639820D01*
X93752Y639880D01*
X93711Y639942D01*
X93672Y640006D01*
X93637Y640072D01*
X93605Y640139D01*
X93577Y640208D01*
X93553Y640279D01*
X93532Y640350D01*
X93515Y640423D01*
X93501Y640496D01*
X93492Y640570D01*
X93486Y640645D01*
X93484Y640719D01*
X93486Y640794D01*
X93492Y640868D01*
X93501Y640942D01*
X93515Y641016D01*
X93532Y641088D01*
X93552Y641160D01*
X93577Y641231D01*
X93605Y641300D01*
X93637Y641367D01*
X93672Y641433D01*
X93710Y641497D01*
X93752Y641559D01*
X93796Y641619D01*
X93844Y641676D01*
X93895Y641731D01*
X93948Y641783D01*
X94004Y641832D01*
X94063Y641879D01*
X94124Y641922D01*
X94187Y641962D01*
X94251Y641999D01*
X94318Y642032D01*
X94387Y642062D01*
X94456Y642088D01*
X94527Y642111D01*
X94600Y642130D01*
X94673Y642145D01*
X94672Y642145D02*
X94791Y642165D01*
X94911Y642181D01*
X95030Y642194D01*
X95151Y642202D01*
X95271Y642207D01*
X95392Y642208D01*
X95512Y642205D01*
X95632Y642199D01*
X95752Y642188D01*
X95872Y642174D01*
X95991Y642156D01*
X96110Y642135D01*
X96227Y642110D01*
X96344Y642081D01*
X96460Y642048D01*
X96575Y642012D01*
X96689Y641972D01*
X96801Y641929D01*
X96912Y641882D01*
X97022Y641831D01*
X97130Y641778D01*
X97236Y641721D01*
X97340Y641660D01*
X95400Y638750D02*
X96613Y638023D01*
X96612Y638023D02*
X96675Y637982D01*
X96736Y637939D01*
X96795Y637893D01*
X96851Y637844D01*
X96904Y637792D01*
X96955Y637737D01*
X97003Y637680D01*
X97048Y637620D01*
X97089Y637558D01*
X97128Y637494D01*
X97163Y637428D01*
X97195Y637361D01*
X97223Y637292D01*
X97247Y637221D01*
X97268Y637150D01*
X97285Y637077D01*
X97299Y637004D01*
X97308Y636930D01*
X97314Y636855D01*
X97316Y636781D01*
X97314Y636706D01*
X97308Y636632D01*
X97299Y636558D01*
X97285Y636484D01*
X97268Y636412D01*
X97248Y636340D01*
X97223Y636269D01*
X97195Y636200D01*
X97163Y636133D01*
X97128Y636067D01*
X97090Y636003D01*
X97048Y635941D01*
X97004Y635881D01*
X96956Y635824D01*
X96905Y635769D01*
X96852Y635717D01*
X96796Y635668D01*
X96737Y635621D01*
X96676Y635578D01*
X96613Y635538D01*
X96549Y635501D01*
X96482Y635468D01*
X96413Y635438D01*
X96344Y635412D01*
X96273Y635389D01*
X96200Y635370D01*
X96127Y635355D01*
X96128Y635355D02*
X96009Y635335D01*
X95889Y635319D01*
X95770Y635306D01*
X95649Y635298D01*
X95529Y635293D01*
X95408Y635292D01*
X95288Y635295D01*
X95168Y635301D01*
X95048Y635312D01*
X94928Y635326D01*
X94809Y635344D01*
X94690Y635365D01*
X94573Y635390D01*
X94456Y635419D01*
X94340Y635452D01*
X94225Y635488D01*
X94111Y635528D01*
X93999Y635571D01*
X93888Y635618D01*
X93778Y635669D01*
X93670Y635722D01*
X93564Y635779D01*
X93460Y635840D01*
X101375Y636325D02*
X103315Y643115D01*
X101375Y636325D02*
X106225Y636325D01*
X104770Y638265D02*
X104770Y634385D01*
X274775Y636810D02*
X274775Y643115D01*
X274775Y636810D02*
X274777Y636712D01*
X274783Y636615D01*
X274793Y636518D01*
X274806Y636421D01*
X274824Y636325D01*
X274845Y636230D01*
X274871Y636135D01*
X274900Y636042D01*
X274933Y635950D01*
X274969Y635859D01*
X275009Y635770D01*
X275053Y635683D01*
X275100Y635598D01*
X275150Y635514D01*
X275204Y635432D01*
X275261Y635353D01*
X275322Y635276D01*
X275385Y635202D01*
X275451Y635130D01*
X275520Y635061D01*
X275592Y634995D01*
X275666Y634932D01*
X275743Y634871D01*
X275822Y634814D01*
X275904Y634760D01*
X275988Y634710D01*
X276073Y634663D01*
X276160Y634619D01*
X276249Y634579D01*
X276340Y634543D01*
X276432Y634510D01*
X276525Y634481D01*
X276620Y634455D01*
X276715Y634434D01*
X276811Y634416D01*
X276908Y634403D01*
X277005Y634393D01*
X277102Y634387D01*
X277200Y634385D01*
X277298Y634387D01*
X277395Y634393D01*
X277492Y634403D01*
X277589Y634416D01*
X277685Y634434D01*
X277780Y634455D01*
X277875Y634481D01*
X277968Y634510D01*
X278060Y634543D01*
X278151Y634579D01*
X278240Y634619D01*
X278327Y634663D01*
X278413Y634710D01*
X278496Y634760D01*
X278578Y634814D01*
X278657Y634871D01*
X278734Y634932D01*
X278808Y634995D01*
X278880Y635061D01*
X278949Y635130D01*
X279015Y635202D01*
X279078Y635276D01*
X279139Y635353D01*
X279196Y635432D01*
X279250Y635514D01*
X279300Y635598D01*
X279347Y635683D01*
X279391Y635770D01*
X279431Y635859D01*
X279467Y635950D01*
X279500Y636042D01*
X279529Y636135D01*
X279555Y636230D01*
X279576Y636325D01*
X279594Y636421D01*
X279607Y636518D01*
X279617Y636615D01*
X279623Y636712D01*
X279625Y636810D01*
X279625Y643115D01*
X285900Y643115D02*
X285900Y634385D01*
X285900Y638750D02*
X284688Y639478D01*
X284688Y639477D02*
X284625Y639518D01*
X284564Y639561D01*
X284505Y639607D01*
X284449Y639656D01*
X284396Y639708D01*
X284345Y639763D01*
X284297Y639820D01*
X284252Y639880D01*
X284211Y639942D01*
X284172Y640006D01*
X284137Y640072D01*
X284105Y640139D01*
X284077Y640208D01*
X284053Y640279D01*
X284032Y640350D01*
X284015Y640423D01*
X284001Y640496D01*
X283992Y640570D01*
X283986Y640645D01*
X283984Y640719D01*
X283986Y640794D01*
X283992Y640868D01*
X284001Y640942D01*
X284015Y641016D01*
X284032Y641088D01*
X284052Y641160D01*
X284077Y641231D01*
X284105Y641300D01*
X284137Y641367D01*
X284172Y641433D01*
X284210Y641497D01*
X284252Y641559D01*
X284296Y641619D01*
X284344Y641676D01*
X284395Y641731D01*
X284448Y641783D01*
X284504Y641832D01*
X284563Y641879D01*
X284624Y641922D01*
X284687Y641962D01*
X284751Y641999D01*
X284818Y642032D01*
X284887Y642062D01*
X284956Y642088D01*
X285027Y642111D01*
X285100Y642130D01*
X285173Y642145D01*
X285172Y642145D02*
X285291Y642165D01*
X285411Y642181D01*
X285530Y642194D01*
X285651Y642202D01*
X285771Y642207D01*
X285892Y642208D01*
X286012Y642205D01*
X286132Y642199D01*
X286252Y642188D01*
X286372Y642174D01*
X286491Y642156D01*
X286610Y642135D01*
X286727Y642110D01*
X286844Y642081D01*
X286960Y642048D01*
X287075Y642012D01*
X287189Y641972D01*
X287301Y641929D01*
X287412Y641882D01*
X287522Y641831D01*
X287630Y641778D01*
X287736Y641721D01*
X287840Y641660D01*
X285900Y638750D02*
X287113Y638023D01*
X287112Y638023D02*
X287175Y637982D01*
X287236Y637939D01*
X287295Y637893D01*
X287351Y637844D01*
X287404Y637792D01*
X287455Y637737D01*
X287503Y637680D01*
X287548Y637620D01*
X287589Y637558D01*
X287628Y637494D01*
X287663Y637428D01*
X287695Y637361D01*
X287723Y637292D01*
X287747Y637221D01*
X287768Y637150D01*
X287785Y637077D01*
X287799Y637004D01*
X287808Y636930D01*
X287814Y636855D01*
X287816Y636781D01*
X287814Y636706D01*
X287808Y636632D01*
X287799Y636558D01*
X287785Y636484D01*
X287768Y636412D01*
X287748Y636340D01*
X287723Y636269D01*
X287695Y636200D01*
X287663Y636133D01*
X287628Y636067D01*
X287590Y636003D01*
X287548Y635941D01*
X287504Y635881D01*
X287456Y635824D01*
X287405Y635769D01*
X287352Y635717D01*
X287296Y635668D01*
X287237Y635621D01*
X287176Y635578D01*
X287113Y635538D01*
X287049Y635501D01*
X286982Y635468D01*
X286913Y635438D01*
X286844Y635412D01*
X286773Y635389D01*
X286700Y635370D01*
X286627Y635355D01*
X286628Y635355D02*
X286509Y635335D01*
X286389Y635319D01*
X286270Y635306D01*
X286149Y635298D01*
X286029Y635293D01*
X285908Y635292D01*
X285788Y635295D01*
X285668Y635301D01*
X285548Y635312D01*
X285428Y635326D01*
X285309Y635344D01*
X285190Y635365D01*
X285073Y635390D01*
X284956Y635419D01*
X284840Y635452D01*
X284725Y635488D01*
X284611Y635528D01*
X284499Y635571D01*
X284388Y635618D01*
X284278Y635669D01*
X284170Y635722D01*
X284064Y635779D01*
X283960Y635840D01*
X291875Y634385D02*
X294785Y634385D01*
X294872Y634387D01*
X294959Y634393D01*
X295045Y634403D01*
X295131Y634416D01*
X295217Y634434D01*
X295301Y634455D01*
X295384Y634480D01*
X295467Y634509D01*
X295547Y634541D01*
X295627Y634577D01*
X295704Y634617D01*
X295780Y634660D01*
X295854Y634706D01*
X295925Y634756D01*
X295995Y634808D01*
X296061Y634864D01*
X296126Y634923D01*
X296187Y634984D01*
X296246Y635049D01*
X296302Y635115D01*
X296354Y635185D01*
X296404Y635256D01*
X296450Y635330D01*
X296493Y635406D01*
X296533Y635483D01*
X296569Y635563D01*
X296601Y635643D01*
X296630Y635726D01*
X296655Y635809D01*
X296676Y635893D01*
X296694Y635979D01*
X296707Y636065D01*
X296717Y636151D01*
X296723Y636238D01*
X296725Y636325D01*
X296725Y637295D01*
X296723Y637382D01*
X296717Y637469D01*
X296707Y637555D01*
X296694Y637641D01*
X296676Y637727D01*
X296655Y637811D01*
X296630Y637894D01*
X296601Y637977D01*
X296569Y638057D01*
X296533Y638137D01*
X296493Y638214D01*
X296450Y638290D01*
X296404Y638364D01*
X296354Y638435D01*
X296302Y638505D01*
X296246Y638571D01*
X296187Y638636D01*
X296126Y638697D01*
X296061Y638756D01*
X295995Y638812D01*
X295925Y638864D01*
X295854Y638914D01*
X295780Y638960D01*
X295704Y639003D01*
X295627Y639043D01*
X295547Y639079D01*
X295467Y639111D01*
X295384Y639140D01*
X295301Y639165D01*
X295217Y639186D01*
X295131Y639204D01*
X295045Y639217D01*
X294959Y639227D01*
X294872Y639233D01*
X294785Y639235D01*
X291875Y639235D01*
X291875Y643115D01*
X296725Y643115D01*
X465275Y643115D02*
X465275Y636810D01*
X465277Y636712D01*
X465283Y636615D01*
X465293Y636518D01*
X465306Y636421D01*
X465324Y636325D01*
X465345Y636230D01*
X465371Y636135D01*
X465400Y636042D01*
X465433Y635950D01*
X465469Y635859D01*
X465509Y635770D01*
X465553Y635683D01*
X465600Y635598D01*
X465650Y635514D01*
X465704Y635432D01*
X465761Y635353D01*
X465822Y635276D01*
X465885Y635202D01*
X465951Y635130D01*
X466020Y635061D01*
X466092Y634995D01*
X466166Y634932D01*
X466243Y634871D01*
X466322Y634814D01*
X466404Y634760D01*
X466488Y634710D01*
X466573Y634663D01*
X466660Y634619D01*
X466749Y634579D01*
X466840Y634543D01*
X466932Y634510D01*
X467025Y634481D01*
X467120Y634455D01*
X467215Y634434D01*
X467311Y634416D01*
X467408Y634403D01*
X467505Y634393D01*
X467602Y634387D01*
X467700Y634385D01*
X467798Y634387D01*
X467895Y634393D01*
X467992Y634403D01*
X468089Y634416D01*
X468185Y634434D01*
X468280Y634455D01*
X468375Y634481D01*
X468468Y634510D01*
X468560Y634543D01*
X468651Y634579D01*
X468740Y634619D01*
X468827Y634663D01*
X468913Y634710D01*
X468996Y634760D01*
X469078Y634814D01*
X469157Y634871D01*
X469234Y634932D01*
X469308Y634995D01*
X469380Y635061D01*
X469449Y635130D01*
X469515Y635202D01*
X469578Y635276D01*
X469639Y635353D01*
X469696Y635432D01*
X469750Y635514D01*
X469800Y635598D01*
X469847Y635683D01*
X469891Y635770D01*
X469931Y635859D01*
X469967Y635950D01*
X470000Y636042D01*
X470029Y636135D01*
X470055Y636230D01*
X470076Y636325D01*
X470094Y636421D01*
X470107Y636518D01*
X470117Y636615D01*
X470123Y636712D01*
X470125Y636810D01*
X470125Y643115D01*
X476400Y643115D02*
X476400Y634385D01*
X476400Y638750D02*
X475188Y639478D01*
X475188Y639477D02*
X475125Y639518D01*
X475064Y639561D01*
X475005Y639607D01*
X474949Y639656D01*
X474896Y639708D01*
X474845Y639763D01*
X474797Y639820D01*
X474752Y639880D01*
X474711Y639942D01*
X474672Y640006D01*
X474637Y640072D01*
X474605Y640139D01*
X474577Y640208D01*
X474553Y640279D01*
X474532Y640350D01*
X474515Y640423D01*
X474501Y640496D01*
X474492Y640570D01*
X474486Y640645D01*
X474484Y640719D01*
X474486Y640794D01*
X474492Y640868D01*
X474501Y640942D01*
X474515Y641016D01*
X474532Y641088D01*
X474552Y641160D01*
X474577Y641231D01*
X474605Y641300D01*
X474637Y641367D01*
X474672Y641433D01*
X474710Y641497D01*
X474752Y641559D01*
X474796Y641619D01*
X474844Y641676D01*
X474895Y641731D01*
X474948Y641783D01*
X475004Y641832D01*
X475063Y641879D01*
X475124Y641922D01*
X475187Y641962D01*
X475251Y641999D01*
X475318Y642032D01*
X475387Y642062D01*
X475456Y642088D01*
X475527Y642111D01*
X475600Y642130D01*
X475673Y642145D01*
X475672Y642145D02*
X475791Y642165D01*
X475911Y642181D01*
X476030Y642194D01*
X476151Y642202D01*
X476271Y642207D01*
X476392Y642208D01*
X476512Y642205D01*
X476632Y642199D01*
X476752Y642188D01*
X476872Y642174D01*
X476991Y642156D01*
X477110Y642135D01*
X477227Y642110D01*
X477344Y642081D01*
X477460Y642048D01*
X477575Y642012D01*
X477689Y641972D01*
X477801Y641929D01*
X477912Y641882D01*
X478022Y641831D01*
X478130Y641778D01*
X478236Y641721D01*
X478340Y641660D01*
X476400Y638750D02*
X477613Y638023D01*
X477612Y638023D02*
X477675Y637982D01*
X477736Y637939D01*
X477795Y637893D01*
X477851Y637844D01*
X477904Y637792D01*
X477955Y637737D01*
X478003Y637680D01*
X478048Y637620D01*
X478089Y637558D01*
X478128Y637494D01*
X478163Y637428D01*
X478195Y637361D01*
X478223Y637292D01*
X478247Y637221D01*
X478268Y637150D01*
X478285Y637077D01*
X478299Y637004D01*
X478308Y636930D01*
X478314Y636855D01*
X478316Y636781D01*
X478314Y636706D01*
X478308Y636632D01*
X478299Y636558D01*
X478285Y636484D01*
X478268Y636412D01*
X478248Y636340D01*
X478223Y636269D01*
X478195Y636200D01*
X478163Y636133D01*
X478128Y636067D01*
X478090Y636003D01*
X478048Y635941D01*
X478004Y635881D01*
X477956Y635824D01*
X477905Y635769D01*
X477852Y635717D01*
X477796Y635668D01*
X477737Y635621D01*
X477676Y635578D01*
X477613Y635538D01*
X477549Y635501D01*
X477482Y635468D01*
X477413Y635438D01*
X477344Y635412D01*
X477273Y635389D01*
X477200Y635370D01*
X477127Y635355D01*
X477128Y635355D02*
X477009Y635335D01*
X476889Y635319D01*
X476770Y635306D01*
X476649Y635298D01*
X476529Y635293D01*
X476408Y635292D01*
X476288Y635295D01*
X476168Y635301D01*
X476048Y635312D01*
X475928Y635326D01*
X475809Y635344D01*
X475690Y635365D01*
X475573Y635390D01*
X475456Y635419D01*
X475340Y635452D01*
X475225Y635488D01*
X475111Y635528D01*
X474999Y635571D01*
X474888Y635618D01*
X474778Y635669D01*
X474670Y635722D01*
X474564Y635779D01*
X474460Y635840D01*
X482375Y639235D02*
X485285Y639235D01*
X485372Y639233D01*
X485459Y639227D01*
X485545Y639217D01*
X485631Y639204D01*
X485717Y639186D01*
X485801Y639165D01*
X485884Y639140D01*
X485967Y639111D01*
X486047Y639079D01*
X486127Y639043D01*
X486204Y639003D01*
X486280Y638960D01*
X486354Y638914D01*
X486425Y638864D01*
X486495Y638812D01*
X486561Y638756D01*
X486626Y638697D01*
X486687Y638636D01*
X486746Y638571D01*
X486802Y638505D01*
X486854Y638435D01*
X486904Y638364D01*
X486950Y638290D01*
X486993Y638214D01*
X487033Y638137D01*
X487069Y638057D01*
X487101Y637977D01*
X487130Y637894D01*
X487155Y637811D01*
X487176Y637727D01*
X487194Y637641D01*
X487207Y637555D01*
X487217Y637469D01*
X487223Y637382D01*
X487225Y637295D01*
X487225Y636810D01*
X487223Y636712D01*
X487217Y636615D01*
X487207Y636518D01*
X487194Y636421D01*
X487176Y636325D01*
X487155Y636230D01*
X487129Y636135D01*
X487100Y636042D01*
X487067Y635950D01*
X487031Y635859D01*
X486991Y635770D01*
X486947Y635683D01*
X486900Y635598D01*
X486850Y635514D01*
X486796Y635432D01*
X486739Y635353D01*
X486678Y635276D01*
X486615Y635202D01*
X486549Y635130D01*
X486480Y635061D01*
X486408Y634995D01*
X486334Y634932D01*
X486257Y634871D01*
X486178Y634814D01*
X486096Y634760D01*
X486013Y634710D01*
X485927Y634663D01*
X485840Y634619D01*
X485751Y634579D01*
X485660Y634543D01*
X485568Y634510D01*
X485475Y634481D01*
X485380Y634455D01*
X485285Y634434D01*
X485189Y634416D01*
X485092Y634403D01*
X484995Y634393D01*
X484898Y634387D01*
X484800Y634385D01*
X484702Y634387D01*
X484605Y634393D01*
X484508Y634403D01*
X484411Y634416D01*
X484315Y634434D01*
X484220Y634455D01*
X484125Y634481D01*
X484032Y634510D01*
X483940Y634543D01*
X483849Y634579D01*
X483760Y634619D01*
X483673Y634663D01*
X483588Y634710D01*
X483504Y634760D01*
X483422Y634814D01*
X483343Y634871D01*
X483266Y634932D01*
X483192Y634995D01*
X483120Y635061D01*
X483051Y635130D01*
X482985Y635202D01*
X482922Y635276D01*
X482861Y635353D01*
X482804Y635432D01*
X482750Y635514D01*
X482700Y635598D01*
X482653Y635683D01*
X482609Y635770D01*
X482569Y635859D01*
X482533Y635950D01*
X482500Y636042D01*
X482471Y636135D01*
X482445Y636230D01*
X482424Y636325D01*
X482406Y636421D01*
X482393Y636518D01*
X482383Y636615D01*
X482377Y636712D01*
X482375Y636810D01*
X482375Y639235D01*
X482377Y639357D01*
X482383Y639479D01*
X482392Y639600D01*
X482406Y639721D01*
X482423Y639842D01*
X482444Y639962D01*
X482468Y640081D01*
X482497Y640200D01*
X482529Y640317D01*
X482565Y640434D01*
X482604Y640549D01*
X482647Y640663D01*
X482694Y640776D01*
X482744Y640887D01*
X482798Y640996D01*
X482855Y641104D01*
X482915Y641210D01*
X482979Y641314D01*
X483046Y641416D01*
X483116Y641516D01*
X483189Y641613D01*
X483265Y641708D01*
X483345Y641801D01*
X483427Y641891D01*
X483511Y641979D01*
X483599Y642063D01*
X483689Y642145D01*
X483782Y642225D01*
X483877Y642301D01*
X483974Y642374D01*
X484074Y642444D01*
X484176Y642511D01*
X484280Y642575D01*
X484386Y642635D01*
X484494Y642692D01*
X484603Y642746D01*
X484714Y642796D01*
X484827Y642843D01*
X484941Y642886D01*
X485056Y642925D01*
X485173Y642961D01*
X485290Y642993D01*
X485409Y643022D01*
X485528Y643046D01*
X485648Y643067D01*
X485769Y643084D01*
X485890Y643098D01*
X486011Y643107D01*
X486133Y643113D01*
X486255Y643115D01*
X655775Y643115D02*
X655775Y636810D01*
X655777Y636712D01*
X655783Y636615D01*
X655793Y636518D01*
X655806Y636421D01*
X655824Y636325D01*
X655845Y636230D01*
X655871Y636135D01*
X655900Y636042D01*
X655933Y635950D01*
X655969Y635859D01*
X656009Y635770D01*
X656053Y635683D01*
X656100Y635598D01*
X656150Y635514D01*
X656204Y635432D01*
X656261Y635353D01*
X656322Y635276D01*
X656385Y635202D01*
X656451Y635130D01*
X656520Y635061D01*
X656592Y634995D01*
X656666Y634932D01*
X656743Y634871D01*
X656822Y634814D01*
X656904Y634760D01*
X656988Y634710D01*
X657073Y634663D01*
X657160Y634619D01*
X657249Y634579D01*
X657340Y634543D01*
X657432Y634510D01*
X657525Y634481D01*
X657620Y634455D01*
X657715Y634434D01*
X657811Y634416D01*
X657908Y634403D01*
X658005Y634393D01*
X658102Y634387D01*
X658200Y634385D01*
X658298Y634387D01*
X658395Y634393D01*
X658492Y634403D01*
X658589Y634416D01*
X658685Y634434D01*
X658780Y634455D01*
X658875Y634481D01*
X658968Y634510D01*
X659060Y634543D01*
X659151Y634579D01*
X659240Y634619D01*
X659327Y634663D01*
X659413Y634710D01*
X659496Y634760D01*
X659578Y634814D01*
X659657Y634871D01*
X659734Y634932D01*
X659808Y634995D01*
X659880Y635061D01*
X659949Y635130D01*
X660015Y635202D01*
X660078Y635276D01*
X660139Y635353D01*
X660196Y635432D01*
X660250Y635514D01*
X660300Y635598D01*
X660347Y635683D01*
X660391Y635770D01*
X660431Y635859D01*
X660467Y635950D01*
X660500Y636042D01*
X660529Y636135D01*
X660555Y636230D01*
X660576Y636325D01*
X660594Y636421D01*
X660607Y636518D01*
X660617Y636615D01*
X660623Y636712D01*
X660625Y636810D01*
X660625Y643115D01*
X666900Y643115D02*
X666900Y634385D01*
X666900Y638750D02*
X665688Y639478D01*
X665688Y639477D02*
X665625Y639518D01*
X665564Y639561D01*
X665505Y639607D01*
X665449Y639656D01*
X665396Y639708D01*
X665345Y639763D01*
X665297Y639820D01*
X665252Y639880D01*
X665211Y639942D01*
X665172Y640006D01*
X665137Y640072D01*
X665105Y640139D01*
X665077Y640208D01*
X665053Y640279D01*
X665032Y640350D01*
X665015Y640423D01*
X665001Y640496D01*
X664992Y640570D01*
X664986Y640645D01*
X664984Y640719D01*
X664986Y640794D01*
X664992Y640868D01*
X665001Y640942D01*
X665015Y641016D01*
X665032Y641088D01*
X665052Y641160D01*
X665077Y641231D01*
X665105Y641300D01*
X665137Y641367D01*
X665172Y641433D01*
X665210Y641497D01*
X665252Y641559D01*
X665296Y641619D01*
X665344Y641676D01*
X665395Y641731D01*
X665448Y641783D01*
X665504Y641832D01*
X665563Y641879D01*
X665624Y641922D01*
X665687Y641962D01*
X665751Y641999D01*
X665818Y642032D01*
X665887Y642062D01*
X665956Y642088D01*
X666027Y642111D01*
X666100Y642130D01*
X666173Y642145D01*
X666172Y642145D02*
X666291Y642165D01*
X666411Y642181D01*
X666530Y642194D01*
X666651Y642202D01*
X666771Y642207D01*
X666892Y642208D01*
X667012Y642205D01*
X667132Y642199D01*
X667252Y642188D01*
X667372Y642174D01*
X667491Y642156D01*
X667610Y642135D01*
X667727Y642110D01*
X667844Y642081D01*
X667960Y642048D01*
X668075Y642012D01*
X668189Y641972D01*
X668301Y641929D01*
X668412Y641882D01*
X668522Y641831D01*
X668630Y641778D01*
X668736Y641721D01*
X668840Y641660D01*
X666900Y638750D02*
X668113Y638023D01*
X668112Y638023D02*
X668175Y637982D01*
X668236Y637939D01*
X668295Y637893D01*
X668351Y637844D01*
X668404Y637792D01*
X668455Y637737D01*
X668503Y637680D01*
X668548Y637620D01*
X668589Y637558D01*
X668628Y637494D01*
X668663Y637428D01*
X668695Y637361D01*
X668723Y637292D01*
X668747Y637221D01*
X668768Y637150D01*
X668785Y637077D01*
X668799Y637004D01*
X668808Y636930D01*
X668814Y636855D01*
X668816Y636781D01*
X668814Y636706D01*
X668808Y636632D01*
X668799Y636558D01*
X668785Y636484D01*
X668768Y636412D01*
X668748Y636340D01*
X668723Y636269D01*
X668695Y636200D01*
X668663Y636133D01*
X668628Y636067D01*
X668590Y636003D01*
X668548Y635941D01*
X668504Y635881D01*
X668456Y635824D01*
X668405Y635769D01*
X668352Y635717D01*
X668296Y635668D01*
X668237Y635621D01*
X668176Y635578D01*
X668113Y635538D01*
X668049Y635501D01*
X667982Y635468D01*
X667913Y635438D01*
X667844Y635412D01*
X667773Y635389D01*
X667700Y635370D01*
X667627Y635355D01*
X667628Y635355D02*
X667509Y635335D01*
X667389Y635319D01*
X667270Y635306D01*
X667149Y635298D01*
X667029Y635293D01*
X666908Y635292D01*
X666788Y635295D01*
X666668Y635301D01*
X666548Y635312D01*
X666428Y635326D01*
X666309Y635344D01*
X666190Y635365D01*
X666073Y635390D01*
X665956Y635419D01*
X665840Y635452D01*
X665725Y635488D01*
X665611Y635528D01*
X665499Y635571D01*
X665388Y635618D01*
X665278Y635669D01*
X665170Y635722D01*
X665064Y635779D01*
X664960Y635840D01*
X672875Y642145D02*
X672875Y643115D01*
X677725Y643115D01*
X675300Y634385D01*
X84275Y452615D02*
X84275Y446310D01*
X84277Y446212D01*
X84283Y446115D01*
X84293Y446018D01*
X84306Y445921D01*
X84324Y445825D01*
X84345Y445730D01*
X84371Y445635D01*
X84400Y445542D01*
X84433Y445450D01*
X84469Y445359D01*
X84509Y445270D01*
X84553Y445183D01*
X84600Y445098D01*
X84650Y445014D01*
X84704Y444932D01*
X84761Y444853D01*
X84822Y444776D01*
X84885Y444702D01*
X84951Y444630D01*
X85020Y444561D01*
X85092Y444495D01*
X85166Y444432D01*
X85243Y444371D01*
X85322Y444314D01*
X85404Y444260D01*
X85487Y444210D01*
X85573Y444163D01*
X85660Y444119D01*
X85749Y444079D01*
X85840Y444043D01*
X85932Y444010D01*
X86025Y443981D01*
X86120Y443955D01*
X86215Y443934D01*
X86311Y443916D01*
X86408Y443903D01*
X86505Y443893D01*
X86602Y443887D01*
X86700Y443885D01*
X86798Y443887D01*
X86895Y443893D01*
X86992Y443903D01*
X87089Y443916D01*
X87185Y443934D01*
X87280Y443955D01*
X87375Y443981D01*
X87468Y444010D01*
X87560Y444043D01*
X87651Y444079D01*
X87740Y444119D01*
X87827Y444163D01*
X87912Y444210D01*
X87996Y444260D01*
X88078Y444314D01*
X88157Y444371D01*
X88234Y444432D01*
X88308Y444495D01*
X88380Y444561D01*
X88449Y444630D01*
X88515Y444702D01*
X88578Y444776D01*
X88639Y444853D01*
X88696Y444932D01*
X88750Y445014D01*
X88800Y445098D01*
X88847Y445183D01*
X88891Y445270D01*
X88931Y445359D01*
X88967Y445450D01*
X89000Y445542D01*
X89029Y445635D01*
X89055Y445730D01*
X89076Y445825D01*
X89094Y445921D01*
X89107Y446018D01*
X89117Y446115D01*
X89123Y446212D01*
X89125Y446310D01*
X89125Y452615D01*
X95400Y452615D02*
X95400Y443885D01*
X95400Y448250D02*
X94188Y448978D01*
X94188Y448977D02*
X94125Y449018D01*
X94064Y449061D01*
X94005Y449107D01*
X93949Y449156D01*
X93896Y449208D01*
X93845Y449263D01*
X93797Y449320D01*
X93752Y449380D01*
X93711Y449442D01*
X93672Y449506D01*
X93637Y449572D01*
X93605Y449639D01*
X93577Y449708D01*
X93553Y449779D01*
X93532Y449850D01*
X93515Y449923D01*
X93501Y449996D01*
X93492Y450070D01*
X93486Y450145D01*
X93484Y450219D01*
X93486Y450294D01*
X93492Y450368D01*
X93501Y450442D01*
X93515Y450516D01*
X93532Y450588D01*
X93552Y450660D01*
X93577Y450731D01*
X93605Y450800D01*
X93637Y450867D01*
X93672Y450933D01*
X93710Y450997D01*
X93752Y451059D01*
X93796Y451119D01*
X93844Y451176D01*
X93895Y451231D01*
X93948Y451283D01*
X94004Y451332D01*
X94063Y451379D01*
X94124Y451422D01*
X94187Y451462D01*
X94251Y451499D01*
X94318Y451532D01*
X94387Y451562D01*
X94456Y451588D01*
X94527Y451611D01*
X94600Y451630D01*
X94673Y451645D01*
X94672Y451645D02*
X94791Y451665D01*
X94911Y451681D01*
X95030Y451694D01*
X95151Y451702D01*
X95271Y451707D01*
X95392Y451708D01*
X95512Y451705D01*
X95632Y451699D01*
X95752Y451688D01*
X95872Y451674D01*
X95991Y451656D01*
X96110Y451635D01*
X96227Y451610D01*
X96344Y451581D01*
X96460Y451548D01*
X96575Y451512D01*
X96689Y451472D01*
X96801Y451429D01*
X96912Y451382D01*
X97022Y451331D01*
X97130Y451278D01*
X97236Y451221D01*
X97340Y451160D01*
X95400Y448250D02*
X96613Y447523D01*
X96612Y447523D02*
X96675Y447482D01*
X96736Y447439D01*
X96795Y447393D01*
X96851Y447344D01*
X96904Y447292D01*
X96955Y447237D01*
X97003Y447180D01*
X97048Y447120D01*
X97089Y447058D01*
X97128Y446994D01*
X97163Y446928D01*
X97195Y446861D01*
X97223Y446792D01*
X97247Y446721D01*
X97268Y446650D01*
X97285Y446577D01*
X97299Y446504D01*
X97308Y446430D01*
X97314Y446355D01*
X97316Y446281D01*
X97314Y446206D01*
X97308Y446132D01*
X97299Y446058D01*
X97285Y445984D01*
X97268Y445912D01*
X97248Y445840D01*
X97223Y445769D01*
X97195Y445700D01*
X97163Y445633D01*
X97128Y445567D01*
X97090Y445503D01*
X97048Y445441D01*
X97004Y445381D01*
X96956Y445324D01*
X96905Y445269D01*
X96852Y445217D01*
X96796Y445168D01*
X96737Y445121D01*
X96676Y445078D01*
X96613Y445038D01*
X96549Y445001D01*
X96482Y444968D01*
X96413Y444938D01*
X96344Y444912D01*
X96273Y444889D01*
X96200Y444870D01*
X96127Y444855D01*
X96128Y444855D02*
X96009Y444835D01*
X95889Y444819D01*
X95770Y444806D01*
X95649Y444798D01*
X95529Y444793D01*
X95408Y444792D01*
X95288Y444795D01*
X95168Y444801D01*
X95048Y444812D01*
X94928Y444826D01*
X94809Y444844D01*
X94690Y444865D01*
X94573Y444890D01*
X94456Y444919D01*
X94340Y444952D01*
X94225Y444988D01*
X94111Y445028D01*
X93999Y445071D01*
X93888Y445118D01*
X93778Y445169D01*
X93670Y445222D01*
X93564Y445279D01*
X93460Y445340D01*
X101375Y446310D02*
X101377Y446408D01*
X101383Y446505D01*
X101393Y446602D01*
X101406Y446699D01*
X101424Y446795D01*
X101445Y446890D01*
X101471Y446985D01*
X101500Y447078D01*
X101533Y447170D01*
X101569Y447261D01*
X101609Y447350D01*
X101653Y447437D01*
X101700Y447523D01*
X101750Y447606D01*
X101804Y447688D01*
X101861Y447767D01*
X101922Y447844D01*
X101985Y447918D01*
X102051Y447990D01*
X102120Y448059D01*
X102192Y448125D01*
X102266Y448188D01*
X102343Y448249D01*
X102422Y448306D01*
X102504Y448360D01*
X102588Y448410D01*
X102673Y448457D01*
X102760Y448501D01*
X102849Y448541D01*
X102940Y448577D01*
X103032Y448610D01*
X103125Y448639D01*
X103220Y448665D01*
X103315Y448686D01*
X103411Y448704D01*
X103508Y448717D01*
X103605Y448727D01*
X103702Y448733D01*
X103800Y448735D01*
X103898Y448733D01*
X103995Y448727D01*
X104092Y448717D01*
X104189Y448704D01*
X104285Y448686D01*
X104380Y448665D01*
X104475Y448639D01*
X104568Y448610D01*
X104660Y448577D01*
X104751Y448541D01*
X104840Y448501D01*
X104927Y448457D01*
X105013Y448410D01*
X105096Y448360D01*
X105178Y448306D01*
X105257Y448249D01*
X105334Y448188D01*
X105408Y448125D01*
X105480Y448059D01*
X105549Y447990D01*
X105615Y447918D01*
X105678Y447844D01*
X105739Y447767D01*
X105796Y447688D01*
X105850Y447606D01*
X105900Y447523D01*
X105947Y447437D01*
X105991Y447350D01*
X106031Y447261D01*
X106067Y447170D01*
X106100Y447078D01*
X106129Y446985D01*
X106155Y446890D01*
X106176Y446795D01*
X106194Y446699D01*
X106207Y446602D01*
X106217Y446505D01*
X106223Y446408D01*
X106225Y446310D01*
X106223Y446212D01*
X106217Y446115D01*
X106207Y446018D01*
X106194Y445921D01*
X106176Y445825D01*
X106155Y445730D01*
X106129Y445635D01*
X106100Y445542D01*
X106067Y445450D01*
X106031Y445359D01*
X105991Y445270D01*
X105947Y445183D01*
X105900Y445098D01*
X105850Y445014D01*
X105796Y444932D01*
X105739Y444853D01*
X105678Y444776D01*
X105615Y444702D01*
X105549Y444630D01*
X105480Y444561D01*
X105408Y444495D01*
X105334Y444432D01*
X105257Y444371D01*
X105178Y444314D01*
X105096Y444260D01*
X105012Y444210D01*
X104927Y444163D01*
X104840Y444119D01*
X104751Y444079D01*
X104660Y444043D01*
X104568Y444010D01*
X104475Y443981D01*
X104380Y443955D01*
X104285Y443934D01*
X104189Y443916D01*
X104092Y443903D01*
X103995Y443893D01*
X103898Y443887D01*
X103800Y443885D01*
X103702Y443887D01*
X103605Y443893D01*
X103508Y443903D01*
X103411Y443916D01*
X103315Y443934D01*
X103220Y443955D01*
X103125Y443981D01*
X103032Y444010D01*
X102940Y444043D01*
X102849Y444079D01*
X102760Y444119D01*
X102673Y444163D01*
X102587Y444210D01*
X102504Y444260D01*
X102422Y444314D01*
X102343Y444371D01*
X102266Y444432D01*
X102192Y444495D01*
X102120Y444561D01*
X102051Y444630D01*
X101985Y444702D01*
X101922Y444776D01*
X101861Y444853D01*
X101804Y444932D01*
X101750Y445014D01*
X101700Y445098D01*
X101653Y445183D01*
X101609Y445270D01*
X101569Y445359D01*
X101533Y445450D01*
X101500Y445542D01*
X101471Y445635D01*
X101445Y445730D01*
X101424Y445825D01*
X101406Y445921D01*
X101393Y446018D01*
X101383Y446115D01*
X101377Y446212D01*
X101375Y446310D01*
X101860Y450675D02*
X101862Y450762D01*
X101868Y450849D01*
X101878Y450935D01*
X101891Y451021D01*
X101909Y451107D01*
X101930Y451191D01*
X101955Y451274D01*
X101984Y451357D01*
X102016Y451437D01*
X102052Y451517D01*
X102092Y451594D01*
X102135Y451670D01*
X102181Y451744D01*
X102231Y451815D01*
X102283Y451885D01*
X102339Y451951D01*
X102398Y452016D01*
X102459Y452077D01*
X102524Y452136D01*
X102590Y452192D01*
X102660Y452244D01*
X102731Y452294D01*
X102805Y452340D01*
X102881Y452383D01*
X102958Y452423D01*
X103038Y452459D01*
X103118Y452491D01*
X103201Y452520D01*
X103284Y452545D01*
X103368Y452566D01*
X103454Y452584D01*
X103540Y452597D01*
X103626Y452607D01*
X103713Y452613D01*
X103800Y452615D01*
X103887Y452613D01*
X103974Y452607D01*
X104060Y452597D01*
X104146Y452584D01*
X104232Y452566D01*
X104316Y452545D01*
X104399Y452520D01*
X104482Y452491D01*
X104562Y452459D01*
X104642Y452423D01*
X104719Y452383D01*
X104795Y452340D01*
X104869Y452294D01*
X104940Y452244D01*
X105010Y452192D01*
X105076Y452136D01*
X105141Y452077D01*
X105202Y452016D01*
X105261Y451951D01*
X105317Y451885D01*
X105369Y451815D01*
X105419Y451744D01*
X105465Y451670D01*
X105508Y451594D01*
X105548Y451517D01*
X105584Y451437D01*
X105616Y451357D01*
X105645Y451274D01*
X105670Y451191D01*
X105691Y451107D01*
X105709Y451021D01*
X105722Y450935D01*
X105732Y450849D01*
X105738Y450762D01*
X105740Y450675D01*
X105738Y450588D01*
X105732Y450501D01*
X105722Y450415D01*
X105709Y450329D01*
X105691Y450243D01*
X105670Y450159D01*
X105645Y450076D01*
X105616Y449993D01*
X105584Y449913D01*
X105548Y449833D01*
X105508Y449756D01*
X105465Y449680D01*
X105419Y449606D01*
X105369Y449535D01*
X105317Y449465D01*
X105261Y449399D01*
X105202Y449334D01*
X105141Y449273D01*
X105076Y449214D01*
X105010Y449158D01*
X104940Y449106D01*
X104869Y449056D01*
X104795Y449010D01*
X104719Y448967D01*
X104642Y448927D01*
X104562Y448891D01*
X104482Y448859D01*
X104399Y448830D01*
X104316Y448805D01*
X104232Y448784D01*
X104146Y448766D01*
X104060Y448753D01*
X103974Y448743D01*
X103887Y448737D01*
X103800Y448735D01*
X103713Y448737D01*
X103626Y448743D01*
X103540Y448753D01*
X103454Y448766D01*
X103368Y448784D01*
X103284Y448805D01*
X103201Y448830D01*
X103118Y448859D01*
X103038Y448891D01*
X102958Y448927D01*
X102881Y448967D01*
X102805Y449010D01*
X102731Y449056D01*
X102660Y449106D01*
X102590Y449158D01*
X102524Y449214D01*
X102459Y449273D01*
X102398Y449334D01*
X102339Y449399D01*
X102283Y449465D01*
X102231Y449535D01*
X102181Y449606D01*
X102135Y449680D01*
X102092Y449756D01*
X102052Y449833D01*
X102016Y449913D01*
X101984Y449993D01*
X101955Y450076D01*
X101930Y450159D01*
X101909Y450243D01*
X101891Y450329D01*
X101878Y450415D01*
X101868Y450501D01*
X101862Y450588D01*
X101860Y450675D01*
X274775Y452615D02*
X274775Y446310D01*
X274777Y446212D01*
X274783Y446115D01*
X274793Y446018D01*
X274806Y445921D01*
X274824Y445825D01*
X274845Y445730D01*
X274871Y445635D01*
X274900Y445542D01*
X274933Y445450D01*
X274969Y445359D01*
X275009Y445270D01*
X275053Y445183D01*
X275100Y445098D01*
X275150Y445014D01*
X275204Y444932D01*
X275261Y444853D01*
X275322Y444776D01*
X275385Y444702D01*
X275451Y444630D01*
X275520Y444561D01*
X275592Y444495D01*
X275666Y444432D01*
X275743Y444371D01*
X275822Y444314D01*
X275904Y444260D01*
X275988Y444210D01*
X276073Y444163D01*
X276160Y444119D01*
X276249Y444079D01*
X276340Y444043D01*
X276432Y444010D01*
X276525Y443981D01*
X276620Y443955D01*
X276715Y443934D01*
X276811Y443916D01*
X276908Y443903D01*
X277005Y443893D01*
X277102Y443887D01*
X277200Y443885D01*
X277298Y443887D01*
X277395Y443893D01*
X277492Y443903D01*
X277589Y443916D01*
X277685Y443934D01*
X277780Y443955D01*
X277875Y443981D01*
X277968Y444010D01*
X278060Y444043D01*
X278151Y444079D01*
X278240Y444119D01*
X278327Y444163D01*
X278413Y444210D01*
X278496Y444260D01*
X278578Y444314D01*
X278657Y444371D01*
X278734Y444432D01*
X278808Y444495D01*
X278880Y444561D01*
X278949Y444630D01*
X279015Y444702D01*
X279078Y444776D01*
X279139Y444853D01*
X279196Y444932D01*
X279250Y445014D01*
X279300Y445098D01*
X279347Y445183D01*
X279391Y445270D01*
X279431Y445359D01*
X279467Y445450D01*
X279500Y445542D01*
X279529Y445635D01*
X279555Y445730D01*
X279576Y445825D01*
X279594Y445921D01*
X279607Y446018D01*
X279617Y446115D01*
X279623Y446212D01*
X279625Y446310D01*
X279625Y452615D01*
X285900Y452615D02*
X285900Y443885D01*
X285900Y448250D02*
X284688Y448978D01*
X284688Y448977D02*
X284625Y449018D01*
X284564Y449061D01*
X284505Y449107D01*
X284449Y449156D01*
X284396Y449208D01*
X284345Y449263D01*
X284297Y449320D01*
X284252Y449380D01*
X284211Y449442D01*
X284172Y449506D01*
X284137Y449572D01*
X284105Y449639D01*
X284077Y449708D01*
X284053Y449779D01*
X284032Y449850D01*
X284015Y449923D01*
X284001Y449996D01*
X283992Y450070D01*
X283986Y450145D01*
X283984Y450219D01*
X283986Y450294D01*
X283992Y450368D01*
X284001Y450442D01*
X284015Y450516D01*
X284032Y450588D01*
X284052Y450660D01*
X284077Y450731D01*
X284105Y450800D01*
X284137Y450867D01*
X284172Y450933D01*
X284210Y450997D01*
X284252Y451059D01*
X284296Y451119D01*
X284344Y451176D01*
X284395Y451231D01*
X284448Y451283D01*
X284504Y451332D01*
X284563Y451379D01*
X284624Y451422D01*
X284687Y451462D01*
X284751Y451499D01*
X284818Y451532D01*
X284887Y451562D01*
X284956Y451588D01*
X285027Y451611D01*
X285100Y451630D01*
X285173Y451645D01*
X285172Y451645D02*
X285291Y451665D01*
X285411Y451681D01*
X285530Y451694D01*
X285651Y451702D01*
X285771Y451707D01*
X285892Y451708D01*
X286012Y451705D01*
X286132Y451699D01*
X286252Y451688D01*
X286372Y451674D01*
X286491Y451656D01*
X286610Y451635D01*
X286727Y451610D01*
X286844Y451581D01*
X286960Y451548D01*
X287075Y451512D01*
X287189Y451472D01*
X287301Y451429D01*
X287412Y451382D01*
X287522Y451331D01*
X287630Y451278D01*
X287736Y451221D01*
X287840Y451160D01*
X285900Y448250D02*
X287113Y447523D01*
X287112Y447523D02*
X287175Y447482D01*
X287236Y447439D01*
X287295Y447393D01*
X287351Y447344D01*
X287404Y447292D01*
X287455Y447237D01*
X287503Y447180D01*
X287548Y447120D01*
X287589Y447058D01*
X287628Y446994D01*
X287663Y446928D01*
X287695Y446861D01*
X287723Y446792D01*
X287747Y446721D01*
X287768Y446650D01*
X287785Y446577D01*
X287799Y446504D01*
X287808Y446430D01*
X287814Y446355D01*
X287816Y446281D01*
X287814Y446206D01*
X287808Y446132D01*
X287799Y446058D01*
X287785Y445984D01*
X287768Y445912D01*
X287748Y445840D01*
X287723Y445769D01*
X287695Y445700D01*
X287663Y445633D01*
X287628Y445567D01*
X287590Y445503D01*
X287548Y445441D01*
X287504Y445381D01*
X287456Y445324D01*
X287405Y445269D01*
X287352Y445217D01*
X287296Y445168D01*
X287237Y445121D01*
X287176Y445078D01*
X287113Y445038D01*
X287049Y445001D01*
X286982Y444968D01*
X286913Y444938D01*
X286844Y444912D01*
X286773Y444889D01*
X286700Y444870D01*
X286627Y444855D01*
X286628Y444855D02*
X286509Y444835D01*
X286389Y444819D01*
X286270Y444806D01*
X286149Y444798D01*
X286029Y444793D01*
X285908Y444792D01*
X285788Y444795D01*
X285668Y444801D01*
X285548Y444812D01*
X285428Y444826D01*
X285309Y444844D01*
X285190Y444865D01*
X285073Y444890D01*
X284956Y444919D01*
X284840Y444952D01*
X284725Y444988D01*
X284611Y445028D01*
X284499Y445071D01*
X284388Y445118D01*
X284278Y445169D01*
X284170Y445222D01*
X284064Y445279D01*
X283960Y445340D01*
X293815Y447765D02*
X296725Y447765D01*
X293815Y447765D02*
X293728Y447767D01*
X293641Y447773D01*
X293555Y447783D01*
X293469Y447796D01*
X293383Y447814D01*
X293299Y447835D01*
X293216Y447860D01*
X293133Y447889D01*
X293053Y447921D01*
X292973Y447957D01*
X292896Y447997D01*
X292820Y448040D01*
X292746Y448086D01*
X292675Y448136D01*
X292605Y448188D01*
X292539Y448244D01*
X292474Y448303D01*
X292413Y448364D01*
X292354Y448429D01*
X292298Y448495D01*
X292246Y448565D01*
X292196Y448636D01*
X292150Y448710D01*
X292107Y448786D01*
X292067Y448863D01*
X292031Y448943D01*
X291999Y449023D01*
X291970Y449106D01*
X291945Y449189D01*
X291924Y449273D01*
X291906Y449359D01*
X291893Y449445D01*
X291883Y449531D01*
X291877Y449618D01*
X291875Y449705D01*
X291875Y450190D01*
X291877Y450288D01*
X291883Y450385D01*
X291893Y450482D01*
X291906Y450579D01*
X291924Y450675D01*
X291945Y450770D01*
X291971Y450865D01*
X292000Y450958D01*
X292033Y451050D01*
X292069Y451141D01*
X292109Y451230D01*
X292153Y451317D01*
X292200Y451403D01*
X292250Y451486D01*
X292304Y451568D01*
X292361Y451647D01*
X292422Y451724D01*
X292485Y451798D01*
X292551Y451870D01*
X292620Y451939D01*
X292692Y452005D01*
X292766Y452068D01*
X292843Y452129D01*
X292922Y452186D01*
X293004Y452240D01*
X293088Y452290D01*
X293173Y452337D01*
X293260Y452381D01*
X293349Y452421D01*
X293440Y452457D01*
X293532Y452490D01*
X293625Y452519D01*
X293720Y452545D01*
X293815Y452566D01*
X293911Y452584D01*
X294008Y452597D01*
X294105Y452607D01*
X294202Y452613D01*
X294300Y452615D01*
X294398Y452613D01*
X294495Y452607D01*
X294592Y452597D01*
X294689Y452584D01*
X294785Y452566D01*
X294880Y452545D01*
X294975Y452519D01*
X295068Y452490D01*
X295160Y452457D01*
X295251Y452421D01*
X295340Y452381D01*
X295427Y452337D01*
X295513Y452290D01*
X295596Y452240D01*
X295678Y452186D01*
X295757Y452129D01*
X295834Y452068D01*
X295908Y452005D01*
X295980Y451939D01*
X296049Y451870D01*
X296115Y451798D01*
X296178Y451724D01*
X296239Y451647D01*
X296296Y451568D01*
X296350Y451486D01*
X296400Y451403D01*
X296447Y451317D01*
X296491Y451230D01*
X296531Y451141D01*
X296567Y451050D01*
X296600Y450958D01*
X296629Y450865D01*
X296655Y450770D01*
X296676Y450675D01*
X296694Y450579D01*
X296707Y450482D01*
X296717Y450385D01*
X296723Y450288D01*
X296725Y450190D01*
X296725Y447765D01*
X296723Y447643D01*
X296717Y447521D01*
X296708Y447400D01*
X296694Y447279D01*
X296677Y447158D01*
X296656Y447038D01*
X296632Y446919D01*
X296603Y446800D01*
X296571Y446683D01*
X296535Y446566D01*
X296496Y446451D01*
X296453Y446337D01*
X296406Y446224D01*
X296356Y446113D01*
X296302Y446004D01*
X296245Y445896D01*
X296185Y445790D01*
X296121Y445686D01*
X296054Y445584D01*
X295984Y445484D01*
X295911Y445387D01*
X295835Y445292D01*
X295755Y445199D01*
X295673Y445109D01*
X295589Y445021D01*
X295501Y444937D01*
X295411Y444855D01*
X295318Y444775D01*
X295223Y444699D01*
X295126Y444626D01*
X295026Y444556D01*
X294924Y444489D01*
X294820Y444425D01*
X294714Y444365D01*
X294606Y444308D01*
X294497Y444254D01*
X294386Y444204D01*
X294273Y444157D01*
X294159Y444114D01*
X294044Y444075D01*
X293927Y444039D01*
X293810Y444007D01*
X293691Y443978D01*
X293572Y443954D01*
X293452Y443933D01*
X293331Y443916D01*
X293210Y443902D01*
X293089Y443893D01*
X292967Y443887D01*
X292845Y443885D01*
X460775Y446310D02*
X460775Y452615D01*
X460775Y446310D02*
X460777Y446212D01*
X460783Y446115D01*
X460793Y446018D01*
X460806Y445921D01*
X460824Y445825D01*
X460845Y445730D01*
X460871Y445635D01*
X460900Y445542D01*
X460933Y445450D01*
X460969Y445359D01*
X461009Y445270D01*
X461053Y445183D01*
X461100Y445098D01*
X461150Y445014D01*
X461204Y444932D01*
X461261Y444853D01*
X461322Y444776D01*
X461385Y444702D01*
X461451Y444630D01*
X461520Y444561D01*
X461592Y444495D01*
X461666Y444432D01*
X461743Y444371D01*
X461822Y444314D01*
X461904Y444260D01*
X461988Y444210D01*
X462073Y444163D01*
X462160Y444119D01*
X462249Y444079D01*
X462340Y444043D01*
X462432Y444010D01*
X462525Y443981D01*
X462620Y443955D01*
X462715Y443934D01*
X462811Y443916D01*
X462908Y443903D01*
X463005Y443893D01*
X463102Y443887D01*
X463200Y443885D01*
X463298Y443887D01*
X463395Y443893D01*
X463492Y443903D01*
X463589Y443916D01*
X463685Y443934D01*
X463780Y443955D01*
X463875Y443981D01*
X463968Y444010D01*
X464060Y444043D01*
X464151Y444079D01*
X464240Y444119D01*
X464327Y444163D01*
X464413Y444210D01*
X464496Y444260D01*
X464578Y444314D01*
X464657Y444371D01*
X464734Y444432D01*
X464808Y444495D01*
X464880Y444561D01*
X464949Y444630D01*
X465015Y444702D01*
X465078Y444776D01*
X465139Y444853D01*
X465196Y444932D01*
X465250Y445014D01*
X465300Y445098D01*
X465347Y445183D01*
X465391Y445270D01*
X465431Y445359D01*
X465467Y445450D01*
X465500Y445542D01*
X465529Y445635D01*
X465555Y445730D01*
X465576Y445825D01*
X465594Y445921D01*
X465607Y446018D01*
X465617Y446115D01*
X465623Y446212D01*
X465625Y446310D01*
X465625Y452615D01*
X471900Y452615D02*
X471900Y443885D01*
X471900Y448250D02*
X470688Y448978D01*
X470688Y448977D02*
X470625Y449018D01*
X470564Y449061D01*
X470505Y449107D01*
X470449Y449156D01*
X470396Y449208D01*
X470345Y449263D01*
X470297Y449320D01*
X470252Y449380D01*
X470211Y449442D01*
X470172Y449506D01*
X470137Y449572D01*
X470105Y449639D01*
X470077Y449708D01*
X470053Y449779D01*
X470032Y449850D01*
X470015Y449923D01*
X470001Y449996D01*
X469992Y450070D01*
X469986Y450145D01*
X469984Y450219D01*
X469986Y450294D01*
X469992Y450368D01*
X470001Y450442D01*
X470015Y450516D01*
X470032Y450588D01*
X470052Y450660D01*
X470077Y450731D01*
X470105Y450800D01*
X470137Y450867D01*
X470172Y450933D01*
X470210Y450997D01*
X470252Y451059D01*
X470296Y451119D01*
X470344Y451176D01*
X470395Y451231D01*
X470448Y451283D01*
X470504Y451332D01*
X470563Y451379D01*
X470624Y451422D01*
X470687Y451462D01*
X470751Y451499D01*
X470818Y451532D01*
X470887Y451562D01*
X470956Y451588D01*
X471027Y451611D01*
X471100Y451630D01*
X471173Y451645D01*
X471172Y451645D02*
X471291Y451665D01*
X471411Y451681D01*
X471530Y451694D01*
X471651Y451702D01*
X471771Y451707D01*
X471892Y451708D01*
X472012Y451705D01*
X472132Y451699D01*
X472252Y451688D01*
X472372Y451674D01*
X472491Y451656D01*
X472610Y451635D01*
X472727Y451610D01*
X472844Y451581D01*
X472960Y451548D01*
X473075Y451512D01*
X473189Y451472D01*
X473301Y451429D01*
X473412Y451382D01*
X473522Y451331D01*
X473630Y451278D01*
X473736Y451221D01*
X473840Y451160D01*
X471900Y448250D02*
X473113Y447523D01*
X473112Y447523D02*
X473175Y447482D01*
X473236Y447439D01*
X473295Y447393D01*
X473351Y447344D01*
X473404Y447292D01*
X473455Y447237D01*
X473503Y447180D01*
X473548Y447120D01*
X473589Y447058D01*
X473628Y446994D01*
X473663Y446928D01*
X473695Y446861D01*
X473723Y446792D01*
X473747Y446721D01*
X473768Y446650D01*
X473785Y446577D01*
X473799Y446504D01*
X473808Y446430D01*
X473814Y446355D01*
X473816Y446281D01*
X473814Y446206D01*
X473808Y446132D01*
X473799Y446058D01*
X473785Y445984D01*
X473768Y445912D01*
X473748Y445840D01*
X473723Y445769D01*
X473695Y445700D01*
X473663Y445633D01*
X473628Y445567D01*
X473590Y445503D01*
X473548Y445441D01*
X473504Y445381D01*
X473456Y445324D01*
X473405Y445269D01*
X473352Y445217D01*
X473296Y445168D01*
X473237Y445121D01*
X473176Y445078D01*
X473113Y445038D01*
X473049Y445001D01*
X472982Y444968D01*
X472913Y444938D01*
X472844Y444912D01*
X472773Y444889D01*
X472700Y444870D01*
X472627Y444855D01*
X472628Y444855D02*
X472509Y444835D01*
X472389Y444819D01*
X472270Y444806D01*
X472149Y444798D01*
X472029Y444793D01*
X471908Y444792D01*
X471788Y444795D01*
X471668Y444801D01*
X471548Y444812D01*
X471428Y444826D01*
X471309Y444844D01*
X471190Y444865D01*
X471073Y444890D01*
X470956Y444919D01*
X470840Y444952D01*
X470725Y444988D01*
X470611Y445028D01*
X470499Y445071D01*
X470388Y445118D01*
X470278Y445169D01*
X470170Y445222D01*
X470064Y445279D01*
X469960Y445340D01*
X477875Y450675D02*
X480300Y452615D01*
X480300Y443885D01*
X477875Y443885D02*
X482725Y443885D01*
X486875Y448250D02*
X486877Y448422D01*
X486883Y448593D01*
X486893Y448765D01*
X486908Y448936D01*
X486926Y449107D01*
X486949Y449277D01*
X486975Y449447D01*
X487006Y449616D01*
X487040Y449784D01*
X487079Y449951D01*
X487122Y450118D01*
X487168Y450283D01*
X487219Y450447D01*
X487273Y450610D01*
X487331Y450771D01*
X487393Y450932D01*
X487459Y451090D01*
X487529Y451247D01*
X487602Y451402D01*
X487602Y451403D02*
X487631Y451481D01*
X487663Y451557D01*
X487698Y451631D01*
X487737Y451704D01*
X487779Y451775D01*
X487825Y451843D01*
X487873Y451910D01*
X487925Y451974D01*
X487979Y452036D01*
X488036Y452096D01*
X488096Y452152D01*
X488159Y452206D01*
X488223Y452257D01*
X488291Y452305D01*
X488360Y452350D01*
X488431Y452392D01*
X488504Y452430D01*
X488579Y452465D01*
X488655Y452496D01*
X488733Y452524D01*
X488811Y452548D01*
X488891Y452569D01*
X488972Y452586D01*
X489053Y452599D01*
X489135Y452608D01*
X489218Y452614D01*
X489300Y452616D01*
X489382Y452614D01*
X489465Y452608D01*
X489547Y452599D01*
X489628Y452586D01*
X489709Y452569D01*
X489789Y452548D01*
X489867Y452524D01*
X489945Y452496D01*
X490021Y452465D01*
X490096Y452430D01*
X490169Y452392D01*
X490240Y452350D01*
X490309Y452305D01*
X490377Y452257D01*
X490441Y452206D01*
X490504Y452152D01*
X490564Y452096D01*
X490621Y452036D01*
X490675Y451974D01*
X490727Y451910D01*
X490775Y451843D01*
X490821Y451775D01*
X490863Y451704D01*
X490902Y451631D01*
X490937Y451557D01*
X490969Y451481D01*
X490998Y451403D01*
X490998Y451402D02*
X491071Y451247D01*
X491141Y451090D01*
X491207Y450932D01*
X491269Y450771D01*
X491327Y450610D01*
X491381Y450447D01*
X491432Y450283D01*
X491478Y450118D01*
X491521Y449951D01*
X491560Y449784D01*
X491594Y449616D01*
X491625Y449447D01*
X491651Y449277D01*
X491674Y449107D01*
X491692Y448936D01*
X491707Y448765D01*
X491717Y448593D01*
X491723Y448422D01*
X491725Y448250D01*
X486875Y448250D02*
X486877Y448078D01*
X486883Y447907D01*
X486893Y447735D01*
X486908Y447564D01*
X486926Y447393D01*
X486949Y447223D01*
X486975Y447053D01*
X487006Y446884D01*
X487040Y446716D01*
X487079Y446549D01*
X487122Y446382D01*
X487168Y446217D01*
X487219Y446053D01*
X487273Y445890D01*
X487331Y445729D01*
X487393Y445568D01*
X487459Y445410D01*
X487529Y445253D01*
X487602Y445098D01*
X487631Y445020D01*
X487663Y444944D01*
X487698Y444870D01*
X487737Y444797D01*
X487779Y444726D01*
X487825Y444658D01*
X487873Y444591D01*
X487925Y444527D01*
X487979Y444465D01*
X488036Y444405D01*
X488096Y444349D01*
X488159Y444295D01*
X488223Y444244D01*
X488291Y444196D01*
X488360Y444151D01*
X488431Y444109D01*
X488504Y444071D01*
X488579Y444036D01*
X488655Y444005D01*
X488733Y443977D01*
X488811Y443953D01*
X488891Y443932D01*
X488972Y443915D01*
X489053Y443902D01*
X489135Y443893D01*
X489218Y443887D01*
X489300Y443885D01*
X490998Y445098D02*
X491071Y445253D01*
X491141Y445410D01*
X491207Y445568D01*
X491269Y445729D01*
X491327Y445890D01*
X491381Y446053D01*
X491432Y446217D01*
X491478Y446382D01*
X491521Y446549D01*
X491560Y446716D01*
X491594Y446884D01*
X491625Y447053D01*
X491651Y447223D01*
X491674Y447393D01*
X491692Y447564D01*
X491707Y447735D01*
X491717Y447907D01*
X491723Y448078D01*
X491725Y448250D01*
X490998Y445098D02*
X490969Y445020D01*
X490937Y444944D01*
X490902Y444870D01*
X490863Y444797D01*
X490821Y444726D01*
X490775Y444658D01*
X490727Y444591D01*
X490675Y444527D01*
X490621Y444465D01*
X490564Y444405D01*
X490504Y444349D01*
X490441Y444295D01*
X490377Y444244D01*
X490309Y444196D01*
X490240Y444151D01*
X490169Y444109D01*
X490096Y444071D01*
X490021Y444036D01*
X489945Y444005D01*
X489867Y443977D01*
X489789Y443953D01*
X489709Y443932D01*
X489628Y443915D01*
X489547Y443902D01*
X489465Y443893D01*
X489382Y443887D01*
X489300Y443885D01*
X487360Y445825D02*
X491240Y450675D01*
X651275Y452615D02*
X651275Y446310D01*
X651277Y446212D01*
X651283Y446115D01*
X651293Y446018D01*
X651306Y445921D01*
X651324Y445825D01*
X651345Y445730D01*
X651371Y445635D01*
X651400Y445542D01*
X651433Y445450D01*
X651469Y445359D01*
X651509Y445270D01*
X651553Y445183D01*
X651600Y445098D01*
X651650Y445014D01*
X651704Y444932D01*
X651761Y444853D01*
X651822Y444776D01*
X651885Y444702D01*
X651951Y444630D01*
X652020Y444561D01*
X652092Y444495D01*
X652166Y444432D01*
X652243Y444371D01*
X652322Y444314D01*
X652404Y444260D01*
X652488Y444210D01*
X652573Y444163D01*
X652660Y444119D01*
X652749Y444079D01*
X652840Y444043D01*
X652932Y444010D01*
X653025Y443981D01*
X653120Y443955D01*
X653215Y443934D01*
X653311Y443916D01*
X653408Y443903D01*
X653505Y443893D01*
X653602Y443887D01*
X653700Y443885D01*
X653798Y443887D01*
X653895Y443893D01*
X653992Y443903D01*
X654089Y443916D01*
X654185Y443934D01*
X654280Y443955D01*
X654375Y443981D01*
X654468Y444010D01*
X654560Y444043D01*
X654651Y444079D01*
X654740Y444119D01*
X654827Y444163D01*
X654913Y444210D01*
X654996Y444260D01*
X655078Y444314D01*
X655157Y444371D01*
X655234Y444432D01*
X655308Y444495D01*
X655380Y444561D01*
X655449Y444630D01*
X655515Y444702D01*
X655578Y444776D01*
X655639Y444853D01*
X655696Y444932D01*
X655750Y445014D01*
X655800Y445098D01*
X655847Y445183D01*
X655891Y445270D01*
X655931Y445359D01*
X655967Y445450D01*
X656000Y445542D01*
X656029Y445635D01*
X656055Y445730D01*
X656076Y445825D01*
X656094Y445921D01*
X656107Y446018D01*
X656117Y446115D01*
X656123Y446212D01*
X656125Y446310D01*
X656125Y452615D01*
X662400Y452615D02*
X662400Y443885D01*
X662400Y448250D02*
X661188Y448978D01*
X661188Y448977D02*
X661125Y449018D01*
X661064Y449061D01*
X661005Y449107D01*
X660949Y449156D01*
X660896Y449208D01*
X660845Y449263D01*
X660797Y449320D01*
X660752Y449380D01*
X660711Y449442D01*
X660672Y449506D01*
X660637Y449572D01*
X660605Y449639D01*
X660577Y449708D01*
X660553Y449779D01*
X660532Y449850D01*
X660515Y449923D01*
X660501Y449996D01*
X660492Y450070D01*
X660486Y450145D01*
X660484Y450219D01*
X660486Y450294D01*
X660492Y450368D01*
X660501Y450442D01*
X660515Y450516D01*
X660532Y450588D01*
X660552Y450660D01*
X660577Y450731D01*
X660605Y450800D01*
X660637Y450867D01*
X660672Y450933D01*
X660710Y450997D01*
X660752Y451059D01*
X660796Y451119D01*
X660844Y451176D01*
X660895Y451231D01*
X660948Y451283D01*
X661004Y451332D01*
X661063Y451379D01*
X661124Y451422D01*
X661187Y451462D01*
X661251Y451499D01*
X661318Y451532D01*
X661387Y451562D01*
X661456Y451588D01*
X661527Y451611D01*
X661600Y451630D01*
X661673Y451645D01*
X661672Y451645D02*
X661791Y451665D01*
X661911Y451681D01*
X662030Y451694D01*
X662151Y451702D01*
X662271Y451707D01*
X662392Y451708D01*
X662512Y451705D01*
X662632Y451699D01*
X662752Y451688D01*
X662872Y451674D01*
X662991Y451656D01*
X663110Y451635D01*
X663227Y451610D01*
X663344Y451581D01*
X663460Y451548D01*
X663575Y451512D01*
X663689Y451472D01*
X663801Y451429D01*
X663912Y451382D01*
X664022Y451331D01*
X664130Y451278D01*
X664236Y451221D01*
X664340Y451160D01*
X662400Y448250D02*
X663613Y447523D01*
X663612Y447523D02*
X663675Y447482D01*
X663736Y447439D01*
X663795Y447393D01*
X663851Y447344D01*
X663904Y447292D01*
X663955Y447237D01*
X664003Y447180D01*
X664048Y447120D01*
X664089Y447058D01*
X664128Y446994D01*
X664163Y446928D01*
X664195Y446861D01*
X664223Y446792D01*
X664247Y446721D01*
X664268Y446650D01*
X664285Y446577D01*
X664299Y446504D01*
X664308Y446430D01*
X664314Y446355D01*
X664316Y446281D01*
X664314Y446206D01*
X664308Y446132D01*
X664299Y446058D01*
X664285Y445984D01*
X664268Y445912D01*
X664248Y445840D01*
X664223Y445769D01*
X664195Y445700D01*
X664163Y445633D01*
X664128Y445567D01*
X664090Y445503D01*
X664048Y445441D01*
X664004Y445381D01*
X663956Y445324D01*
X663905Y445269D01*
X663852Y445217D01*
X663796Y445168D01*
X663737Y445121D01*
X663676Y445078D01*
X663613Y445038D01*
X663549Y445001D01*
X663482Y444968D01*
X663413Y444938D01*
X663344Y444912D01*
X663273Y444889D01*
X663200Y444870D01*
X663127Y444855D01*
X663128Y444855D02*
X663009Y444835D01*
X662889Y444819D01*
X662770Y444806D01*
X662649Y444798D01*
X662529Y444793D01*
X662408Y444792D01*
X662288Y444795D01*
X662168Y444801D01*
X662048Y444812D01*
X661928Y444826D01*
X661809Y444844D01*
X661690Y444865D01*
X661573Y444890D01*
X661456Y444919D01*
X661340Y444952D01*
X661225Y444988D01*
X661111Y445028D01*
X660999Y445071D01*
X660888Y445118D01*
X660778Y445169D01*
X660670Y445222D01*
X660564Y445279D01*
X660460Y445340D01*
X668375Y450675D02*
X670800Y452615D01*
X670800Y443885D01*
X668375Y443885D02*
X673225Y443885D01*
X677375Y450675D02*
X679800Y452615D01*
X679800Y443885D01*
X677375Y443885D02*
X682225Y443885D01*
X79775Y262115D02*
X79775Y255810D01*
X79777Y255712D01*
X79783Y255615D01*
X79793Y255518D01*
X79806Y255421D01*
X79824Y255325D01*
X79845Y255230D01*
X79871Y255135D01*
X79900Y255042D01*
X79933Y254950D01*
X79969Y254859D01*
X80009Y254770D01*
X80053Y254683D01*
X80100Y254598D01*
X80150Y254514D01*
X80204Y254432D01*
X80261Y254353D01*
X80322Y254276D01*
X80385Y254202D01*
X80451Y254130D01*
X80520Y254061D01*
X80592Y253995D01*
X80666Y253932D01*
X80743Y253871D01*
X80822Y253814D01*
X80904Y253760D01*
X80987Y253710D01*
X81073Y253663D01*
X81160Y253619D01*
X81249Y253579D01*
X81340Y253543D01*
X81432Y253510D01*
X81525Y253481D01*
X81620Y253455D01*
X81715Y253434D01*
X81811Y253416D01*
X81908Y253403D01*
X82005Y253393D01*
X82102Y253387D01*
X82200Y253385D01*
X82298Y253387D01*
X82395Y253393D01*
X82492Y253403D01*
X82589Y253416D01*
X82685Y253434D01*
X82780Y253455D01*
X82875Y253481D01*
X82968Y253510D01*
X83060Y253543D01*
X83151Y253579D01*
X83240Y253619D01*
X83327Y253663D01*
X83412Y253710D01*
X83496Y253760D01*
X83578Y253814D01*
X83657Y253871D01*
X83734Y253932D01*
X83808Y253995D01*
X83880Y254061D01*
X83949Y254130D01*
X84015Y254202D01*
X84078Y254276D01*
X84139Y254353D01*
X84196Y254432D01*
X84250Y254514D01*
X84300Y254597D01*
X84347Y254683D01*
X84391Y254770D01*
X84431Y254859D01*
X84467Y254950D01*
X84500Y255042D01*
X84529Y255135D01*
X84555Y255230D01*
X84576Y255325D01*
X84594Y255421D01*
X84607Y255518D01*
X84617Y255615D01*
X84623Y255712D01*
X84625Y255810D01*
X84625Y262115D01*
X90900Y262115D02*
X90900Y253385D01*
X90900Y257750D02*
X89688Y258478D01*
X89688Y258477D02*
X89625Y258518D01*
X89564Y258561D01*
X89505Y258607D01*
X89449Y258656D01*
X89396Y258708D01*
X89345Y258763D01*
X89297Y258820D01*
X89252Y258880D01*
X89211Y258942D01*
X89172Y259006D01*
X89137Y259072D01*
X89105Y259139D01*
X89077Y259208D01*
X89053Y259279D01*
X89032Y259350D01*
X89015Y259423D01*
X89001Y259496D01*
X88992Y259570D01*
X88986Y259645D01*
X88984Y259719D01*
X88986Y259794D01*
X88992Y259868D01*
X89001Y259942D01*
X89015Y260016D01*
X89032Y260088D01*
X89052Y260160D01*
X89077Y260231D01*
X89105Y260300D01*
X89137Y260367D01*
X89172Y260433D01*
X89210Y260497D01*
X89252Y260559D01*
X89296Y260619D01*
X89344Y260676D01*
X89395Y260731D01*
X89448Y260783D01*
X89504Y260832D01*
X89563Y260879D01*
X89624Y260922D01*
X89687Y260962D01*
X89751Y260999D01*
X89818Y261032D01*
X89887Y261062D01*
X89956Y261088D01*
X90027Y261111D01*
X90100Y261130D01*
X90173Y261145D01*
X90172Y261145D02*
X90291Y261165D01*
X90411Y261181D01*
X90530Y261194D01*
X90651Y261202D01*
X90771Y261207D01*
X90892Y261208D01*
X91012Y261205D01*
X91132Y261199D01*
X91252Y261188D01*
X91372Y261174D01*
X91491Y261156D01*
X91610Y261135D01*
X91727Y261110D01*
X91844Y261081D01*
X91960Y261048D01*
X92075Y261012D01*
X92189Y260972D01*
X92301Y260929D01*
X92412Y260882D01*
X92522Y260831D01*
X92630Y260778D01*
X92736Y260721D01*
X92840Y260660D01*
X90900Y257750D02*
X92113Y257023D01*
X92112Y257023D02*
X92175Y256982D01*
X92236Y256939D01*
X92295Y256893D01*
X92351Y256844D01*
X92404Y256792D01*
X92455Y256737D01*
X92503Y256680D01*
X92548Y256620D01*
X92589Y256558D01*
X92628Y256494D01*
X92663Y256428D01*
X92695Y256361D01*
X92723Y256292D01*
X92747Y256221D01*
X92768Y256150D01*
X92785Y256077D01*
X92799Y256004D01*
X92808Y255930D01*
X92814Y255855D01*
X92816Y255781D01*
X92814Y255706D01*
X92808Y255632D01*
X92799Y255558D01*
X92785Y255484D01*
X92768Y255412D01*
X92748Y255340D01*
X92723Y255269D01*
X92695Y255200D01*
X92663Y255133D01*
X92628Y255067D01*
X92590Y255003D01*
X92548Y254941D01*
X92504Y254881D01*
X92456Y254824D01*
X92405Y254769D01*
X92352Y254717D01*
X92296Y254668D01*
X92237Y254621D01*
X92176Y254578D01*
X92113Y254538D01*
X92049Y254501D01*
X91982Y254468D01*
X91913Y254438D01*
X91844Y254412D01*
X91773Y254389D01*
X91700Y254370D01*
X91627Y254355D01*
X91628Y254355D02*
X91509Y254335D01*
X91389Y254319D01*
X91270Y254306D01*
X91149Y254298D01*
X91029Y254293D01*
X90908Y254292D01*
X90788Y254295D01*
X90668Y254301D01*
X90548Y254312D01*
X90428Y254326D01*
X90309Y254344D01*
X90190Y254365D01*
X90073Y254390D01*
X89956Y254419D01*
X89840Y254452D01*
X89725Y254488D01*
X89611Y254528D01*
X89499Y254571D01*
X89388Y254618D01*
X89278Y254669D01*
X89170Y254722D01*
X89064Y254779D01*
X88960Y254840D01*
X96875Y260175D02*
X99300Y262115D01*
X99300Y253385D01*
X96875Y253385D02*
X101725Y253385D01*
X108543Y262116D02*
X108636Y262114D01*
X108728Y262108D01*
X108820Y262098D01*
X108912Y262085D01*
X109003Y262067D01*
X109093Y262046D01*
X109182Y262020D01*
X109270Y261991D01*
X109357Y261959D01*
X109442Y261922D01*
X109526Y261882D01*
X109608Y261839D01*
X109688Y261792D01*
X109765Y261742D01*
X109841Y261688D01*
X109914Y261631D01*
X109985Y261572D01*
X110054Y261509D01*
X110119Y261444D01*
X110182Y261375D01*
X110241Y261304D01*
X110298Y261231D01*
X110352Y261155D01*
X110402Y261078D01*
X110449Y260998D01*
X110492Y260916D01*
X110532Y260832D01*
X110569Y260747D01*
X110601Y260660D01*
X110630Y260572D01*
X110656Y260483D01*
X110677Y260393D01*
X110695Y260302D01*
X110708Y260210D01*
X110718Y260118D01*
X110724Y260026D01*
X110726Y259933D01*
X108543Y262115D02*
X108439Y262113D01*
X108336Y262107D01*
X108232Y262098D01*
X108130Y262084D01*
X108027Y262067D01*
X107926Y262046D01*
X107825Y262022D01*
X107725Y261993D01*
X107627Y261961D01*
X107529Y261925D01*
X107433Y261886D01*
X107339Y261843D01*
X107246Y261797D01*
X107155Y261747D01*
X107066Y261694D01*
X106979Y261638D01*
X106894Y261579D01*
X106811Y261516D01*
X106731Y261451D01*
X106653Y261382D01*
X106577Y261311D01*
X106505Y261237D01*
X106435Y261160D01*
X106368Y261081D01*
X106304Y260999D01*
X106243Y260915D01*
X106186Y260829D01*
X106131Y260741D01*
X106080Y260651D01*
X106032Y260559D01*
X105987Y260465D01*
X105947Y260370D01*
X105909Y260273D01*
X105875Y260175D01*
X109998Y258236D02*
X110065Y258302D01*
X110130Y258372D01*
X110191Y258444D01*
X110250Y258518D01*
X110306Y258595D01*
X110358Y258674D01*
X110408Y258755D01*
X110454Y258838D01*
X110496Y258923D01*
X110535Y259010D01*
X110571Y259098D01*
X110603Y259187D01*
X110631Y259278D01*
X110656Y259369D01*
X110677Y259462D01*
X110694Y259555D01*
X110708Y259649D01*
X110717Y259743D01*
X110723Y259838D01*
X110725Y259933D01*
X109998Y258235D02*
X105875Y253385D01*
X110725Y253385D01*
X270275Y255810D02*
X270275Y262115D01*
X270275Y255810D02*
X270277Y255712D01*
X270283Y255615D01*
X270293Y255518D01*
X270306Y255421D01*
X270324Y255325D01*
X270345Y255230D01*
X270371Y255135D01*
X270400Y255042D01*
X270433Y254950D01*
X270469Y254859D01*
X270509Y254770D01*
X270553Y254683D01*
X270600Y254598D01*
X270650Y254514D01*
X270704Y254432D01*
X270761Y254353D01*
X270822Y254276D01*
X270885Y254202D01*
X270951Y254130D01*
X271020Y254061D01*
X271092Y253995D01*
X271166Y253932D01*
X271243Y253871D01*
X271322Y253814D01*
X271404Y253760D01*
X271488Y253710D01*
X271573Y253663D01*
X271660Y253619D01*
X271749Y253579D01*
X271840Y253543D01*
X271932Y253510D01*
X272025Y253481D01*
X272120Y253455D01*
X272215Y253434D01*
X272311Y253416D01*
X272408Y253403D01*
X272505Y253393D01*
X272602Y253387D01*
X272700Y253385D01*
X272798Y253387D01*
X272895Y253393D01*
X272992Y253403D01*
X273089Y253416D01*
X273185Y253434D01*
X273280Y253455D01*
X273375Y253481D01*
X273468Y253510D01*
X273560Y253543D01*
X273651Y253579D01*
X273740Y253619D01*
X273827Y253663D01*
X273913Y253710D01*
X273996Y253760D01*
X274078Y253814D01*
X274157Y253871D01*
X274234Y253932D01*
X274308Y253995D01*
X274380Y254061D01*
X274449Y254130D01*
X274515Y254202D01*
X274578Y254276D01*
X274639Y254353D01*
X274696Y254432D01*
X274750Y254514D01*
X274800Y254597D01*
X274847Y254683D01*
X274891Y254770D01*
X274931Y254859D01*
X274967Y254950D01*
X275000Y255042D01*
X275029Y255135D01*
X275055Y255230D01*
X275076Y255325D01*
X275094Y255421D01*
X275107Y255518D01*
X275117Y255615D01*
X275123Y255712D01*
X275125Y255810D01*
X275125Y262115D01*
X281400Y262115D02*
X281400Y253385D01*
X281400Y257750D02*
X280188Y258478D01*
X280188Y258477D02*
X280125Y258518D01*
X280064Y258561D01*
X280005Y258607D01*
X279949Y258656D01*
X279896Y258708D01*
X279845Y258763D01*
X279797Y258820D01*
X279752Y258880D01*
X279711Y258942D01*
X279672Y259006D01*
X279637Y259072D01*
X279605Y259139D01*
X279577Y259208D01*
X279553Y259279D01*
X279532Y259350D01*
X279515Y259423D01*
X279501Y259496D01*
X279492Y259570D01*
X279486Y259645D01*
X279484Y259719D01*
X279486Y259794D01*
X279492Y259868D01*
X279501Y259942D01*
X279515Y260016D01*
X279532Y260088D01*
X279552Y260160D01*
X279577Y260231D01*
X279605Y260300D01*
X279637Y260367D01*
X279672Y260433D01*
X279710Y260497D01*
X279752Y260559D01*
X279796Y260619D01*
X279844Y260676D01*
X279895Y260731D01*
X279948Y260783D01*
X280004Y260832D01*
X280063Y260879D01*
X280124Y260922D01*
X280187Y260962D01*
X280251Y260999D01*
X280318Y261032D01*
X280387Y261062D01*
X280456Y261088D01*
X280527Y261111D01*
X280600Y261130D01*
X280673Y261145D01*
X280672Y261145D02*
X280791Y261165D01*
X280911Y261181D01*
X281030Y261194D01*
X281151Y261202D01*
X281271Y261207D01*
X281392Y261208D01*
X281512Y261205D01*
X281632Y261199D01*
X281752Y261188D01*
X281872Y261174D01*
X281991Y261156D01*
X282110Y261135D01*
X282227Y261110D01*
X282344Y261081D01*
X282460Y261048D01*
X282575Y261012D01*
X282689Y260972D01*
X282801Y260929D01*
X282912Y260882D01*
X283022Y260831D01*
X283130Y260778D01*
X283236Y260721D01*
X283340Y260660D01*
X281400Y257750D02*
X282613Y257023D01*
X282612Y257023D02*
X282675Y256982D01*
X282736Y256939D01*
X282795Y256893D01*
X282851Y256844D01*
X282904Y256792D01*
X282955Y256737D01*
X283003Y256680D01*
X283048Y256620D01*
X283089Y256558D01*
X283128Y256494D01*
X283163Y256428D01*
X283195Y256361D01*
X283223Y256292D01*
X283247Y256221D01*
X283268Y256150D01*
X283285Y256077D01*
X283299Y256004D01*
X283308Y255930D01*
X283314Y255855D01*
X283316Y255781D01*
X283314Y255706D01*
X283308Y255632D01*
X283299Y255558D01*
X283285Y255484D01*
X283268Y255412D01*
X283248Y255340D01*
X283223Y255269D01*
X283195Y255200D01*
X283163Y255133D01*
X283128Y255067D01*
X283090Y255003D01*
X283048Y254941D01*
X283004Y254881D01*
X282956Y254824D01*
X282905Y254769D01*
X282852Y254717D01*
X282796Y254668D01*
X282737Y254621D01*
X282676Y254578D01*
X282613Y254538D01*
X282549Y254501D01*
X282482Y254468D01*
X282413Y254438D01*
X282344Y254412D01*
X282273Y254389D01*
X282200Y254370D01*
X282127Y254355D01*
X282128Y254355D02*
X282009Y254335D01*
X281889Y254319D01*
X281770Y254306D01*
X281649Y254298D01*
X281529Y254293D01*
X281408Y254292D01*
X281288Y254295D01*
X281168Y254301D01*
X281048Y254312D01*
X280928Y254326D01*
X280809Y254344D01*
X280690Y254365D01*
X280573Y254390D01*
X280456Y254419D01*
X280340Y254452D01*
X280225Y254488D01*
X280111Y254528D01*
X279999Y254571D01*
X279888Y254618D01*
X279778Y254669D01*
X279670Y254722D01*
X279564Y254779D01*
X279460Y254840D01*
X287375Y260175D02*
X289800Y262115D01*
X289800Y253385D01*
X287375Y253385D02*
X292225Y253385D01*
X296375Y253385D02*
X298800Y253385D01*
X298898Y253387D01*
X298995Y253393D01*
X299092Y253403D01*
X299189Y253416D01*
X299285Y253434D01*
X299380Y253455D01*
X299475Y253481D01*
X299568Y253510D01*
X299660Y253543D01*
X299751Y253579D01*
X299840Y253619D01*
X299927Y253663D01*
X300013Y253710D01*
X300096Y253760D01*
X300178Y253814D01*
X300257Y253871D01*
X300334Y253932D01*
X300408Y253995D01*
X300480Y254061D01*
X300549Y254130D01*
X300615Y254202D01*
X300678Y254276D01*
X300739Y254353D01*
X300796Y254432D01*
X300850Y254514D01*
X300900Y254598D01*
X300947Y254683D01*
X300991Y254770D01*
X301031Y254859D01*
X301067Y254950D01*
X301100Y255042D01*
X301129Y255135D01*
X301155Y255230D01*
X301176Y255325D01*
X301194Y255421D01*
X301207Y255518D01*
X301217Y255615D01*
X301223Y255712D01*
X301225Y255810D01*
X301223Y255908D01*
X301217Y256005D01*
X301207Y256102D01*
X301194Y256199D01*
X301176Y256295D01*
X301155Y256390D01*
X301129Y256485D01*
X301100Y256578D01*
X301067Y256670D01*
X301031Y256761D01*
X300991Y256850D01*
X300947Y256937D01*
X300900Y257022D01*
X300850Y257106D01*
X300796Y257188D01*
X300739Y257267D01*
X300678Y257344D01*
X300615Y257418D01*
X300549Y257490D01*
X300480Y257559D01*
X300408Y257625D01*
X300334Y257688D01*
X300257Y257749D01*
X300178Y257806D01*
X300096Y257860D01*
X300013Y257910D01*
X299927Y257957D01*
X299840Y258001D01*
X299751Y258041D01*
X299660Y258077D01*
X299568Y258110D01*
X299475Y258139D01*
X299380Y258165D01*
X299285Y258186D01*
X299189Y258204D01*
X299092Y258217D01*
X298995Y258227D01*
X298898Y258233D01*
X298800Y258235D01*
X299285Y262115D02*
X296375Y262115D01*
X299285Y262115D02*
X299372Y262113D01*
X299459Y262107D01*
X299545Y262097D01*
X299631Y262084D01*
X299717Y262066D01*
X299801Y262045D01*
X299884Y262020D01*
X299967Y261991D01*
X300047Y261959D01*
X300127Y261923D01*
X300204Y261883D01*
X300280Y261840D01*
X300354Y261794D01*
X300425Y261744D01*
X300495Y261692D01*
X300561Y261636D01*
X300626Y261577D01*
X300687Y261516D01*
X300746Y261451D01*
X300802Y261385D01*
X300854Y261315D01*
X300904Y261244D01*
X300950Y261170D01*
X300993Y261094D01*
X301033Y261017D01*
X301069Y260937D01*
X301101Y260857D01*
X301130Y260774D01*
X301155Y260691D01*
X301176Y260607D01*
X301194Y260521D01*
X301207Y260435D01*
X301217Y260349D01*
X301223Y260262D01*
X301225Y260175D01*
X301223Y260088D01*
X301217Y260001D01*
X301207Y259915D01*
X301194Y259829D01*
X301176Y259743D01*
X301155Y259659D01*
X301130Y259576D01*
X301101Y259493D01*
X301069Y259413D01*
X301033Y259333D01*
X300993Y259256D01*
X300950Y259180D01*
X300904Y259106D01*
X300854Y259035D01*
X300802Y258965D01*
X300746Y258899D01*
X300687Y258834D01*
X300626Y258773D01*
X300561Y258714D01*
X300495Y258658D01*
X300425Y258606D01*
X300354Y258556D01*
X300280Y258510D01*
X300204Y258467D01*
X300127Y258427D01*
X300047Y258391D01*
X299967Y258359D01*
X299884Y258330D01*
X299801Y258305D01*
X299717Y258284D01*
X299631Y258266D01*
X299545Y258253D01*
X299459Y258243D01*
X299372Y258237D01*
X299285Y258235D01*
X297345Y258235D01*
X460775Y255810D02*
X460775Y262115D01*
X460775Y255810D02*
X460777Y255712D01*
X460783Y255615D01*
X460793Y255518D01*
X460806Y255421D01*
X460824Y255325D01*
X460845Y255230D01*
X460871Y255135D01*
X460900Y255042D01*
X460933Y254950D01*
X460969Y254859D01*
X461009Y254770D01*
X461053Y254683D01*
X461100Y254598D01*
X461150Y254514D01*
X461204Y254432D01*
X461261Y254353D01*
X461322Y254276D01*
X461385Y254202D01*
X461451Y254130D01*
X461520Y254061D01*
X461592Y253995D01*
X461666Y253932D01*
X461743Y253871D01*
X461822Y253814D01*
X461904Y253760D01*
X461988Y253710D01*
X462073Y253663D01*
X462160Y253619D01*
X462249Y253579D01*
X462340Y253543D01*
X462432Y253510D01*
X462525Y253481D01*
X462620Y253455D01*
X462715Y253434D01*
X462811Y253416D01*
X462908Y253403D01*
X463005Y253393D01*
X463102Y253387D01*
X463200Y253385D01*
X463298Y253387D01*
X463395Y253393D01*
X463492Y253403D01*
X463589Y253416D01*
X463685Y253434D01*
X463780Y253455D01*
X463875Y253481D01*
X463968Y253510D01*
X464060Y253543D01*
X464151Y253579D01*
X464240Y253619D01*
X464327Y253663D01*
X464413Y253710D01*
X464496Y253760D01*
X464578Y253814D01*
X464657Y253871D01*
X464734Y253932D01*
X464808Y253995D01*
X464880Y254061D01*
X464949Y254130D01*
X465015Y254202D01*
X465078Y254276D01*
X465139Y254353D01*
X465196Y254432D01*
X465250Y254514D01*
X465300Y254597D01*
X465347Y254683D01*
X465391Y254770D01*
X465431Y254859D01*
X465467Y254950D01*
X465500Y255042D01*
X465529Y255135D01*
X465555Y255230D01*
X465576Y255325D01*
X465594Y255421D01*
X465607Y255518D01*
X465617Y255615D01*
X465623Y255712D01*
X465625Y255810D01*
X465625Y262115D01*
X471900Y262115D02*
X471900Y253385D01*
X471900Y257750D02*
X470688Y258478D01*
X470688Y258477D02*
X470625Y258518D01*
X470564Y258561D01*
X470505Y258607D01*
X470449Y258656D01*
X470396Y258708D01*
X470345Y258763D01*
X470297Y258820D01*
X470252Y258880D01*
X470211Y258942D01*
X470172Y259006D01*
X470137Y259072D01*
X470105Y259139D01*
X470077Y259208D01*
X470053Y259279D01*
X470032Y259350D01*
X470015Y259423D01*
X470001Y259496D01*
X469992Y259570D01*
X469986Y259645D01*
X469984Y259719D01*
X469986Y259794D01*
X469992Y259868D01*
X470001Y259942D01*
X470015Y260016D01*
X470032Y260088D01*
X470052Y260160D01*
X470077Y260231D01*
X470105Y260300D01*
X470137Y260367D01*
X470172Y260433D01*
X470210Y260497D01*
X470252Y260559D01*
X470296Y260619D01*
X470344Y260676D01*
X470395Y260731D01*
X470448Y260783D01*
X470504Y260832D01*
X470563Y260879D01*
X470624Y260922D01*
X470687Y260962D01*
X470751Y260999D01*
X470818Y261032D01*
X470887Y261062D01*
X470956Y261088D01*
X471027Y261111D01*
X471100Y261130D01*
X471173Y261145D01*
X471172Y261145D02*
X471291Y261165D01*
X471411Y261181D01*
X471530Y261194D01*
X471651Y261202D01*
X471771Y261207D01*
X471892Y261208D01*
X472012Y261205D01*
X472132Y261199D01*
X472252Y261188D01*
X472372Y261174D01*
X472491Y261156D01*
X472610Y261135D01*
X472727Y261110D01*
X472844Y261081D01*
X472960Y261048D01*
X473075Y261012D01*
X473189Y260972D01*
X473301Y260929D01*
X473412Y260882D01*
X473522Y260831D01*
X473630Y260778D01*
X473736Y260721D01*
X473840Y260660D01*
X471900Y257750D02*
X473113Y257023D01*
X473112Y257023D02*
X473175Y256982D01*
X473236Y256939D01*
X473295Y256893D01*
X473351Y256844D01*
X473404Y256792D01*
X473455Y256737D01*
X473503Y256680D01*
X473548Y256620D01*
X473589Y256558D01*
X473628Y256494D01*
X473663Y256428D01*
X473695Y256361D01*
X473723Y256292D01*
X473747Y256221D01*
X473768Y256150D01*
X473785Y256077D01*
X473799Y256004D01*
X473808Y255930D01*
X473814Y255855D01*
X473816Y255781D01*
X473814Y255706D01*
X473808Y255632D01*
X473799Y255558D01*
X473785Y255484D01*
X473768Y255412D01*
X473748Y255340D01*
X473723Y255269D01*
X473695Y255200D01*
X473663Y255133D01*
X473628Y255067D01*
X473590Y255003D01*
X473548Y254941D01*
X473504Y254881D01*
X473456Y254824D01*
X473405Y254769D01*
X473352Y254717D01*
X473296Y254668D01*
X473237Y254621D01*
X473176Y254578D01*
X473113Y254538D01*
X473049Y254501D01*
X472982Y254468D01*
X472913Y254438D01*
X472844Y254412D01*
X472773Y254389D01*
X472700Y254370D01*
X472627Y254355D01*
X472628Y254355D02*
X472509Y254335D01*
X472389Y254319D01*
X472270Y254306D01*
X472149Y254298D01*
X472029Y254293D01*
X471908Y254292D01*
X471788Y254295D01*
X471668Y254301D01*
X471548Y254312D01*
X471428Y254326D01*
X471309Y254344D01*
X471190Y254365D01*
X471073Y254390D01*
X470956Y254419D01*
X470840Y254452D01*
X470725Y254488D01*
X470611Y254528D01*
X470499Y254571D01*
X470388Y254618D01*
X470278Y254669D01*
X470170Y254722D01*
X470064Y254779D01*
X469960Y254840D01*
X477875Y260175D02*
X480300Y262115D01*
X480300Y253385D01*
X477875Y253385D02*
X482725Y253385D01*
X486875Y255325D02*
X488815Y262115D01*
X486875Y255325D02*
X491725Y255325D01*
X490270Y257265D02*
X490270Y253385D01*
X651275Y255810D02*
X651275Y262115D01*
X651275Y255810D02*
X651277Y255712D01*
X651283Y255615D01*
X651293Y255518D01*
X651306Y255421D01*
X651324Y255325D01*
X651345Y255230D01*
X651371Y255135D01*
X651400Y255042D01*
X651433Y254950D01*
X651469Y254859D01*
X651509Y254770D01*
X651553Y254683D01*
X651600Y254598D01*
X651650Y254514D01*
X651704Y254432D01*
X651761Y254353D01*
X651822Y254276D01*
X651885Y254202D01*
X651951Y254130D01*
X652020Y254061D01*
X652092Y253995D01*
X652166Y253932D01*
X652243Y253871D01*
X652322Y253814D01*
X652404Y253760D01*
X652488Y253710D01*
X652573Y253663D01*
X652660Y253619D01*
X652749Y253579D01*
X652840Y253543D01*
X652932Y253510D01*
X653025Y253481D01*
X653120Y253455D01*
X653215Y253434D01*
X653311Y253416D01*
X653408Y253403D01*
X653505Y253393D01*
X653602Y253387D01*
X653700Y253385D01*
X653798Y253387D01*
X653895Y253393D01*
X653992Y253403D01*
X654089Y253416D01*
X654185Y253434D01*
X654280Y253455D01*
X654375Y253481D01*
X654468Y253510D01*
X654560Y253543D01*
X654651Y253579D01*
X654740Y253619D01*
X654827Y253663D01*
X654913Y253710D01*
X654996Y253760D01*
X655078Y253814D01*
X655157Y253871D01*
X655234Y253932D01*
X655308Y253995D01*
X655380Y254061D01*
X655449Y254130D01*
X655515Y254202D01*
X655578Y254276D01*
X655639Y254353D01*
X655696Y254432D01*
X655750Y254514D01*
X655800Y254597D01*
X655847Y254683D01*
X655891Y254770D01*
X655931Y254859D01*
X655967Y254950D01*
X656000Y255042D01*
X656029Y255135D01*
X656055Y255230D01*
X656076Y255325D01*
X656094Y255421D01*
X656107Y255518D01*
X656117Y255615D01*
X656123Y255712D01*
X656125Y255810D01*
X656125Y262115D01*
X662400Y262115D02*
X662400Y253385D01*
X662400Y257750D02*
X661188Y258478D01*
X661188Y258477D02*
X661125Y258518D01*
X661064Y258561D01*
X661005Y258607D01*
X660949Y258656D01*
X660896Y258708D01*
X660845Y258763D01*
X660797Y258820D01*
X660752Y258880D01*
X660711Y258942D01*
X660672Y259006D01*
X660637Y259072D01*
X660605Y259139D01*
X660577Y259208D01*
X660553Y259279D01*
X660532Y259350D01*
X660515Y259423D01*
X660501Y259496D01*
X660492Y259570D01*
X660486Y259645D01*
X660484Y259719D01*
X660486Y259794D01*
X660492Y259868D01*
X660501Y259942D01*
X660515Y260016D01*
X660532Y260088D01*
X660552Y260160D01*
X660577Y260231D01*
X660605Y260300D01*
X660637Y260367D01*
X660672Y260433D01*
X660710Y260497D01*
X660752Y260559D01*
X660796Y260619D01*
X660844Y260676D01*
X660895Y260731D01*
X660948Y260783D01*
X661004Y260832D01*
X661063Y260879D01*
X661124Y260922D01*
X661187Y260962D01*
X661251Y260999D01*
X661318Y261032D01*
X661387Y261062D01*
X661456Y261088D01*
X661527Y261111D01*
X661600Y261130D01*
X661673Y261145D01*
X661672Y261145D02*
X661791Y261165D01*
X661911Y261181D01*
X662030Y261194D01*
X662151Y261202D01*
X662271Y261207D01*
X662392Y261208D01*
X662512Y261205D01*
X662632Y261199D01*
X662752Y261188D01*
X662872Y261174D01*
X662991Y261156D01*
X663110Y261135D01*
X663227Y261110D01*
X663344Y261081D01*
X663460Y261048D01*
X663575Y261012D01*
X663689Y260972D01*
X663801Y260929D01*
X663912Y260882D01*
X664022Y260831D01*
X664130Y260778D01*
X664236Y260721D01*
X664340Y260660D01*
X662400Y257750D02*
X663613Y257023D01*
X663612Y257023D02*
X663675Y256982D01*
X663736Y256939D01*
X663795Y256893D01*
X663851Y256844D01*
X663904Y256792D01*
X663955Y256737D01*
X664003Y256680D01*
X664048Y256620D01*
X664089Y256558D01*
X664128Y256494D01*
X664163Y256428D01*
X664195Y256361D01*
X664223Y256292D01*
X664247Y256221D01*
X664268Y256150D01*
X664285Y256077D01*
X664299Y256004D01*
X664308Y255930D01*
X664314Y255855D01*
X664316Y255781D01*
X664314Y255706D01*
X664308Y255632D01*
X664299Y255558D01*
X664285Y255484D01*
X664268Y255412D01*
X664248Y255340D01*
X664223Y255269D01*
X664195Y255200D01*
X664163Y255133D01*
X664128Y255067D01*
X664090Y255003D01*
X664048Y254941D01*
X664004Y254881D01*
X663956Y254824D01*
X663905Y254769D01*
X663852Y254717D01*
X663796Y254668D01*
X663737Y254621D01*
X663676Y254578D01*
X663613Y254538D01*
X663549Y254501D01*
X663482Y254468D01*
X663413Y254438D01*
X663344Y254412D01*
X663273Y254389D01*
X663200Y254370D01*
X663127Y254355D01*
X663128Y254355D02*
X663009Y254335D01*
X662889Y254319D01*
X662770Y254306D01*
X662649Y254298D01*
X662529Y254293D01*
X662408Y254292D01*
X662288Y254295D01*
X662168Y254301D01*
X662048Y254312D01*
X661928Y254326D01*
X661809Y254344D01*
X661690Y254365D01*
X661573Y254390D01*
X661456Y254419D01*
X661340Y254452D01*
X661225Y254488D01*
X661111Y254528D01*
X660999Y254571D01*
X660888Y254618D01*
X660778Y254669D01*
X660670Y254722D01*
X660564Y254779D01*
X660460Y254840D01*
X668375Y260175D02*
X670800Y262115D01*
X670800Y253385D01*
X668375Y253385D02*
X673225Y253385D01*
X677375Y253385D02*
X680285Y253385D01*
X680372Y253387D01*
X680459Y253393D01*
X680545Y253403D01*
X680631Y253416D01*
X680717Y253434D01*
X680801Y253455D01*
X680884Y253480D01*
X680967Y253509D01*
X681047Y253541D01*
X681127Y253577D01*
X681204Y253617D01*
X681280Y253660D01*
X681354Y253706D01*
X681425Y253756D01*
X681495Y253808D01*
X681561Y253864D01*
X681626Y253923D01*
X681687Y253984D01*
X681746Y254049D01*
X681802Y254115D01*
X681854Y254185D01*
X681904Y254256D01*
X681950Y254330D01*
X681993Y254406D01*
X682033Y254483D01*
X682069Y254563D01*
X682101Y254643D01*
X682130Y254726D01*
X682155Y254809D01*
X682176Y254893D01*
X682194Y254979D01*
X682207Y255065D01*
X682217Y255151D01*
X682223Y255238D01*
X682225Y255325D01*
X682225Y256295D01*
X682223Y256382D01*
X682217Y256469D01*
X682207Y256555D01*
X682194Y256641D01*
X682176Y256727D01*
X682155Y256811D01*
X682130Y256894D01*
X682101Y256977D01*
X682069Y257057D01*
X682033Y257137D01*
X681993Y257214D01*
X681950Y257290D01*
X681904Y257364D01*
X681854Y257435D01*
X681802Y257505D01*
X681746Y257571D01*
X681687Y257636D01*
X681626Y257697D01*
X681561Y257756D01*
X681495Y257812D01*
X681425Y257864D01*
X681354Y257914D01*
X681280Y257960D01*
X681204Y258003D01*
X681127Y258043D01*
X681047Y258079D01*
X680967Y258111D01*
X680884Y258140D01*
X680801Y258165D01*
X680717Y258186D01*
X680631Y258204D01*
X680545Y258217D01*
X680459Y258227D01*
X680372Y258233D01*
X680285Y258235D01*
X677375Y258235D01*
X677375Y262115D01*
X682225Y262115D01*
X79775Y71615D02*
X79775Y65310D01*
X79777Y65212D01*
X79783Y65115D01*
X79793Y65018D01*
X79806Y64921D01*
X79824Y64825D01*
X79845Y64730D01*
X79871Y64635D01*
X79900Y64542D01*
X79933Y64450D01*
X79969Y64359D01*
X80009Y64270D01*
X80053Y64183D01*
X80100Y64098D01*
X80150Y64014D01*
X80204Y63932D01*
X80261Y63853D01*
X80322Y63776D01*
X80385Y63702D01*
X80451Y63630D01*
X80520Y63561D01*
X80592Y63495D01*
X80666Y63432D01*
X80743Y63371D01*
X80822Y63314D01*
X80904Y63260D01*
X80987Y63210D01*
X81073Y63163D01*
X81160Y63119D01*
X81249Y63079D01*
X81340Y63043D01*
X81432Y63010D01*
X81525Y62981D01*
X81620Y62955D01*
X81715Y62934D01*
X81811Y62916D01*
X81908Y62903D01*
X82005Y62893D01*
X82102Y62887D01*
X82200Y62885D01*
X82298Y62887D01*
X82395Y62893D01*
X82492Y62903D01*
X82589Y62916D01*
X82685Y62934D01*
X82780Y62955D01*
X82875Y62981D01*
X82968Y63010D01*
X83060Y63043D01*
X83151Y63079D01*
X83240Y63119D01*
X83327Y63163D01*
X83412Y63210D01*
X83496Y63260D01*
X83578Y63314D01*
X83657Y63371D01*
X83734Y63432D01*
X83808Y63495D01*
X83880Y63561D01*
X83949Y63630D01*
X84015Y63702D01*
X84078Y63776D01*
X84139Y63853D01*
X84196Y63932D01*
X84250Y64014D01*
X84300Y64097D01*
X84347Y64183D01*
X84391Y64270D01*
X84431Y64359D01*
X84467Y64450D01*
X84500Y64542D01*
X84529Y64635D01*
X84555Y64730D01*
X84576Y64825D01*
X84594Y64921D01*
X84607Y65018D01*
X84617Y65115D01*
X84623Y65212D01*
X84625Y65310D01*
X84625Y71615D01*
X90900Y71615D02*
X90900Y62885D01*
X90900Y67250D02*
X89688Y67978D01*
X89688Y67977D02*
X89625Y68018D01*
X89564Y68061D01*
X89505Y68107D01*
X89449Y68156D01*
X89396Y68208D01*
X89345Y68263D01*
X89297Y68320D01*
X89252Y68380D01*
X89211Y68442D01*
X89172Y68506D01*
X89137Y68572D01*
X89105Y68639D01*
X89077Y68708D01*
X89053Y68779D01*
X89032Y68850D01*
X89015Y68923D01*
X89001Y68996D01*
X88992Y69070D01*
X88986Y69145D01*
X88984Y69219D01*
X88986Y69294D01*
X88992Y69368D01*
X89001Y69442D01*
X89015Y69516D01*
X89032Y69588D01*
X89052Y69660D01*
X89077Y69731D01*
X89105Y69800D01*
X89137Y69867D01*
X89172Y69933D01*
X89210Y69997D01*
X89252Y70059D01*
X89296Y70119D01*
X89344Y70176D01*
X89395Y70231D01*
X89448Y70283D01*
X89504Y70332D01*
X89563Y70379D01*
X89624Y70422D01*
X89687Y70462D01*
X89751Y70499D01*
X89818Y70532D01*
X89887Y70562D01*
X89956Y70588D01*
X90027Y70611D01*
X90100Y70630D01*
X90173Y70645D01*
X90172Y70645D02*
X90291Y70665D01*
X90411Y70681D01*
X90530Y70694D01*
X90651Y70702D01*
X90771Y70707D01*
X90892Y70708D01*
X91012Y70705D01*
X91132Y70699D01*
X91252Y70688D01*
X91372Y70674D01*
X91491Y70656D01*
X91610Y70635D01*
X91727Y70610D01*
X91844Y70581D01*
X91960Y70548D01*
X92075Y70512D01*
X92189Y70472D01*
X92301Y70429D01*
X92412Y70382D01*
X92522Y70331D01*
X92630Y70278D01*
X92736Y70221D01*
X92840Y70160D01*
X90900Y67250D02*
X92113Y66523D01*
X92112Y66523D02*
X92175Y66482D01*
X92236Y66439D01*
X92295Y66393D01*
X92351Y66344D01*
X92404Y66292D01*
X92455Y66237D01*
X92503Y66180D01*
X92548Y66120D01*
X92589Y66058D01*
X92628Y65994D01*
X92663Y65928D01*
X92695Y65861D01*
X92723Y65792D01*
X92747Y65721D01*
X92768Y65650D01*
X92785Y65577D01*
X92799Y65504D01*
X92808Y65430D01*
X92814Y65355D01*
X92816Y65281D01*
X92814Y65206D01*
X92808Y65132D01*
X92799Y65058D01*
X92785Y64984D01*
X92768Y64912D01*
X92748Y64840D01*
X92723Y64769D01*
X92695Y64700D01*
X92663Y64633D01*
X92628Y64567D01*
X92590Y64503D01*
X92548Y64441D01*
X92504Y64381D01*
X92456Y64324D01*
X92405Y64269D01*
X92352Y64217D01*
X92296Y64168D01*
X92237Y64121D01*
X92176Y64078D01*
X92113Y64038D01*
X92049Y64001D01*
X91982Y63968D01*
X91913Y63938D01*
X91844Y63912D01*
X91773Y63889D01*
X91700Y63870D01*
X91627Y63855D01*
X91628Y63855D02*
X91509Y63835D01*
X91389Y63819D01*
X91270Y63806D01*
X91149Y63798D01*
X91029Y63793D01*
X90908Y63792D01*
X90788Y63795D01*
X90668Y63801D01*
X90548Y63812D01*
X90428Y63826D01*
X90309Y63844D01*
X90190Y63865D01*
X90073Y63890D01*
X89956Y63919D01*
X89840Y63952D01*
X89725Y63988D01*
X89611Y64028D01*
X89499Y64071D01*
X89388Y64118D01*
X89278Y64169D01*
X89170Y64222D01*
X89064Y64279D01*
X88960Y64340D01*
X96875Y69675D02*
X99300Y71615D01*
X99300Y62885D01*
X96875Y62885D02*
X101725Y62885D01*
X105875Y67735D02*
X108785Y67735D01*
X108872Y67733D01*
X108959Y67727D01*
X109045Y67717D01*
X109131Y67704D01*
X109217Y67686D01*
X109301Y67665D01*
X109384Y67640D01*
X109467Y67611D01*
X109547Y67579D01*
X109627Y67543D01*
X109704Y67503D01*
X109780Y67460D01*
X109854Y67414D01*
X109925Y67364D01*
X109995Y67312D01*
X110061Y67256D01*
X110126Y67197D01*
X110187Y67136D01*
X110246Y67071D01*
X110302Y67005D01*
X110354Y66935D01*
X110404Y66864D01*
X110450Y66790D01*
X110493Y66714D01*
X110533Y66637D01*
X110569Y66557D01*
X110601Y66477D01*
X110630Y66394D01*
X110655Y66311D01*
X110676Y66227D01*
X110694Y66141D01*
X110707Y66055D01*
X110717Y65969D01*
X110723Y65882D01*
X110725Y65795D01*
X110725Y65310D01*
X110723Y65212D01*
X110717Y65115D01*
X110707Y65018D01*
X110694Y64921D01*
X110676Y64825D01*
X110655Y64730D01*
X110629Y64635D01*
X110600Y64542D01*
X110567Y64450D01*
X110531Y64359D01*
X110491Y64270D01*
X110447Y64183D01*
X110400Y64097D01*
X110350Y64014D01*
X110296Y63932D01*
X110239Y63853D01*
X110178Y63776D01*
X110115Y63702D01*
X110049Y63630D01*
X109980Y63561D01*
X109908Y63495D01*
X109834Y63432D01*
X109757Y63371D01*
X109678Y63314D01*
X109596Y63260D01*
X109512Y63210D01*
X109427Y63163D01*
X109340Y63119D01*
X109251Y63079D01*
X109160Y63043D01*
X109068Y63010D01*
X108975Y62981D01*
X108880Y62955D01*
X108785Y62934D01*
X108689Y62916D01*
X108592Y62903D01*
X108495Y62893D01*
X108398Y62887D01*
X108300Y62885D01*
X108202Y62887D01*
X108105Y62893D01*
X108008Y62903D01*
X107911Y62916D01*
X107815Y62934D01*
X107720Y62955D01*
X107625Y62981D01*
X107532Y63010D01*
X107440Y63043D01*
X107349Y63079D01*
X107260Y63119D01*
X107173Y63163D01*
X107087Y63210D01*
X107004Y63260D01*
X106922Y63314D01*
X106843Y63371D01*
X106766Y63432D01*
X106692Y63495D01*
X106620Y63561D01*
X106551Y63630D01*
X106485Y63702D01*
X106422Y63776D01*
X106361Y63853D01*
X106304Y63932D01*
X106250Y64014D01*
X106200Y64098D01*
X106153Y64183D01*
X106109Y64270D01*
X106069Y64359D01*
X106033Y64450D01*
X106000Y64542D01*
X105971Y64635D01*
X105945Y64730D01*
X105924Y64825D01*
X105906Y64921D01*
X105893Y65018D01*
X105883Y65115D01*
X105877Y65212D01*
X105875Y65310D01*
X105875Y67735D01*
X105877Y67857D01*
X105883Y67979D01*
X105892Y68100D01*
X105906Y68221D01*
X105923Y68342D01*
X105944Y68462D01*
X105968Y68581D01*
X105997Y68700D01*
X106029Y68817D01*
X106065Y68934D01*
X106104Y69049D01*
X106147Y69163D01*
X106194Y69276D01*
X106244Y69387D01*
X106298Y69496D01*
X106355Y69604D01*
X106415Y69710D01*
X106479Y69814D01*
X106546Y69916D01*
X106616Y70016D01*
X106689Y70113D01*
X106765Y70208D01*
X106845Y70301D01*
X106927Y70391D01*
X107011Y70479D01*
X107099Y70563D01*
X107189Y70645D01*
X107282Y70725D01*
X107377Y70801D01*
X107474Y70874D01*
X107574Y70944D01*
X107676Y71011D01*
X107780Y71075D01*
X107886Y71135D01*
X107994Y71192D01*
X108103Y71246D01*
X108214Y71296D01*
X108327Y71343D01*
X108441Y71386D01*
X108556Y71425D01*
X108673Y71461D01*
X108790Y71493D01*
X108909Y71522D01*
X109028Y71546D01*
X109148Y71567D01*
X109269Y71584D01*
X109390Y71598D01*
X109511Y71607D01*
X109633Y71613D01*
X109755Y71615D01*
X270275Y71615D02*
X270275Y65310D01*
X270277Y65212D01*
X270283Y65115D01*
X270293Y65018D01*
X270306Y64921D01*
X270324Y64825D01*
X270345Y64730D01*
X270371Y64635D01*
X270400Y64542D01*
X270433Y64450D01*
X270469Y64359D01*
X270509Y64270D01*
X270553Y64183D01*
X270600Y64098D01*
X270650Y64014D01*
X270704Y63932D01*
X270761Y63853D01*
X270822Y63776D01*
X270885Y63702D01*
X270951Y63630D01*
X271020Y63561D01*
X271092Y63495D01*
X271166Y63432D01*
X271243Y63371D01*
X271322Y63314D01*
X271404Y63260D01*
X271488Y63210D01*
X271573Y63163D01*
X271660Y63119D01*
X271749Y63079D01*
X271840Y63043D01*
X271932Y63010D01*
X272025Y62981D01*
X272120Y62955D01*
X272215Y62934D01*
X272311Y62916D01*
X272408Y62903D01*
X272505Y62893D01*
X272602Y62887D01*
X272700Y62885D01*
X272798Y62887D01*
X272895Y62893D01*
X272992Y62903D01*
X273089Y62916D01*
X273185Y62934D01*
X273280Y62955D01*
X273375Y62981D01*
X273468Y63010D01*
X273560Y63043D01*
X273651Y63079D01*
X273740Y63119D01*
X273827Y63163D01*
X273913Y63210D01*
X273996Y63260D01*
X274078Y63314D01*
X274157Y63371D01*
X274234Y63432D01*
X274308Y63495D01*
X274380Y63561D01*
X274449Y63630D01*
X274515Y63702D01*
X274578Y63776D01*
X274639Y63853D01*
X274696Y63932D01*
X274750Y64014D01*
X274800Y64097D01*
X274847Y64183D01*
X274891Y64270D01*
X274931Y64359D01*
X274967Y64450D01*
X275000Y64542D01*
X275029Y64635D01*
X275055Y64730D01*
X275076Y64825D01*
X275094Y64921D01*
X275107Y65018D01*
X275117Y65115D01*
X275123Y65212D01*
X275125Y65310D01*
X275125Y71615D01*
X281400Y71615D02*
X281400Y62885D01*
X281400Y67250D02*
X280188Y67978D01*
X280188Y67977D02*
X280125Y68018D01*
X280064Y68061D01*
X280005Y68107D01*
X279949Y68156D01*
X279896Y68208D01*
X279845Y68263D01*
X279797Y68320D01*
X279752Y68380D01*
X279711Y68442D01*
X279672Y68506D01*
X279637Y68572D01*
X279605Y68639D01*
X279577Y68708D01*
X279553Y68779D01*
X279532Y68850D01*
X279515Y68923D01*
X279501Y68996D01*
X279492Y69070D01*
X279486Y69145D01*
X279484Y69219D01*
X279486Y69294D01*
X279492Y69368D01*
X279501Y69442D01*
X279515Y69516D01*
X279532Y69588D01*
X279552Y69660D01*
X279577Y69731D01*
X279605Y69800D01*
X279637Y69867D01*
X279672Y69933D01*
X279710Y69997D01*
X279752Y70059D01*
X279796Y70119D01*
X279844Y70176D01*
X279895Y70231D01*
X279948Y70283D01*
X280004Y70332D01*
X280063Y70379D01*
X280124Y70422D01*
X280187Y70462D01*
X280251Y70499D01*
X280318Y70532D01*
X280387Y70562D01*
X280456Y70588D01*
X280527Y70611D01*
X280600Y70630D01*
X280673Y70645D01*
X280672Y70645D02*
X280791Y70665D01*
X280911Y70681D01*
X281030Y70694D01*
X281151Y70702D01*
X281271Y70707D01*
X281392Y70708D01*
X281512Y70705D01*
X281632Y70699D01*
X281752Y70688D01*
X281872Y70674D01*
X281991Y70656D01*
X282110Y70635D01*
X282227Y70610D01*
X282344Y70581D01*
X282460Y70548D01*
X282575Y70512D01*
X282689Y70472D01*
X282801Y70429D01*
X282912Y70382D01*
X283022Y70331D01*
X283130Y70278D01*
X283236Y70221D01*
X283340Y70160D01*
X281400Y67250D02*
X282613Y66523D01*
X282612Y66523D02*
X282675Y66482D01*
X282736Y66439D01*
X282795Y66393D01*
X282851Y66344D01*
X282904Y66292D01*
X282955Y66237D01*
X283003Y66180D01*
X283048Y66120D01*
X283089Y66058D01*
X283128Y65994D01*
X283163Y65928D01*
X283195Y65861D01*
X283223Y65792D01*
X283247Y65721D01*
X283268Y65650D01*
X283285Y65577D01*
X283299Y65504D01*
X283308Y65430D01*
X283314Y65355D01*
X283316Y65281D01*
X283314Y65206D01*
X283308Y65132D01*
X283299Y65058D01*
X283285Y64984D01*
X283268Y64912D01*
X283248Y64840D01*
X283223Y64769D01*
X283195Y64700D01*
X283163Y64633D01*
X283128Y64567D01*
X283090Y64503D01*
X283048Y64441D01*
X283004Y64381D01*
X282956Y64324D01*
X282905Y64269D01*
X282852Y64217D01*
X282796Y64168D01*
X282737Y64121D01*
X282676Y64078D01*
X282613Y64038D01*
X282549Y64001D01*
X282482Y63968D01*
X282413Y63938D01*
X282344Y63912D01*
X282273Y63889D01*
X282200Y63870D01*
X282127Y63855D01*
X282128Y63855D02*
X282009Y63835D01*
X281889Y63819D01*
X281770Y63806D01*
X281649Y63798D01*
X281529Y63793D01*
X281408Y63792D01*
X281288Y63795D01*
X281168Y63801D01*
X281048Y63812D01*
X280928Y63826D01*
X280809Y63844D01*
X280690Y63865D01*
X280573Y63890D01*
X280456Y63919D01*
X280340Y63952D01*
X280225Y63988D01*
X280111Y64028D01*
X279999Y64071D01*
X279888Y64118D01*
X279778Y64169D01*
X279670Y64222D01*
X279564Y64279D01*
X279460Y64340D01*
X287375Y69675D02*
X289800Y71615D01*
X289800Y62885D01*
X287375Y62885D02*
X292225Y62885D01*
X296375Y70645D02*
X296375Y71615D01*
X301225Y71615D01*
X298800Y62885D01*
X460775Y65310D02*
X460775Y71615D01*
X460775Y65310D02*
X460777Y65212D01*
X460783Y65115D01*
X460793Y65018D01*
X460806Y64921D01*
X460824Y64825D01*
X460845Y64730D01*
X460871Y64635D01*
X460900Y64542D01*
X460933Y64450D01*
X460969Y64359D01*
X461009Y64270D01*
X461053Y64183D01*
X461100Y64098D01*
X461150Y64014D01*
X461204Y63932D01*
X461261Y63853D01*
X461322Y63776D01*
X461385Y63702D01*
X461451Y63630D01*
X461520Y63561D01*
X461592Y63495D01*
X461666Y63432D01*
X461743Y63371D01*
X461822Y63314D01*
X461904Y63260D01*
X461988Y63210D01*
X462073Y63163D01*
X462160Y63119D01*
X462249Y63079D01*
X462340Y63043D01*
X462432Y63010D01*
X462525Y62981D01*
X462620Y62955D01*
X462715Y62934D01*
X462811Y62916D01*
X462908Y62903D01*
X463005Y62893D01*
X463102Y62887D01*
X463200Y62885D01*
X463298Y62887D01*
X463395Y62893D01*
X463492Y62903D01*
X463589Y62916D01*
X463685Y62934D01*
X463780Y62955D01*
X463875Y62981D01*
X463968Y63010D01*
X464060Y63043D01*
X464151Y63079D01*
X464240Y63119D01*
X464327Y63163D01*
X464413Y63210D01*
X464496Y63260D01*
X464578Y63314D01*
X464657Y63371D01*
X464734Y63432D01*
X464808Y63495D01*
X464880Y63561D01*
X464949Y63630D01*
X465015Y63702D01*
X465078Y63776D01*
X465139Y63853D01*
X465196Y63932D01*
X465250Y64014D01*
X465300Y64097D01*
X465347Y64183D01*
X465391Y64270D01*
X465431Y64359D01*
X465467Y64450D01*
X465500Y64542D01*
X465529Y64635D01*
X465555Y64730D01*
X465576Y64825D01*
X465594Y64921D01*
X465607Y65018D01*
X465617Y65115D01*
X465623Y65212D01*
X465625Y65310D01*
X465625Y71615D01*
X471900Y71615D02*
X471900Y62885D01*
X471900Y67250D02*
X470688Y67978D01*
X470688Y67977D02*
X470625Y68018D01*
X470564Y68061D01*
X470505Y68107D01*
X470449Y68156D01*
X470396Y68208D01*
X470345Y68263D01*
X470297Y68320D01*
X470252Y68380D01*
X470211Y68442D01*
X470172Y68506D01*
X470137Y68572D01*
X470105Y68639D01*
X470077Y68708D01*
X470053Y68779D01*
X470032Y68850D01*
X470015Y68923D01*
X470001Y68996D01*
X469992Y69070D01*
X469986Y69145D01*
X469984Y69219D01*
X469986Y69294D01*
X469992Y69368D01*
X470001Y69442D01*
X470015Y69516D01*
X470032Y69588D01*
X470052Y69660D01*
X470077Y69731D01*
X470105Y69800D01*
X470137Y69867D01*
X470172Y69933D01*
X470210Y69997D01*
X470252Y70059D01*
X470296Y70119D01*
X470344Y70176D01*
X470395Y70231D01*
X470448Y70283D01*
X470504Y70332D01*
X470563Y70379D01*
X470624Y70422D01*
X470687Y70462D01*
X470751Y70499D01*
X470818Y70532D01*
X470887Y70562D01*
X470956Y70588D01*
X471027Y70611D01*
X471100Y70630D01*
X471173Y70645D01*
X471172Y70645D02*
X471291Y70665D01*
X471411Y70681D01*
X471530Y70694D01*
X471651Y70702D01*
X471771Y70707D01*
X471892Y70708D01*
X472012Y70705D01*
X472132Y70699D01*
X472252Y70688D01*
X472372Y70674D01*
X472491Y70656D01*
X472610Y70635D01*
X472727Y70610D01*
X472844Y70581D01*
X472960Y70548D01*
X473075Y70512D01*
X473189Y70472D01*
X473301Y70429D01*
X473412Y70382D01*
X473522Y70331D01*
X473630Y70278D01*
X473736Y70221D01*
X473840Y70160D01*
X471900Y67250D02*
X473113Y66523D01*
X473112Y66523D02*
X473175Y66482D01*
X473236Y66439D01*
X473295Y66393D01*
X473351Y66344D01*
X473404Y66292D01*
X473455Y66237D01*
X473503Y66180D01*
X473548Y66120D01*
X473589Y66058D01*
X473628Y65994D01*
X473663Y65928D01*
X473695Y65861D01*
X473723Y65792D01*
X473747Y65721D01*
X473768Y65650D01*
X473785Y65577D01*
X473799Y65504D01*
X473808Y65430D01*
X473814Y65355D01*
X473816Y65281D01*
X473814Y65206D01*
X473808Y65132D01*
X473799Y65058D01*
X473785Y64984D01*
X473768Y64912D01*
X473748Y64840D01*
X473723Y64769D01*
X473695Y64700D01*
X473663Y64633D01*
X473628Y64567D01*
X473590Y64503D01*
X473548Y64441D01*
X473504Y64381D01*
X473456Y64324D01*
X473405Y64269D01*
X473352Y64217D01*
X473296Y64168D01*
X473237Y64121D01*
X473176Y64078D01*
X473113Y64038D01*
X473049Y64001D01*
X472982Y63968D01*
X472913Y63938D01*
X472844Y63912D01*
X472773Y63889D01*
X472700Y63870D01*
X472627Y63855D01*
X472628Y63855D02*
X472509Y63835D01*
X472389Y63819D01*
X472270Y63806D01*
X472149Y63798D01*
X472029Y63793D01*
X471908Y63792D01*
X471788Y63795D01*
X471668Y63801D01*
X471548Y63812D01*
X471428Y63826D01*
X471309Y63844D01*
X471190Y63865D01*
X471073Y63890D01*
X470956Y63919D01*
X470840Y63952D01*
X470725Y63988D01*
X470611Y64028D01*
X470499Y64071D01*
X470388Y64118D01*
X470278Y64169D01*
X470170Y64222D01*
X470064Y64279D01*
X469960Y64340D01*
X477875Y69675D02*
X480300Y71615D01*
X480300Y62885D01*
X477875Y62885D02*
X482725Y62885D01*
X486875Y65310D02*
X486877Y65408D01*
X486883Y65505D01*
X486893Y65602D01*
X486906Y65699D01*
X486924Y65795D01*
X486945Y65890D01*
X486971Y65985D01*
X487000Y66078D01*
X487033Y66170D01*
X487069Y66261D01*
X487109Y66350D01*
X487153Y66437D01*
X487200Y66523D01*
X487250Y66606D01*
X487304Y66688D01*
X487361Y66767D01*
X487422Y66844D01*
X487485Y66918D01*
X487551Y66990D01*
X487620Y67059D01*
X487692Y67125D01*
X487766Y67188D01*
X487843Y67249D01*
X487922Y67306D01*
X488004Y67360D01*
X488088Y67410D01*
X488173Y67457D01*
X488260Y67501D01*
X488349Y67541D01*
X488440Y67577D01*
X488532Y67610D01*
X488625Y67639D01*
X488720Y67665D01*
X488815Y67686D01*
X488911Y67704D01*
X489008Y67717D01*
X489105Y67727D01*
X489202Y67733D01*
X489300Y67735D01*
X489398Y67733D01*
X489495Y67727D01*
X489592Y67717D01*
X489689Y67704D01*
X489785Y67686D01*
X489880Y67665D01*
X489975Y67639D01*
X490068Y67610D01*
X490160Y67577D01*
X490251Y67541D01*
X490340Y67501D01*
X490427Y67457D01*
X490513Y67410D01*
X490596Y67360D01*
X490678Y67306D01*
X490757Y67249D01*
X490834Y67188D01*
X490908Y67125D01*
X490980Y67059D01*
X491049Y66990D01*
X491115Y66918D01*
X491178Y66844D01*
X491239Y66767D01*
X491296Y66688D01*
X491350Y66606D01*
X491400Y66523D01*
X491447Y66437D01*
X491491Y66350D01*
X491531Y66261D01*
X491567Y66170D01*
X491600Y66078D01*
X491629Y65985D01*
X491655Y65890D01*
X491676Y65795D01*
X491694Y65699D01*
X491707Y65602D01*
X491717Y65505D01*
X491723Y65408D01*
X491725Y65310D01*
X491723Y65212D01*
X491717Y65115D01*
X491707Y65018D01*
X491694Y64921D01*
X491676Y64825D01*
X491655Y64730D01*
X491629Y64635D01*
X491600Y64542D01*
X491567Y64450D01*
X491531Y64359D01*
X491491Y64270D01*
X491447Y64183D01*
X491400Y64097D01*
X491350Y64014D01*
X491296Y63932D01*
X491239Y63853D01*
X491178Y63776D01*
X491115Y63702D01*
X491049Y63630D01*
X490980Y63561D01*
X490908Y63495D01*
X490834Y63432D01*
X490757Y63371D01*
X490678Y63314D01*
X490596Y63260D01*
X490513Y63210D01*
X490427Y63163D01*
X490340Y63119D01*
X490251Y63079D01*
X490160Y63043D01*
X490068Y63010D01*
X489975Y62981D01*
X489880Y62955D01*
X489785Y62934D01*
X489689Y62916D01*
X489592Y62903D01*
X489495Y62893D01*
X489398Y62887D01*
X489300Y62885D01*
X489202Y62887D01*
X489105Y62893D01*
X489008Y62903D01*
X488911Y62916D01*
X488815Y62934D01*
X488720Y62955D01*
X488625Y62981D01*
X488532Y63010D01*
X488440Y63043D01*
X488349Y63079D01*
X488260Y63119D01*
X488173Y63163D01*
X488088Y63210D01*
X488004Y63260D01*
X487922Y63314D01*
X487843Y63371D01*
X487766Y63432D01*
X487692Y63495D01*
X487620Y63561D01*
X487551Y63630D01*
X487485Y63702D01*
X487422Y63776D01*
X487361Y63853D01*
X487304Y63932D01*
X487250Y64014D01*
X487200Y64098D01*
X487153Y64183D01*
X487109Y64270D01*
X487069Y64359D01*
X487033Y64450D01*
X487000Y64542D01*
X486971Y64635D01*
X486945Y64730D01*
X486924Y64825D01*
X486906Y64921D01*
X486893Y65018D01*
X486883Y65115D01*
X486877Y65212D01*
X486875Y65310D01*
X487360Y69675D02*
X487362Y69762D01*
X487368Y69849D01*
X487378Y69935D01*
X487391Y70021D01*
X487409Y70107D01*
X487430Y70191D01*
X487455Y70274D01*
X487484Y70357D01*
X487516Y70437D01*
X487552Y70517D01*
X487592Y70594D01*
X487635Y70670D01*
X487681Y70744D01*
X487731Y70815D01*
X487783Y70885D01*
X487839Y70951D01*
X487898Y71016D01*
X487959Y71077D01*
X488024Y71136D01*
X488090Y71192D01*
X488160Y71244D01*
X488231Y71294D01*
X488305Y71340D01*
X488381Y71383D01*
X488458Y71423D01*
X488538Y71459D01*
X488618Y71491D01*
X488701Y71520D01*
X488784Y71545D01*
X488868Y71566D01*
X488954Y71584D01*
X489040Y71597D01*
X489126Y71607D01*
X489213Y71613D01*
X489300Y71615D01*
X489387Y71613D01*
X489474Y71607D01*
X489560Y71597D01*
X489646Y71584D01*
X489732Y71566D01*
X489816Y71545D01*
X489899Y71520D01*
X489982Y71491D01*
X490062Y71459D01*
X490142Y71423D01*
X490219Y71383D01*
X490295Y71340D01*
X490369Y71294D01*
X490440Y71244D01*
X490510Y71192D01*
X490576Y71136D01*
X490641Y71077D01*
X490702Y71016D01*
X490761Y70951D01*
X490817Y70885D01*
X490869Y70815D01*
X490919Y70744D01*
X490965Y70670D01*
X491008Y70594D01*
X491048Y70517D01*
X491084Y70437D01*
X491116Y70357D01*
X491145Y70274D01*
X491170Y70191D01*
X491191Y70107D01*
X491209Y70021D01*
X491222Y69935D01*
X491232Y69849D01*
X491238Y69762D01*
X491240Y69675D01*
X491238Y69588D01*
X491232Y69501D01*
X491222Y69415D01*
X491209Y69329D01*
X491191Y69243D01*
X491170Y69159D01*
X491145Y69076D01*
X491116Y68993D01*
X491084Y68913D01*
X491048Y68833D01*
X491008Y68756D01*
X490965Y68680D01*
X490919Y68606D01*
X490869Y68535D01*
X490817Y68465D01*
X490761Y68399D01*
X490702Y68334D01*
X490641Y68273D01*
X490576Y68214D01*
X490510Y68158D01*
X490440Y68106D01*
X490369Y68056D01*
X490295Y68010D01*
X490219Y67967D01*
X490142Y67927D01*
X490062Y67891D01*
X489982Y67859D01*
X489899Y67830D01*
X489816Y67805D01*
X489732Y67784D01*
X489646Y67766D01*
X489560Y67753D01*
X489474Y67743D01*
X489387Y67737D01*
X489300Y67735D01*
X489213Y67737D01*
X489126Y67743D01*
X489040Y67753D01*
X488954Y67766D01*
X488868Y67784D01*
X488784Y67805D01*
X488701Y67830D01*
X488618Y67859D01*
X488538Y67891D01*
X488458Y67927D01*
X488381Y67967D01*
X488305Y68010D01*
X488231Y68056D01*
X488160Y68106D01*
X488090Y68158D01*
X488024Y68214D01*
X487959Y68273D01*
X487898Y68334D01*
X487839Y68399D01*
X487783Y68465D01*
X487731Y68535D01*
X487681Y68606D01*
X487635Y68680D01*
X487592Y68756D01*
X487552Y68833D01*
X487516Y68913D01*
X487484Y68993D01*
X487455Y69076D01*
X487430Y69159D01*
X487409Y69243D01*
X487391Y69329D01*
X487378Y69415D01*
X487368Y69501D01*
X487362Y69588D01*
X487360Y69675D01*
X651275Y71615D02*
X651275Y65310D01*
X651277Y65212D01*
X651283Y65115D01*
X651293Y65018D01*
X651306Y64921D01*
X651324Y64825D01*
X651345Y64730D01*
X651371Y64635D01*
X651400Y64542D01*
X651433Y64450D01*
X651469Y64359D01*
X651509Y64270D01*
X651553Y64183D01*
X651600Y64098D01*
X651650Y64014D01*
X651704Y63932D01*
X651761Y63853D01*
X651822Y63776D01*
X651885Y63702D01*
X651951Y63630D01*
X652020Y63561D01*
X652092Y63495D01*
X652166Y63432D01*
X652243Y63371D01*
X652322Y63314D01*
X652404Y63260D01*
X652488Y63210D01*
X652573Y63163D01*
X652660Y63119D01*
X652749Y63079D01*
X652840Y63043D01*
X652932Y63010D01*
X653025Y62981D01*
X653120Y62955D01*
X653215Y62934D01*
X653311Y62916D01*
X653408Y62903D01*
X653505Y62893D01*
X653602Y62887D01*
X653700Y62885D01*
X653798Y62887D01*
X653895Y62893D01*
X653992Y62903D01*
X654089Y62916D01*
X654185Y62934D01*
X654280Y62955D01*
X654375Y62981D01*
X654468Y63010D01*
X654560Y63043D01*
X654651Y63079D01*
X654740Y63119D01*
X654827Y63163D01*
X654913Y63210D01*
X654996Y63260D01*
X655078Y63314D01*
X655157Y63371D01*
X655234Y63432D01*
X655308Y63495D01*
X655380Y63561D01*
X655449Y63630D01*
X655515Y63702D01*
X655578Y63776D01*
X655639Y63853D01*
X655696Y63932D01*
X655750Y64014D01*
X655800Y64097D01*
X655847Y64183D01*
X655891Y64270D01*
X655931Y64359D01*
X655967Y64450D01*
X656000Y64542D01*
X656029Y64635D01*
X656055Y64730D01*
X656076Y64825D01*
X656094Y64921D01*
X656107Y65018D01*
X656117Y65115D01*
X656123Y65212D01*
X656125Y65310D01*
X656125Y71615D01*
X662400Y71615D02*
X662400Y62885D01*
X662400Y67250D02*
X661188Y67978D01*
X661188Y67977D02*
X661125Y68018D01*
X661064Y68061D01*
X661005Y68107D01*
X660949Y68156D01*
X660896Y68208D01*
X660845Y68263D01*
X660797Y68320D01*
X660752Y68380D01*
X660711Y68442D01*
X660672Y68506D01*
X660637Y68572D01*
X660605Y68639D01*
X660577Y68708D01*
X660553Y68779D01*
X660532Y68850D01*
X660515Y68923D01*
X660501Y68996D01*
X660492Y69070D01*
X660486Y69145D01*
X660484Y69219D01*
X660486Y69294D01*
X660492Y69368D01*
X660501Y69442D01*
X660515Y69516D01*
X660532Y69588D01*
X660552Y69660D01*
X660577Y69731D01*
X660605Y69800D01*
X660637Y69867D01*
X660672Y69933D01*
X660710Y69997D01*
X660752Y70059D01*
X660796Y70119D01*
X660844Y70176D01*
X660895Y70231D01*
X660948Y70283D01*
X661004Y70332D01*
X661063Y70379D01*
X661124Y70422D01*
X661187Y70462D01*
X661251Y70499D01*
X661318Y70532D01*
X661387Y70562D01*
X661456Y70588D01*
X661527Y70611D01*
X661600Y70630D01*
X661673Y70645D01*
X661672Y70645D02*
X661791Y70665D01*
X661911Y70681D01*
X662030Y70694D01*
X662151Y70702D01*
X662271Y70707D01*
X662392Y70708D01*
X662512Y70705D01*
X662632Y70699D01*
X662752Y70688D01*
X662872Y70674D01*
X662991Y70656D01*
X663110Y70635D01*
X663227Y70610D01*
X663344Y70581D01*
X663460Y70548D01*
X663575Y70512D01*
X663689Y70472D01*
X663801Y70429D01*
X663912Y70382D01*
X664022Y70331D01*
X664130Y70278D01*
X664236Y70221D01*
X664340Y70160D01*
X662400Y67250D02*
X663613Y66523D01*
X663612Y66523D02*
X663675Y66482D01*
X663736Y66439D01*
X663795Y66393D01*
X663851Y66344D01*
X663904Y66292D01*
X663955Y66237D01*
X664003Y66180D01*
X664048Y66120D01*
X664089Y66058D01*
X664128Y65994D01*
X664163Y65928D01*
X664195Y65861D01*
X664223Y65792D01*
X664247Y65721D01*
X664268Y65650D01*
X664285Y65577D01*
X664299Y65504D01*
X664308Y65430D01*
X664314Y65355D01*
X664316Y65281D01*
X664314Y65206D01*
X664308Y65132D01*
X664299Y65058D01*
X664285Y64984D01*
X664268Y64912D01*
X664248Y64840D01*
X664223Y64769D01*
X664195Y64700D01*
X664163Y64633D01*
X664128Y64567D01*
X664090Y64503D01*
X664048Y64441D01*
X664004Y64381D01*
X663956Y64324D01*
X663905Y64269D01*
X663852Y64217D01*
X663796Y64168D01*
X663737Y64121D01*
X663676Y64078D01*
X663613Y64038D01*
X663549Y64001D01*
X663482Y63968D01*
X663413Y63938D01*
X663344Y63912D01*
X663273Y63889D01*
X663200Y63870D01*
X663127Y63855D01*
X663128Y63855D02*
X663009Y63835D01*
X662889Y63819D01*
X662770Y63806D01*
X662649Y63798D01*
X662529Y63793D01*
X662408Y63792D01*
X662288Y63795D01*
X662168Y63801D01*
X662048Y63812D01*
X661928Y63826D01*
X661809Y63844D01*
X661690Y63865D01*
X661573Y63890D01*
X661456Y63919D01*
X661340Y63952D01*
X661225Y63988D01*
X661111Y64028D01*
X660999Y64071D01*
X660888Y64118D01*
X660778Y64169D01*
X660670Y64222D01*
X660564Y64279D01*
X660460Y64340D01*
X668375Y69675D02*
X670800Y71615D01*
X670800Y62885D01*
X668375Y62885D02*
X673225Y62885D01*
X679315Y66765D02*
X682225Y66765D01*
X679315Y66765D02*
X679228Y66767D01*
X679141Y66773D01*
X679055Y66783D01*
X678969Y66796D01*
X678883Y66814D01*
X678799Y66835D01*
X678716Y66860D01*
X678633Y66889D01*
X678553Y66921D01*
X678473Y66957D01*
X678396Y66997D01*
X678320Y67040D01*
X678246Y67086D01*
X678175Y67136D01*
X678105Y67188D01*
X678039Y67244D01*
X677974Y67303D01*
X677913Y67364D01*
X677854Y67429D01*
X677798Y67495D01*
X677746Y67565D01*
X677696Y67636D01*
X677650Y67710D01*
X677607Y67786D01*
X677567Y67863D01*
X677531Y67943D01*
X677499Y68023D01*
X677470Y68106D01*
X677445Y68189D01*
X677424Y68273D01*
X677406Y68359D01*
X677393Y68445D01*
X677383Y68531D01*
X677377Y68618D01*
X677375Y68705D01*
X677375Y69190D01*
X677377Y69288D01*
X677383Y69385D01*
X677393Y69482D01*
X677406Y69579D01*
X677424Y69675D01*
X677445Y69770D01*
X677471Y69865D01*
X677500Y69958D01*
X677533Y70050D01*
X677569Y70141D01*
X677609Y70230D01*
X677653Y70317D01*
X677700Y70403D01*
X677750Y70486D01*
X677804Y70568D01*
X677861Y70647D01*
X677922Y70724D01*
X677985Y70798D01*
X678051Y70870D01*
X678120Y70939D01*
X678192Y71005D01*
X678266Y71068D01*
X678343Y71129D01*
X678422Y71186D01*
X678504Y71240D01*
X678588Y71290D01*
X678673Y71337D01*
X678760Y71381D01*
X678849Y71421D01*
X678940Y71457D01*
X679032Y71490D01*
X679125Y71519D01*
X679220Y71545D01*
X679315Y71566D01*
X679411Y71584D01*
X679508Y71597D01*
X679605Y71607D01*
X679702Y71613D01*
X679800Y71615D01*
X679898Y71613D01*
X679995Y71607D01*
X680092Y71597D01*
X680189Y71584D01*
X680285Y71566D01*
X680380Y71545D01*
X680475Y71519D01*
X680568Y71490D01*
X680660Y71457D01*
X680751Y71421D01*
X680840Y71381D01*
X680927Y71337D01*
X681013Y71290D01*
X681096Y71240D01*
X681178Y71186D01*
X681257Y71129D01*
X681334Y71068D01*
X681408Y71005D01*
X681480Y70939D01*
X681549Y70870D01*
X681615Y70798D01*
X681678Y70724D01*
X681739Y70647D01*
X681796Y70568D01*
X681850Y70486D01*
X681900Y70403D01*
X681947Y70317D01*
X681991Y70230D01*
X682031Y70141D01*
X682067Y70050D01*
X682100Y69958D01*
X682129Y69865D01*
X682155Y69770D01*
X682176Y69675D01*
X682194Y69579D01*
X682207Y69482D01*
X682217Y69385D01*
X682223Y69288D01*
X682225Y69190D01*
X682225Y66765D01*
X682223Y66643D01*
X682217Y66521D01*
X682208Y66400D01*
X682194Y66279D01*
X682177Y66158D01*
X682156Y66038D01*
X682132Y65919D01*
X682103Y65800D01*
X682071Y65683D01*
X682035Y65566D01*
X681996Y65451D01*
X681953Y65337D01*
X681906Y65224D01*
X681856Y65113D01*
X681802Y65004D01*
X681745Y64896D01*
X681685Y64790D01*
X681621Y64686D01*
X681554Y64584D01*
X681484Y64484D01*
X681411Y64387D01*
X681335Y64292D01*
X681255Y64199D01*
X681173Y64109D01*
X681089Y64021D01*
X681001Y63937D01*
X680911Y63855D01*
X680818Y63775D01*
X680723Y63699D01*
X680626Y63626D01*
X680526Y63556D01*
X680424Y63489D01*
X680320Y63425D01*
X680214Y63365D01*
X680106Y63308D01*
X679997Y63254D01*
X679886Y63204D01*
X679773Y63157D01*
X679659Y63114D01*
X679544Y63075D01*
X679427Y63039D01*
X679310Y63007D01*
X679191Y62978D01*
X679072Y62954D01*
X678952Y62933D01*
X678831Y62916D01*
X678710Y62902D01*
X678589Y62893D01*
X678467Y62887D01*
X678345Y62885D01*
M02*
