G04 EAGLE Gerber RS-274X export*
G75*
%MOMM*%
%FSLAX34Y34*%
%LPD*%
%INSoldermask Bottom*%
%IPPOS*%
%AMOC8*
5,1,8,0,0,1.08239X$1,22.5*%
G01*
%ADD10C,4.203200*%
%ADD11C,1.903200*%
%ADD12C,2.743200*%
%ADD13C,3.253200*%
%ADD14R,1.423200X1.113200*%
%ADD15C,0.686816*%
%ADD16C,0.276759*%
%ADD17R,1.653200X0.803200*%
%ADD18R,1.653200X0.503200*%
%ADD19C,1.361200*%
%ADD20C,0.903200*%
%ADD21R,1.283200X1.253200*%
%ADD22R,1.253200X1.283200*%
%ADD23R,1.253200X1.503200*%
%ADD24R,1.153200X0.753200*%
%ADD25R,1.103200X1.173400*%
%ADD26R,1.135800X1.173400*%
%ADD27R,1.203200X0.803200*%
%ADD28R,0.803200X0.803200*%
%ADD29R,1.203200X1.203200*%
%ADD30C,0.959600*%


D10*
X95250Y857250D03*
D11*
X44450Y857250D03*
X146050Y857250D03*
D12*
X57150Y882650D03*
X120650Y908050D03*
D10*
X381000Y857250D03*
D11*
X330200Y857250D03*
X431800Y857250D03*
D13*
X262000Y787250D03*
X500000Y787250D03*
D10*
X262000Y939650D03*
X500000Y939650D03*
D12*
X342900Y882650D03*
X406400Y908050D03*
D10*
X666750Y857250D03*
D11*
X615950Y857250D03*
X717550Y857250D03*
D12*
X628650Y882650D03*
X692150Y908050D03*
D10*
X95250Y666750D03*
D11*
X44450Y666750D03*
X146050Y666750D03*
D12*
X57150Y692150D03*
X120650Y717550D03*
D10*
X285750Y666750D03*
D11*
X234950Y666750D03*
X336550Y666750D03*
D12*
X247650Y692150D03*
X311150Y717550D03*
D10*
X476250Y666750D03*
D11*
X425450Y666750D03*
X527050Y666750D03*
D12*
X438150Y692150D03*
X501650Y717550D03*
D10*
X666750Y666750D03*
D11*
X615950Y666750D03*
X717550Y666750D03*
D12*
X628650Y692150D03*
X692150Y717550D03*
D10*
X95250Y476250D03*
D11*
X44450Y476250D03*
X146050Y476250D03*
D12*
X57150Y501650D03*
X120650Y527050D03*
D10*
X285750Y476250D03*
D11*
X234950Y476250D03*
X336550Y476250D03*
D12*
X247650Y501650D03*
X311150Y527050D03*
D10*
X476250Y476250D03*
D11*
X425450Y476250D03*
X527050Y476250D03*
D12*
X438150Y501650D03*
X501650Y527050D03*
D10*
X666750Y476250D03*
D11*
X615950Y476250D03*
X717550Y476250D03*
D12*
X628650Y501650D03*
X692150Y527050D03*
D10*
X95250Y285750D03*
D11*
X44450Y285750D03*
X146050Y285750D03*
D12*
X57150Y311150D03*
X120650Y336550D03*
D10*
X285750Y285750D03*
D11*
X234950Y285750D03*
X336550Y285750D03*
D12*
X247650Y311150D03*
X311150Y336550D03*
D10*
X476250Y285750D03*
D11*
X425450Y285750D03*
X527050Y285750D03*
D12*
X438150Y311150D03*
X501650Y336550D03*
D10*
X666750Y285750D03*
D11*
X615950Y285750D03*
X717550Y285750D03*
D12*
X628650Y311150D03*
X692150Y336550D03*
D10*
X95250Y95250D03*
D11*
X44450Y95250D03*
X146050Y95250D03*
D12*
X57150Y120650D03*
X120650Y146050D03*
D10*
X285750Y95250D03*
D11*
X234950Y95250D03*
X336550Y95250D03*
D12*
X247650Y120650D03*
X311150Y146050D03*
D10*
X476250Y95250D03*
D11*
X425450Y95250D03*
X527050Y95250D03*
D12*
X438150Y120650D03*
X501650Y146050D03*
D10*
X666750Y95250D03*
D11*
X615950Y95250D03*
X717550Y95250D03*
D12*
X628650Y120650D03*
X692150Y146050D03*
D14*
X60559Y809878D03*
X60559Y842578D03*
X346309Y809878D03*
X346309Y842578D03*
X632059Y809878D03*
X632059Y842578D03*
X61438Y617775D03*
X61438Y650475D03*
X251938Y617775D03*
X251938Y650475D03*
X442438Y617775D03*
X442438Y650475D03*
X632938Y617775D03*
X632938Y650475D03*
X61438Y422275D03*
X61438Y454975D03*
X251938Y422275D03*
X251938Y454975D03*
X442438Y422275D03*
X442438Y454975D03*
X632938Y422275D03*
X632938Y454975D03*
X61438Y236775D03*
X61438Y269475D03*
X251938Y236775D03*
X251938Y269475D03*
X442438Y236775D03*
X442438Y269475D03*
X632938Y236775D03*
X632938Y269475D03*
X61438Y46275D03*
X61438Y78975D03*
X251938Y46275D03*
X251938Y78975D03*
X442438Y46275D03*
X442438Y78975D03*
X632938Y46275D03*
X632938Y78975D03*
D15*
X400492Y1028977D02*
X354528Y1028977D01*
X400492Y1028977D02*
X400492Y983013D01*
X354528Y983013D01*
X354528Y1028977D01*
X354528Y989538D02*
X400492Y989538D01*
X400492Y996063D02*
X354528Y996063D01*
X354528Y1002588D02*
X400492Y1002588D01*
X400492Y1009113D02*
X354528Y1009113D01*
X354528Y1015638D02*
X400492Y1015638D01*
X400492Y1022163D02*
X354528Y1022163D01*
X354528Y1028688D02*
X400492Y1028688D01*
D16*
X406378Y1029863D02*
X415642Y1029863D01*
X406378Y1029863D02*
X406378Y1032127D01*
X415642Y1032127D01*
X415642Y1029863D01*
X415642Y1024863D02*
X406378Y1024863D01*
X406378Y1027127D01*
X415642Y1027127D01*
X415642Y1024863D01*
X415642Y1019863D02*
X406378Y1019863D01*
X406378Y1022127D01*
X415642Y1022127D01*
X415642Y1019863D01*
X415642Y1014863D02*
X406378Y1014863D01*
X406378Y1017127D01*
X415642Y1017127D01*
X415642Y1014863D01*
X415642Y1009863D02*
X406378Y1009863D01*
X406378Y1012127D01*
X415642Y1012127D01*
X415642Y1009863D01*
X415642Y1004863D02*
X406378Y1004863D01*
X406378Y1007127D01*
X415642Y1007127D01*
X415642Y1004863D01*
X415642Y999863D02*
X406378Y999863D01*
X406378Y1002127D01*
X415642Y1002127D01*
X415642Y999863D01*
X415642Y994863D02*
X406378Y994863D01*
X406378Y997127D01*
X415642Y997127D01*
X415642Y994863D01*
X415642Y989863D02*
X406378Y989863D01*
X406378Y992127D01*
X415642Y992127D01*
X415642Y989863D01*
X415642Y984863D02*
X406378Y984863D01*
X406378Y987127D01*
X415642Y987127D01*
X415642Y984863D01*
X415642Y979863D02*
X406378Y979863D01*
X406378Y982127D01*
X415642Y982127D01*
X415642Y979863D01*
X401378Y977127D02*
X401378Y967863D01*
X401378Y977127D02*
X403642Y977127D01*
X403642Y967863D01*
X401378Y967863D01*
X401378Y970493D02*
X403642Y970493D01*
X403642Y973123D02*
X401378Y973123D01*
X401378Y975753D02*
X403642Y975753D01*
X396378Y977127D02*
X396378Y967863D01*
X396378Y977127D02*
X398642Y977127D01*
X398642Y967863D01*
X396378Y967863D01*
X396378Y970493D02*
X398642Y970493D01*
X398642Y973123D02*
X396378Y973123D01*
X396378Y975753D02*
X398642Y975753D01*
X391378Y977127D02*
X391378Y967863D01*
X391378Y977127D02*
X393642Y977127D01*
X393642Y967863D01*
X391378Y967863D01*
X391378Y970493D02*
X393642Y970493D01*
X393642Y973123D02*
X391378Y973123D01*
X391378Y975753D02*
X393642Y975753D01*
X386378Y977127D02*
X386378Y967863D01*
X386378Y977127D02*
X388642Y977127D01*
X388642Y967863D01*
X386378Y967863D01*
X386378Y970493D02*
X388642Y970493D01*
X388642Y973123D02*
X386378Y973123D01*
X386378Y975753D02*
X388642Y975753D01*
X381378Y977127D02*
X381378Y967863D01*
X381378Y977127D02*
X383642Y977127D01*
X383642Y967863D01*
X381378Y967863D01*
X381378Y970493D02*
X383642Y970493D01*
X383642Y973123D02*
X381378Y973123D01*
X381378Y975753D02*
X383642Y975753D01*
X376378Y977127D02*
X376378Y967863D01*
X376378Y977127D02*
X378642Y977127D01*
X378642Y967863D01*
X376378Y967863D01*
X376378Y970493D02*
X378642Y970493D01*
X378642Y973123D02*
X376378Y973123D01*
X376378Y975753D02*
X378642Y975753D01*
X371378Y977127D02*
X371378Y967863D01*
X371378Y977127D02*
X373642Y977127D01*
X373642Y967863D01*
X371378Y967863D01*
X371378Y970493D02*
X373642Y970493D01*
X373642Y973123D02*
X371378Y973123D01*
X371378Y975753D02*
X373642Y975753D01*
X366378Y977127D02*
X366378Y967863D01*
X366378Y977127D02*
X368642Y977127D01*
X368642Y967863D01*
X366378Y967863D01*
X366378Y970493D02*
X368642Y970493D01*
X368642Y973123D02*
X366378Y973123D01*
X366378Y975753D02*
X368642Y975753D01*
X361378Y977127D02*
X361378Y967863D01*
X361378Y977127D02*
X363642Y977127D01*
X363642Y967863D01*
X361378Y967863D01*
X361378Y970493D02*
X363642Y970493D01*
X363642Y973123D02*
X361378Y973123D01*
X361378Y975753D02*
X363642Y975753D01*
X356378Y977127D02*
X356378Y967863D01*
X356378Y977127D02*
X358642Y977127D01*
X358642Y967863D01*
X356378Y967863D01*
X356378Y970493D02*
X358642Y970493D01*
X358642Y973123D02*
X356378Y973123D01*
X356378Y975753D02*
X358642Y975753D01*
X351378Y977127D02*
X351378Y967863D01*
X351378Y977127D02*
X353642Y977127D01*
X353642Y967863D01*
X351378Y967863D01*
X351378Y970493D02*
X353642Y970493D01*
X353642Y973123D02*
X351378Y973123D01*
X351378Y975753D02*
X353642Y975753D01*
X348642Y982127D02*
X339378Y982127D01*
X348642Y982127D02*
X348642Y979863D01*
X339378Y979863D01*
X339378Y982127D01*
X339378Y987127D02*
X348642Y987127D01*
X348642Y984863D01*
X339378Y984863D01*
X339378Y987127D01*
X339378Y992127D02*
X348642Y992127D01*
X348642Y989863D01*
X339378Y989863D01*
X339378Y992127D01*
X339378Y997127D02*
X348642Y997127D01*
X348642Y994863D01*
X339378Y994863D01*
X339378Y997127D01*
X339378Y1002127D02*
X348642Y1002127D01*
X348642Y999863D01*
X339378Y999863D01*
X339378Y1002127D01*
X339378Y1007127D02*
X348642Y1007127D01*
X348642Y1004863D01*
X339378Y1004863D01*
X339378Y1007127D01*
X339378Y1012127D02*
X348642Y1012127D01*
X348642Y1009863D01*
X339378Y1009863D01*
X339378Y1012127D01*
X339378Y1017127D02*
X348642Y1017127D01*
X348642Y1014863D01*
X339378Y1014863D01*
X339378Y1017127D01*
X339378Y1022127D02*
X348642Y1022127D01*
X348642Y1019863D01*
X339378Y1019863D01*
X339378Y1022127D01*
X339378Y1027127D02*
X348642Y1027127D01*
X348642Y1024863D01*
X339378Y1024863D01*
X339378Y1027127D01*
X339378Y1032127D02*
X348642Y1032127D01*
X348642Y1029863D01*
X339378Y1029863D01*
X339378Y1032127D01*
X353642Y1034863D02*
X353642Y1044127D01*
X353642Y1034863D02*
X351378Y1034863D01*
X351378Y1044127D01*
X353642Y1044127D01*
X353642Y1037493D02*
X351378Y1037493D01*
X351378Y1040123D02*
X353642Y1040123D01*
X353642Y1042753D02*
X351378Y1042753D01*
X358642Y1044127D02*
X358642Y1034863D01*
X356378Y1034863D01*
X356378Y1044127D01*
X358642Y1044127D01*
X358642Y1037493D02*
X356378Y1037493D01*
X356378Y1040123D02*
X358642Y1040123D01*
X358642Y1042753D02*
X356378Y1042753D01*
X363642Y1044127D02*
X363642Y1034863D01*
X361378Y1034863D01*
X361378Y1044127D01*
X363642Y1044127D01*
X363642Y1037493D02*
X361378Y1037493D01*
X361378Y1040123D02*
X363642Y1040123D01*
X363642Y1042753D02*
X361378Y1042753D01*
X368642Y1044127D02*
X368642Y1034863D01*
X366378Y1034863D01*
X366378Y1044127D01*
X368642Y1044127D01*
X368642Y1037493D02*
X366378Y1037493D01*
X366378Y1040123D02*
X368642Y1040123D01*
X368642Y1042753D02*
X366378Y1042753D01*
X373642Y1044127D02*
X373642Y1034863D01*
X371378Y1034863D01*
X371378Y1044127D01*
X373642Y1044127D01*
X373642Y1037493D02*
X371378Y1037493D01*
X371378Y1040123D02*
X373642Y1040123D01*
X373642Y1042753D02*
X371378Y1042753D01*
X378642Y1044127D02*
X378642Y1034863D01*
X376378Y1034863D01*
X376378Y1044127D01*
X378642Y1044127D01*
X378642Y1037493D02*
X376378Y1037493D01*
X376378Y1040123D02*
X378642Y1040123D01*
X378642Y1042753D02*
X376378Y1042753D01*
X383642Y1044127D02*
X383642Y1034863D01*
X381378Y1034863D01*
X381378Y1044127D01*
X383642Y1044127D01*
X383642Y1037493D02*
X381378Y1037493D01*
X381378Y1040123D02*
X383642Y1040123D01*
X383642Y1042753D02*
X381378Y1042753D01*
X388642Y1044127D02*
X388642Y1034863D01*
X386378Y1034863D01*
X386378Y1044127D01*
X388642Y1044127D01*
X388642Y1037493D02*
X386378Y1037493D01*
X386378Y1040123D02*
X388642Y1040123D01*
X388642Y1042753D02*
X386378Y1042753D01*
X393642Y1044127D02*
X393642Y1034863D01*
X391378Y1034863D01*
X391378Y1044127D01*
X393642Y1044127D01*
X393642Y1037493D02*
X391378Y1037493D01*
X391378Y1040123D02*
X393642Y1040123D01*
X393642Y1042753D02*
X391378Y1042753D01*
X398642Y1044127D02*
X398642Y1034863D01*
X396378Y1034863D01*
X396378Y1044127D01*
X398642Y1044127D01*
X398642Y1037493D02*
X396378Y1037493D01*
X396378Y1040123D02*
X398642Y1040123D01*
X398642Y1042753D02*
X396378Y1042753D01*
X403642Y1044127D02*
X403642Y1034863D01*
X401378Y1034863D01*
X401378Y1044127D01*
X403642Y1044127D01*
X403642Y1037493D02*
X401378Y1037493D01*
X401378Y1040123D02*
X403642Y1040123D01*
X403642Y1042753D02*
X401378Y1042753D01*
D17*
X74415Y989915D03*
X74415Y997915D03*
D18*
X74415Y1019915D03*
X74415Y1014915D03*
X74415Y1009915D03*
X74415Y1004915D03*
X74415Y1024915D03*
X74415Y1029915D03*
X74415Y1034915D03*
X74415Y1039915D03*
D17*
X74415Y1046915D03*
X74415Y1054915D03*
D19*
X71055Y979215D02*
X59475Y979215D01*
X59475Y1065615D02*
X71055Y1065615D01*
X29255Y979215D02*
X17675Y979215D01*
X17675Y1065615D02*
X29255Y1065615D01*
D20*
X59965Y993515D03*
X59965Y1051315D03*
D21*
X97573Y1060604D03*
X97573Y1043104D03*
D22*
X281250Y990000D03*
X298750Y990000D03*
D21*
X140000Y971250D03*
X140000Y988750D03*
X490000Y1026250D03*
X490000Y1043750D03*
X540000Y1026250D03*
X540000Y1043750D03*
X590000Y1026250D03*
X590000Y1043750D03*
X640000Y1026250D03*
X640000Y1043750D03*
X610000Y1008750D03*
X610000Y991250D03*
X430000Y1053750D03*
X430000Y1036250D03*
D22*
X201250Y1060000D03*
X218750Y1060000D03*
D23*
X95750Y958500D03*
X114250Y958500D03*
X114250Y981500D03*
X95750Y981500D03*
D21*
X685000Y1026250D03*
X685000Y1043750D03*
X490000Y998750D03*
X490000Y981250D03*
D24*
X171000Y951000D03*
X171000Y939000D03*
X139000Y939000D03*
X139000Y951000D03*
D21*
X655000Y998750D03*
X655000Y981250D03*
X690000Y998750D03*
X690000Y981250D03*
D25*
X202851Y990000D03*
D26*
X187312Y990000D03*
D27*
X267500Y1035500D03*
D28*
X250500Y1035500D03*
X269500Y1054500D03*
X250500Y1054500D03*
D29*
X174000Y1000000D03*
X156000Y1000000D03*
D30*
X425000Y995000D03*
X393599Y962175D03*
X330000Y1010000D03*
X410202Y1046782D03*
X471446Y1026755D03*
X450000Y1035000D03*
X450000Y1015000D03*
X460000Y1035000D03*
X460000Y1015000D03*
X420000Y975000D03*
X125000Y945000D03*
X445000Y1045000D03*
X675000Y980000D03*
X200000Y1045000D03*
X240000Y1025000D03*
X95000Y1005000D03*
X260000Y990000D03*
X475000Y995000D03*
X325178Y988846D03*
M02*
