M48
;GenerationSoftware,Autodesk,EAGLE,9.6.2*%
;CreationDate,2021-02-15T19:24:47Z*%
FMAT,2
ICI,OFF
METRIC,TZ,000.000
T7C0.350
T6C0.650
T5C0.700
T4C1.300
T3C1.700
T2C3.050
T1C4.000
%
G90
M71
T1
X47625Y9525
X9525Y9525
X50000Y93965
X47625Y28575
X66675Y9525
X66675Y85725
X66675Y28575
X9525Y85725
X28575Y9525
X26200Y93965
X38100Y85725
X9525Y66675
X28575Y66675
X47625Y66675
X66675Y66675
X9525Y47625
X66675Y47625
X28575Y47625
X47625Y47625
X9525Y28575
X28575Y28575
T2
X26200Y78725
X50000Y78725
T3
X71755Y28575
X61595Y28575
X52705Y28575
X4445Y85725
X14605Y85725
X33020Y85725
X43180Y85725
X42545Y28575
X71755Y85725
X33655Y28575
X4445Y66675
X14605Y66675
X71755Y9525
X23495Y66675
X33655Y66675
X61595Y9525
X42545Y66675
X52705Y66675
X52705Y9525
X61595Y66675
X71755Y66675
X42545Y9525
X4445Y47625
X61595Y85725
X33655Y9525
X23495Y47625
X33655Y47625
X23495Y9525
X42545Y47625
X52705Y47625
X14605Y47625
X61595Y47625
X71755Y47625
X14605Y9525
X4445Y28575
X14605Y28575
X4445Y9525
X23495Y28575
T4
X69215Y14605
X43815Y31115
X5715Y88265
X12065Y90805
X34290Y88265
X40640Y90805
X62865Y88265
X69215Y90805
X5715Y69215
X12065Y71755
X24765Y69215
X31115Y71755
X43815Y69215
X50165Y71755
X62865Y69215
X69215Y71755
X5715Y50165
X12065Y52705
X24765Y50165
X31115Y52705
X43815Y50165
X50165Y52705
X62865Y50165
X69215Y52705
X5715Y31115
X12065Y33655
X24765Y31115
X31115Y33655
X50165Y33655
X62865Y31115
X69215Y33655
X5715Y12065
X12065Y14605
X24765Y12065
X31115Y14605
X43815Y12065
X50165Y14605
X62865Y12065
T5
X5997Y105131
X5997Y99351
T6
X6527Y97921
X6527Y106561
X2347Y97921
X2347Y106561
T7
X39360Y96217
X9500Y100500
X32518Y98885
X47500Y99500
X26000Y99000
X24000Y102500
X20000Y104500
X67500Y98000
X42500Y99500
X44500Y104500
X12500Y94500
X42000Y97500
X46000Y101500
X46000Y103500
X45000Y101500
X45000Y103500
X47145Y102675
X41020Y104678
X33000Y101000
M30